G04 #@! TF.GenerationSoftware,KiCad,Pcbnew,8.0.1*
G04 #@! TF.CreationDate,2024-11-14T10:24:17-05:00*
G04 #@! TF.ProjectId,induction_encoder,696e6475-6374-4696-9f6e-5f656e636f64,rev?*
G04 #@! TF.SameCoordinates,Original*
G04 #@! TF.FileFunction,Other,User*
%FSLAX46Y46*%
G04 Gerber Fmt 4.6, Leading zero omitted, Abs format (unit mm)*
G04 Created by KiCad (PCBNEW 8.0.1) date 2024-11-14 10:24:17*
%MOMM*%
%LPD*%
G01*
G04 APERTURE LIST*
%ADD10C,0.050000*%
G04 APERTURE END LIST*
D10*
G04 #@! TO.C,U10*
X183809272Y-85865930D02*
X188977581Y-83984819D01*
X188977581Y-83984819D02*
X186344026Y-76749186D01*
X181175717Y-78630297D02*
X183809272Y-85865930D01*
X186344026Y-76749186D02*
X181175717Y-78630297D01*
G04 #@! TO.C,J2*
X177657864Y-145736094D02*
X189258603Y-151145608D01*
X189258603Y-151145608D02*
X196121924Y-136427169D01*
X184521184Y-131017655D02*
X177657864Y-145736094D01*
X196121924Y-136427169D02*
X184521184Y-131017655D01*
G04 #@! TO.C,U11*
X182449762Y-153884055D02*
X179904178Y-151338471D01*
X182449762Y-153884055D02*
X178277832Y-158055985D01*
X179904178Y-151338471D02*
X175732248Y-155510401D01*
X178277832Y-158055985D02*
X175732248Y-155510401D01*
G04 #@! TO.C,U12*
X181010000Y-59325000D02*
X181010000Y-55725000D01*
X181010000Y-59325000D02*
X175110000Y-59325000D01*
X181010000Y-55725000D02*
X175110000Y-55725000D01*
X175110000Y-59325000D02*
X175110000Y-55725000D01*
G04 #@! TO.C,U7*
X185217414Y-72797172D02*
X183986142Y-69414279D01*
X185217414Y-72797172D02*
X179673228Y-74815091D01*
X183986142Y-69414279D02*
X178441956Y-71432198D01*
X179673228Y-74815091D02*
X178441956Y-71432198D01*
G04 #@! TO.C,U5*
X77160834Y-158480210D02*
X74756670Y-156076046D01*
X74756670Y-156076046D02*
X72041380Y-158791336D01*
X74445544Y-161195500D02*
X77160834Y-158480210D01*
X72041380Y-158791336D02*
X74445544Y-161195500D01*
G04 #@! TO.C,U8*
X56554894Y-112206631D02*
X56554894Y-108806631D01*
X56554894Y-108806631D02*
X52714894Y-108806631D01*
X52714894Y-112206631D02*
X56554894Y-112206631D01*
X52714894Y-108806631D02*
X52714894Y-112206631D01*
G04 #@! TO.C,U1*
X74697960Y-64955925D02*
X77102124Y-62551761D01*
X77102124Y-62551761D02*
X74386834Y-59836471D01*
X71982670Y-62240635D02*
X74697960Y-64955925D01*
X74386834Y-59836471D02*
X71982670Y-62240635D01*
G04 #@! TO.C,U6*
X120964894Y-44391631D02*
X124364894Y-44391631D01*
X124364894Y-44391631D02*
X124364894Y-40551631D01*
X120964894Y-40551631D02*
X120964894Y-44391631D01*
X124364894Y-40551631D02*
X120964894Y-40551631D01*
G04 #@! TO.C,U3*
X168267254Y-62556006D02*
X170671418Y-64960170D01*
X170671418Y-64960170D02*
X173386708Y-62244880D01*
X170982544Y-59840716D02*
X168267254Y-62556006D01*
X173386708Y-62244880D02*
X170982544Y-59840716D01*
G04 #@! TO.C,U4*
X124389894Y-176601631D02*
X120989894Y-176601631D01*
X120989894Y-176601631D02*
X120989894Y-180441631D01*
X124389894Y-180441631D02*
X124389894Y-176601631D01*
X120989894Y-180441631D02*
X124389894Y-180441631D01*
G04 #@! TO.C,U2*
X170683722Y-156046118D02*
X168279558Y-158450282D01*
X168279558Y-158450282D02*
X170994848Y-161165572D01*
X173399012Y-158761408D02*
X170683722Y-156046118D01*
X170994848Y-161165572D02*
X173399012Y-158761408D01*
G04 #@! TO.C,U9*
X188799893Y-108766631D02*
X188799893Y-112166631D01*
X188799893Y-112166631D02*
X192639893Y-112166631D01*
X192639893Y-108766631D02*
X188799893Y-108766631D01*
X192639893Y-112166631D02*
X192639893Y-108766631D01*
G04 #@! TO.C,C15*
X171300743Y-64337915D02*
X173393779Y-62244879D01*
X172333119Y-65370291D02*
X171300743Y-64337915D01*
X173393779Y-62244879D02*
X174426155Y-63277255D01*
X174426155Y-63277255D02*
X172333119Y-65370291D01*
G04 #@! TO.C,TP7*
X185471005Y-87617228D02*
G75*
G02*
X182471005Y-87617228I-1500000J0D01*
G01*
X182471005Y-87617228D02*
G75*
G02*
X185471005Y-87617228I1500000J0D01*
G01*
G04 #@! TO.C,C2*
X70950295Y-63329579D02*
X71982671Y-62297203D01*
X71982671Y-62297203D02*
X74075707Y-64390239D01*
X73043331Y-65422615D02*
X70950295Y-63329579D01*
X74075707Y-64390239D02*
X73043331Y-65422615D01*
G04 #@! TO.C,C14*
X167857133Y-60880164D02*
X169950169Y-58787128D01*
X168889509Y-61912540D02*
X167857133Y-60880164D01*
X169950169Y-58787128D02*
X170982545Y-59819504D01*
X170982545Y-59819504D02*
X168889509Y-61912540D01*
G04 #@! TO.C,C11*
X52944894Y-112236631D02*
X55904894Y-112236631D01*
X52944894Y-113696631D02*
X52944894Y-112236631D01*
X55904894Y-112236631D02*
X55904894Y-113696631D01*
X55904894Y-113696631D02*
X52944894Y-113696631D01*
G04 #@! TO.C,C22*
X124399894Y-40546631D02*
X125859894Y-40546631D01*
X124399894Y-43506631D02*
X124399894Y-40546631D01*
X125859894Y-40546631D02*
X125859894Y-43506631D01*
X125859894Y-43506631D02*
X124399894Y-43506631D01*
G04 #@! TO.C,C26*
X189694893Y-107291631D02*
X192654893Y-107291631D01*
X189694893Y-108751631D02*
X189694893Y-107291631D01*
X192654893Y-107291631D02*
X192654893Y-108751631D01*
X192654893Y-108751631D02*
X189694893Y-108751631D01*
G04 #@! TO.C,TP4*
X187210000Y-124980000D02*
G75*
G02*
X184210000Y-124980000I-1500000J0D01*
G01*
X184210000Y-124980000D02*
G75*
G02*
X187210000Y-124980000I1500000J0D01*
G01*
G04 #@! TO.C,C5*
X174650375Y-152307207D02*
X176743411Y-150214171D01*
X175682751Y-153339583D02*
X174650375Y-152307207D01*
X176743411Y-150214171D02*
X177775787Y-151246547D01*
X177775787Y-151246547D02*
X175682751Y-153339583D01*
G04 #@! TO.C,TP1*
X196981005Y-117597228D02*
G75*
G02*
X193981005Y-117597228I-1500000J0D01*
G01*
X193981005Y-117597228D02*
G75*
G02*
X196981005Y-117597228I1500000J0D01*
G01*
G04 #@! TO.C,C30*
X186051944Y-86754514D02*
X187423895Y-86255164D01*
X187064323Y-89536004D02*
X186051944Y-86754514D01*
X187423895Y-86255164D02*
X188436274Y-89036654D01*
X188436274Y-89036654D02*
X187064323Y-89536004D01*
G04 #@! TO.C,C12*
X167862365Y-160126124D02*
X168894741Y-159093748D01*
X168894741Y-159093748D02*
X170987777Y-161186784D01*
X169955401Y-162219160D02*
X167862365Y-160126124D01*
X170987777Y-161186784D02*
X169955401Y-162219160D01*
G04 #@! TO.C,C3*
X74393905Y-59801117D02*
X75426281Y-58768741D01*
X75426281Y-58768741D02*
X77519317Y-60861777D01*
X76486941Y-61894153D02*
X74393905Y-59801117D01*
X77519317Y-60861777D02*
X76486941Y-61894153D01*
G04 #@! TO.C,C10*
X74495042Y-161202570D02*
X76588078Y-159109534D01*
X75527418Y-162234946D02*
X74495042Y-161202570D01*
X76588078Y-159109534D02*
X77620454Y-160141910D01*
X77620454Y-160141910D02*
X75527418Y-162234946D01*
G04 #@! TO.C,C28*
X185174170Y-89169329D02*
X186546121Y-88669979D01*
X186186549Y-91950819D02*
X185174170Y-89169329D01*
X186546121Y-88669979D02*
X187558500Y-91451469D01*
X187558500Y-91451469D02*
X186186549Y-91950819D01*
G04 #@! TO.C,C29*
X181322482Y-83759469D02*
X182694433Y-83260119D01*
X182334861Y-86540959D02*
X181322482Y-83759469D01*
X182694433Y-83260119D02*
X183706812Y-86041609D01*
X183706812Y-86041609D02*
X182334861Y-86540959D01*
G04 #@! TO.C,C41*
X187186410Y-78449620D02*
X189967900Y-77437241D01*
X187685760Y-79821571D02*
X187186410Y-78449620D01*
X189967900Y-77437241D02*
X190467250Y-78809192D01*
X190467250Y-78809192D02*
X187685760Y-79821571D01*
G04 #@! TO.C,C16*
X119519894Y-177491631D02*
X120979894Y-177491631D01*
X119519894Y-180451631D02*
X119519894Y-177491631D01*
X120979894Y-177491631D02*
X120979894Y-180451631D01*
X120979894Y-180451631D02*
X119519894Y-180451631D01*
G04 #@! TO.C,C27*
X189684894Y-112171631D02*
X192644894Y-112171631D01*
X189684894Y-113631631D02*
X189684894Y-112171631D01*
X192644894Y-112171631D02*
X192644894Y-113631631D01*
X192644894Y-113631631D02*
X189684894Y-113631631D01*
G04 #@! TO.C,C1*
X176570000Y-52724999D02*
X179530000Y-52724999D01*
X176570000Y-54184999D02*
X176570000Y-52724999D01*
X179530000Y-52724999D02*
X179530000Y-54184999D01*
X179530000Y-54184999D02*
X176570000Y-54184999D01*
G04 #@! TO.C,R12*
X190751604Y-85041850D02*
X192123555Y-84542500D01*
X191763983Y-87823340D02*
X190751604Y-85041850D01*
X192123555Y-84542500D02*
X193135934Y-87323990D01*
X193135934Y-87323990D02*
X191763983Y-87823340D01*
G04 #@! TO.C,C37*
X179320101Y-75321402D02*
X180692052Y-74822052D01*
X180332480Y-78102892D02*
X179320101Y-75321402D01*
X180692052Y-74822052D02*
X181704431Y-77603542D01*
X181704431Y-77603542D02*
X180332480Y-78102892D01*
G04 #@! TO.C,C40*
X186630135Y-76985586D02*
X189411625Y-75973207D01*
X187129485Y-78357537D02*
X186630135Y-76985586D01*
X189411625Y-75973207D02*
X189910975Y-77345158D01*
X189910975Y-77345158D02*
X187129485Y-78357537D01*
G04 #@! TO.C,C25*
X177021315Y-149550199D02*
X177849647Y-147773835D01*
X177849647Y-147773835D02*
X180931093Y-149210737D01*
X180102761Y-150987101D02*
X177021315Y-149550199D01*
X180931093Y-149210737D02*
X180102761Y-150987101D01*
G04 #@! TO.C,R2*
X190363111Y-93817998D02*
X193323111Y-93817998D01*
X190363111Y-95277998D02*
X190363111Y-93817998D01*
X193323111Y-93817998D02*
X193323111Y-95277998D01*
X193323111Y-95277998D02*
X190363111Y-95277998D01*
G04 #@! TO.C,C17*
X70980720Y-157730676D02*
X73073756Y-155637640D01*
X72013096Y-158763052D02*
X70980720Y-157730676D01*
X73073756Y-155637640D02*
X74106132Y-156670016D01*
X74106132Y-156670016D02*
X72013096Y-158763052D01*
G04 #@! TO.C,C32*
X189911682Y-88804006D02*
X191283633Y-88304656D01*
X190924061Y-91585496D02*
X189911682Y-88804006D01*
X191283633Y-88304656D02*
X192296012Y-91086146D01*
X192296012Y-91086146D02*
X190924061Y-91585496D01*
G04 #@! TO.C,R11*
X189139775Y-85630635D02*
X190511726Y-85131285D01*
X190152154Y-88412125D02*
X189139775Y-85630635D01*
X190511726Y-85131285D02*
X191524105Y-87912775D01*
X191524105Y-87912775D02*
X190152154Y-88412125D01*
G04 #@! TO.C,R10*
X180203808Y-80687790D02*
X181575759Y-80188440D01*
X181216187Y-83469280D02*
X180203808Y-80687790D01*
X181575759Y-80188440D02*
X182588138Y-82969930D01*
X182588138Y-82969930D02*
X181216187Y-83469280D01*
G04 #@! TO.C,C9*
X124399894Y-177491631D02*
X125859894Y-177491631D01*
X124399894Y-180451631D02*
X124399894Y-177491631D01*
X125859894Y-177491631D02*
X125859894Y-180451631D01*
X125859894Y-180451631D02*
X124399894Y-180451631D01*
G04 #@! TO.C,C35*
X182874018Y-74027882D02*
X184245969Y-73528532D01*
X183886397Y-76809372D02*
X182874018Y-74027882D01*
X184245969Y-73528532D02*
X185258348Y-76310022D01*
X185258348Y-76310022D02*
X183886397Y-76809372D01*
G04 #@! TO.C,C8*
X171327188Y-156661301D02*
X172359564Y-155628925D01*
X172359564Y-155628925D02*
X174452600Y-157721961D01*
X173420224Y-158754337D02*
X171327188Y-156661301D01*
X174452600Y-157721961D02*
X173420224Y-158754337D01*
G04 #@! TO.C,C21*
X119459893Y-40536631D02*
X120919893Y-40536631D01*
X119459893Y-43496631D02*
X119459893Y-40536631D01*
X120919893Y-40536631D02*
X120919893Y-43496631D01*
X120919893Y-43496631D02*
X119459893Y-43496631D01*
G04 #@! TO.C,C6*
X175725177Y-153367867D02*
X177818213Y-151274831D01*
X176757553Y-154400243D02*
X175725177Y-153367867D01*
X177818213Y-151274831D02*
X178850589Y-152307207D01*
X178850589Y-152307207D02*
X176757553Y-154400243D01*
G04 #@! TO.C,C4*
X176572071Y-54205858D02*
X179532071Y-54205858D01*
X176572071Y-55665858D02*
X176572071Y-54205858D01*
X179532071Y-54205858D02*
X179532071Y-55665858D01*
X179532071Y-55665858D02*
X176572071Y-55665858D01*
G04 #@! TO.C,C38*
X188176788Y-81074171D02*
X190958278Y-80061792D01*
X188676138Y-82446122D02*
X188176788Y-81074171D01*
X190958278Y-80061792D02*
X191457628Y-81433743D01*
X191457628Y-81433743D02*
X188676138Y-82446122D01*
G04 #@! TO.C,R1*
X191663113Y-92227998D02*
X194623113Y-92227998D01*
X191663113Y-93687998D02*
X191663113Y-92227998D01*
X194623113Y-92227998D02*
X194623113Y-93687998D01*
X194623113Y-93687998D02*
X191663113Y-93687998D01*
G04 #@! TO.C,C18*
X53064894Y-107316631D02*
X56024894Y-107316631D01*
X53064894Y-108776631D02*
X53064894Y-107316631D01*
X56024894Y-107316631D02*
X56024894Y-108776631D01*
X56024894Y-108776631D02*
X53064894Y-108776631D01*
G04 #@! TO.C,C34*
X184336002Y-73465967D02*
X185707953Y-72966617D01*
X185348381Y-76247457D02*
X184336002Y-73465967D01*
X185707953Y-72966617D02*
X186720332Y-75748107D01*
X186720332Y-75748107D02*
X185348381Y-76247457D01*
G04 #@! TO.C,C33*
X192218208Y-84510179D02*
X193590159Y-84010829D01*
X193230587Y-87291669D02*
X192218208Y-84510179D01*
X193590159Y-84010829D02*
X194602538Y-86792319D01*
X194602538Y-86792319D02*
X193230587Y-87291669D01*
G04 #@! TO.C,C24*
X176286883Y-70130793D02*
X177658834Y-69631443D01*
X177299262Y-72912283D02*
X176286883Y-70130793D01*
X177658834Y-69631443D02*
X178671213Y-72412933D01*
X178671213Y-72412933D02*
X177299262Y-72912283D01*
G04 #@! TO.C,C36*
X180744676Y-74802900D02*
X182116627Y-74303550D01*
X181757055Y-77584390D02*
X180744676Y-74802900D01*
X182116627Y-74303550D02*
X183129006Y-77085040D01*
X183129006Y-77085040D02*
X181757055Y-77584390D01*
G04 #@! TO.C,C31*
X187527261Y-86217542D02*
X188899212Y-85718192D01*
X188539640Y-88999032D02*
X187527261Y-86217542D01*
X188899212Y-85718192D02*
X189911591Y-88499682D01*
X189911591Y-88499682D02*
X188539640Y-88999032D01*
G04 #@! TO.C,C7*
X52974894Y-103706631D02*
X56374894Y-103706631D01*
X52974894Y-105666631D02*
X52974894Y-103706631D01*
X56374894Y-103706631D02*
X56374894Y-105666631D01*
X56374894Y-105666631D02*
X52974894Y-105666631D01*
G04 #@! TO.C,C39*
X188730758Y-82546494D02*
X191512248Y-81534115D01*
X189230108Y-83918445D02*
X188730758Y-82546494D01*
X191512248Y-81534115D02*
X192011598Y-82906066D01*
X192011598Y-82906066D02*
X189230108Y-83918445D01*
G04 #@! TO.C,C23*
X174768000Y-70694261D02*
X176139951Y-70194911D01*
X175780379Y-73475751D02*
X174768000Y-70694261D01*
X176139951Y-70194911D02*
X177152330Y-72976401D01*
X177152330Y-72976401D02*
X175780379Y-73475751D01*
G04 #@! TO.C,TP8*
X187890000Y-107670000D02*
G75*
G02*
X184890000Y-107670000I-1500000J0D01*
G01*
X184890000Y-107670000D02*
G75*
G02*
X187890000Y-107670000I1500000J0D01*
G01*
G04 #@! TD*
M02*
