G04 #@! TF.GenerationSoftware,KiCad,Pcbnew,8.0.1*
G04 #@! TF.CreationDate,2024-11-14T10:24:17-05:00*
G04 #@! TF.ProjectId,induction_encoder,696e6475-6374-4696-9f6e-5f656e636f64,rev?*
G04 #@! TF.SameCoordinates,Original*
G04 #@! TF.FileFunction,Copper,L3,Inr*
G04 #@! TF.FilePolarity,Positive*
%FSLAX46Y46*%
G04 Gerber Fmt 4.6, Leading zero omitted, Abs format (unit mm)*
G04 Created by KiCad (PCBNEW 8.0.1) date 2024-11-14 10:24:17*
%MOMM*%
%LPD*%
G01*
G04 APERTURE LIST*
G04 Aperture macros list*
%AMRoundRect*
0 Rectangle with rounded corners*
0 $1 Rounding radius*
0 $2 $3 $4 $5 $6 $7 $8 $9 X,Y pos of 4 corners*
0 Add a 4 corners polygon primitive as box body*
4,1,4,$2,$3,$4,$5,$6,$7,$8,$9,$2,$3,0*
0 Add four circle primitives for the rounded corners*
1,1,$1+$1,$2,$3*
1,1,$1+$1,$4,$5*
1,1,$1+$1,$6,$7*
1,1,$1+$1,$8,$9*
0 Add four rect primitives between the rounded corners*
20,1,$1+$1,$2,$3,$4,$5,0*
20,1,$1+$1,$4,$5,$6,$7,0*
20,1,$1+$1,$6,$7,$8,$9,0*
20,1,$1+$1,$8,$9,$2,$3,0*%
%AMHorizOval*
0 Thick line with rounded ends*
0 $1 width*
0 $2 $3 position (X,Y) of the first rounded end (center of the circle)*
0 $4 $5 position (X,Y) of the second rounded end (center of the circle)*
0 Add line between two ends*
20,1,$1,$2,$3,$4,$5,0*
0 Add two circle primitives to create the rounded ends*
1,1,$1,$2,$3*
1,1,$1,$4,$5*%
G04 Aperture macros list end*
G04 #@! TA.AperFunction,ComponentPad*
%ADD10RoundRect,0.250000X0.503807X-0.919023X1.027853X0.204798X-0.503807X0.919023X-1.027853X-0.204798X0*%
G04 #@! TD*
G04 #@! TA.AperFunction,ComponentPad*
%ADD11HorizOval,1.740000X-0.203919X0.095089X0.203919X-0.095089X0*%
G04 #@! TD*
G04 #@! TA.AperFunction,ViaPad*
%ADD12C,0.800000*%
G04 #@! TD*
G04 #@! TA.AperFunction,ViaPad*
%ADD13C,0.700000*%
G04 #@! TD*
G04 #@! TA.AperFunction,ViaPad*
%ADD14C,0.900000*%
G04 #@! TD*
G04 #@! TA.AperFunction,ViaPad*
%ADD15C,1.000000*%
G04 #@! TD*
G04 #@! TA.AperFunction,Conductor*
%ADD16C,0.800000*%
G04 #@! TD*
G04 APERTURE END LIST*
D10*
G04 #@! TO.N,unconnected-(J2-Pin_1-Pad1)*
G04 #@! TO.C,J2*
X180001000Y-144875737D03*
D11*
G04 #@! TO.N,+3V3*
X181074450Y-142573715D03*
G04 #@! TO.N,SDA*
X182147900Y-140271694D03*
G04 #@! TO.N,SCL*
X183221351Y-137969672D03*
G04 #@! TO.N,RDY*
X184294801Y-135667650D03*
G04 #@! TO.N,GND*
X185368252Y-133365628D03*
G04 #@! TD*
D12*
G04 #@! TO.N,+3V3*
X171400000Y-156370000D03*
X174270000Y-166340000D03*
X176050000Y-165490000D03*
X177550000Y-164840000D03*
X175890000Y-158560000D03*
G04 #@! TO.N,SCL*
X191980000Y-96230000D03*
G04 #@! TO.N,TX-*
X186870000Y-111218428D03*
G04 #@! TO.N,SDA*
X190580000Y-96250000D03*
X177099043Y-158455808D03*
G04 #@! TO.N,SCL*
X178090000Y-158590000D03*
X174420000Y-58900000D03*
G04 #@! TO.N,SDA*
X180670000Y-59570000D03*
X174486781Y-57775000D03*
D13*
G04 #@! TO.N,GND*
X182090000Y-58030000D03*
D12*
G04 #@! TO.N,1+*
X68222142Y-124505115D03*
X136403759Y-163903935D03*
X102406729Y-59271833D03*
X143400560Y-162810433D03*
G04 #@! TO.N,TX+*
X183796389Y-110710379D03*
G04 #@! TO.N,1+*
X177171240Y-96531741D03*
X176082198Y-96811360D03*
X71450096Y-130808390D03*
X108710004Y-56043879D03*
G04 #@! TO.N,2*
X72112706Y-88628783D03*
X170138306Y-138575321D03*
X180042309Y-92876612D03*
X151325933Y-62109023D03*
X66251574Y-130839921D03*
X102375198Y-54073311D03*
X94067449Y-158927833D03*
X140338507Y-167864046D03*
X100807046Y-161102413D03*
X105054875Y-53172810D03*
X74287286Y-81889186D03*
X143018184Y-166963545D03*
X65351073Y-128160244D03*
X179141808Y-90196935D03*
X174312568Y-132854613D03*
X150753584Y-63076813D03*
G04 #@! TO.N,GND*
X191869893Y-109366631D03*
D13*
X185643368Y-72987995D03*
D14*
X192843068Y-83876232D03*
D15*
X176159039Y-69735688D03*
D13*
X184494146Y-72608145D03*
D12*
X191769893Y-111766631D03*
X53729894Y-111781631D03*
D13*
X183431803Y-73792939D03*
D12*
X179495000Y-54200000D03*
X73029894Y-158521631D03*
X170759457Y-160157819D03*
D14*
X186748112Y-92212998D03*
D12*
X176138457Y-150565893D03*
X121464894Y-41471631D03*
D13*
X180727085Y-74830586D03*
D12*
X74571184Y-60810340D03*
D14*
X191200677Y-91497585D03*
D12*
X170807995Y-60829732D03*
X72921184Y-62510340D03*
X179288457Y-153865893D03*
X74679894Y-160271631D03*
X177188457Y-148515893D03*
D14*
X188508736Y-89072004D03*
D13*
X184826839Y-70890787D03*
D14*
X189718112Y-77432998D03*
X191278112Y-81562998D03*
D12*
X172359457Y-158507819D03*
X52609894Y-104441631D03*
X172457995Y-62479732D03*
X121439894Y-179576631D03*
X123814894Y-41571631D03*
X123839894Y-179626631D03*
X53679894Y-109331631D03*
X194456005Y-116672228D03*
D14*
X186370593Y-76447930D03*
X182809951Y-83330831D03*
D13*
G04 #@! TO.N,SDA*
X178338112Y-74222998D03*
D12*
X191138112Y-92972998D03*
G04 #@! TO.N,SCL*
X190095234Y-92661314D03*
D13*
X178578112Y-75492998D03*
G04 #@! TO.N,RDY*
X185472185Y-71932914D03*
D12*
G04 #@! TO.N,TX+*
X192243112Y-91802998D03*
G04 #@! TO.N,TX-*
X193293112Y-91802998D03*
G04 #@! TD*
D16*
G04 #@! TO.N,GND*
X182792851Y-83283847D02*
X182972151Y-82899332D01*
X189323191Y-93623921D02*
X188981171Y-92684228D01*
X182809951Y-83330831D02*
X182792851Y-83283847D01*
X188981171Y-92684228D02*
X189548959Y-91466601D01*
G04 #@! TD*
G04 #@! TA.AperFunction,Conductor*
G04 #@! TO.N,GND*
G36*
X123513081Y-25833015D02*
G01*
X133095734Y-29725613D01*
X181160515Y-49250156D01*
X181199114Y-49275010D01*
X181535485Y-49593638D01*
X181606220Y-49660642D01*
X181608150Y-49662510D01*
X182050005Y-50099603D01*
X182077028Y-50139511D01*
X193710990Y-77684828D01*
X193718940Y-77754244D01*
X193693129Y-77811107D01*
X193669738Y-77839993D01*
X193469125Y-78148909D01*
X193301900Y-78477106D01*
X193169898Y-78820981D01*
X193074561Y-79176784D01*
X193074561Y-79176786D01*
X193016941Y-79540587D01*
X192997663Y-79908427D01*
X192997663Y-79908428D01*
X193016941Y-80276268D01*
X193074561Y-80640069D01*
X193074561Y-80640071D01*
X193169898Y-80995874D01*
X193301900Y-81339749D01*
X193469125Y-81667946D01*
X193669724Y-81976842D01*
X193669734Y-81976855D01*
X193669738Y-81976861D01*
X193901544Y-82263117D01*
X194162002Y-82523575D01*
X194448258Y-82755381D01*
X194448263Y-82755384D01*
X194448276Y-82755394D01*
X194757172Y-82955993D01*
X194757177Y-82955996D01*
X195085373Y-83123220D01*
X195429252Y-83255223D01*
X195785044Y-83350557D01*
X196058786Y-83393913D01*
X196121917Y-83423840D01*
X196153611Y-83468135D01*
X198608140Y-89279632D01*
X207381891Y-110052931D01*
X207391655Y-110099834D01*
X207396176Y-110517085D01*
X207396176Y-110519771D01*
X207393396Y-110776375D01*
X207384057Y-110822259D01*
X198479655Y-132439502D01*
X198435921Y-132493992D01*
X198369670Y-132516187D01*
X198325143Y-132509694D01*
X198249598Y-132484050D01*
X198069921Y-132423057D01*
X198069915Y-132423055D01*
X198069913Y-132423055D01*
X197787415Y-132366863D01*
X197500000Y-132348025D01*
X197212585Y-132366863D01*
X197212579Y-132366864D01*
X197212574Y-132366865D01*
X196930092Y-132423054D01*
X196930078Y-132423057D01*
X196657337Y-132515641D01*
X196399016Y-132643031D01*
X196159521Y-132803057D01*
X195942968Y-132992968D01*
X195753057Y-133209521D01*
X195593031Y-133449016D01*
X195465641Y-133707337D01*
X195373057Y-133980078D01*
X195373054Y-133980092D01*
X195329518Y-134198966D01*
X195316863Y-134262585D01*
X195298025Y-134550000D01*
X195316863Y-134837415D01*
X195354095Y-135024596D01*
X195373054Y-135119907D01*
X195373057Y-135119921D01*
X195465638Y-135392654D01*
X195465647Y-135392675D01*
X195593031Y-135650984D01*
X195593034Y-135650988D01*
X195720264Y-135841401D01*
X195753057Y-135890478D01*
X195942968Y-136107031D01*
X196069557Y-136218046D01*
X196159523Y-136296944D01*
X196274121Y-136373516D01*
X196399015Y-136456968D01*
X196648967Y-136580231D01*
X196700386Y-136627536D01*
X196718068Y-136695132D01*
X196708777Y-136738670D01*
X194465024Y-142185840D01*
X194421290Y-142240330D01*
X194374562Y-142260230D01*
X194310091Y-142273054D01*
X194310079Y-142273057D01*
X194037337Y-142365641D01*
X193779016Y-142493031D01*
X193539521Y-142653057D01*
X193322968Y-142842968D01*
X193133057Y-143059521D01*
X192973031Y-143299016D01*
X192845641Y-143557337D01*
X192753057Y-143830078D01*
X192753055Y-143830086D01*
X192753055Y-143830087D01*
X192696863Y-144112585D01*
X192678025Y-144400000D01*
X192696863Y-144687415D01*
X192752697Y-144968115D01*
X192753054Y-144969907D01*
X192753057Y-144969921D01*
X192845638Y-145242654D01*
X192845647Y-145242675D01*
X192973028Y-145500978D01*
X192973037Y-145500992D01*
X193014518Y-145563073D01*
X193035396Y-145629750D01*
X193026070Y-145679191D01*
X191552120Y-149257507D01*
X191508386Y-149311997D01*
X191442136Y-149334192D01*
X191413276Y-149331898D01*
X191387279Y-149326727D01*
X191287415Y-149306863D01*
X191000000Y-149288025D01*
X190999999Y-149288025D01*
X190856292Y-149297444D01*
X190712585Y-149306863D01*
X190712579Y-149306864D01*
X190712574Y-149306865D01*
X190430092Y-149363054D01*
X190430078Y-149363057D01*
X190157337Y-149455641D01*
X189899016Y-149583031D01*
X189659521Y-149743057D01*
X189442968Y-149932968D01*
X189253057Y-150149521D01*
X189093031Y-150389016D01*
X188965641Y-150647337D01*
X188873057Y-150920078D01*
X188873055Y-150920086D01*
X188873055Y-150920087D01*
X188816863Y-151202585D01*
X188798025Y-151490000D01*
X188816825Y-151776841D01*
X188816863Y-151777413D01*
X188816865Y-151777425D01*
X188873054Y-152059907D01*
X188873057Y-152059921D01*
X188965638Y-152332654D01*
X188965647Y-152332675D01*
X189093031Y-152590984D01*
X189093034Y-152590988D01*
X189220264Y-152781401D01*
X189253057Y-152830478D01*
X189442968Y-153047031D01*
X189659524Y-153236945D01*
X189773802Y-153313303D01*
X189818608Y-153366915D01*
X189827315Y-153436240D01*
X189819566Y-153463632D01*
X183027609Y-169952492D01*
X183002050Y-169991509D01*
X182912728Y-170083784D01*
X182910838Y-170085695D01*
X182461843Y-170529851D01*
X182422593Y-170556048D01*
X155720296Y-181754071D01*
X155650860Y-181761844D01*
X155594308Y-181736086D01*
X155465124Y-181631475D01*
X155465118Y-181631471D01*
X155465105Y-181631461D01*
X155156209Y-181430862D01*
X154828012Y-181263637D01*
X154484137Y-181131635D01*
X154484130Y-181131633D01*
X154128338Y-181036299D01*
X154128334Y-181036298D01*
X154128333Y-181036298D01*
X153764531Y-180978678D01*
X153396692Y-180959400D01*
X153396690Y-180959400D01*
X153028850Y-180978678D01*
X152665049Y-181036298D01*
X152665047Y-181036298D01*
X152309244Y-181131635D01*
X151965369Y-181263637D01*
X151637172Y-181430862D01*
X151328276Y-181631461D01*
X151328263Y-181631471D01*
X151042006Y-181863277D01*
X151041998Y-181863284D01*
X150781547Y-182123735D01*
X150781540Y-182123743D01*
X150549734Y-182410000D01*
X150549724Y-182410013D01*
X150349125Y-182718909D01*
X150181900Y-183047106D01*
X150049898Y-183390981D01*
X149954561Y-183746784D01*
X149954561Y-183746786D01*
X149896941Y-184110587D01*
X149896429Y-184120358D01*
X149873262Y-184186275D01*
X149820554Y-184228219D01*
X123649853Y-195203310D01*
X123601898Y-195212958D01*
X121780502Y-195212958D01*
X121777815Y-195212929D01*
X121776173Y-195212893D01*
X121695661Y-195211148D01*
X121649672Y-195201223D01*
X62277610Y-169860081D01*
X62237193Y-169832280D01*
X61206190Y-168767213D01*
X61204343Y-168765263D01*
X61186255Y-168745749D01*
X61162273Y-168708021D01*
X53761904Y-150442029D01*
X51085633Y-143836314D01*
X51078705Y-143766791D01*
X51110464Y-143704557D01*
X51112774Y-143702181D01*
X51311838Y-143503117D01*
X51543644Y-143216861D01*
X51543652Y-143216847D01*
X51543657Y-143216842D01*
X51720949Y-142943836D01*
X51744259Y-142907942D01*
X51911483Y-142579746D01*
X52043486Y-142235867D01*
X52138820Y-141880075D01*
X52196441Y-141516267D01*
X52215719Y-141148428D01*
X52196441Y-140780589D01*
X52138820Y-140416781D01*
X52043486Y-140060989D01*
X51911483Y-139717110D01*
X51744259Y-139388914D01*
X51744256Y-139388909D01*
X51543657Y-139080013D01*
X51543647Y-139080000D01*
X51543644Y-139079995D01*
X51311838Y-138793739D01*
X51051380Y-138533281D01*
X50765124Y-138301475D01*
X50765118Y-138301471D01*
X50765105Y-138301461D01*
X50456209Y-138100862D01*
X50128012Y-137933637D01*
X49784137Y-137801635D01*
X49769470Y-137797705D01*
X49428338Y-137706299D01*
X49428334Y-137706298D01*
X49428333Y-137706298D01*
X49064531Y-137648678D01*
X48696692Y-137629400D01*
X48696689Y-137629400D01*
X48661785Y-137631229D01*
X48593807Y-137615080D01*
X48545352Y-137564742D01*
X48540378Y-137553979D01*
X46554355Y-132651970D01*
X38017268Y-111580271D01*
X38008204Y-111535067D01*
X37997205Y-110519720D01*
X37997205Y-110517135D01*
X37999882Y-110270000D01*
X57696691Y-110270000D01*
X57716577Y-111877743D01*
X57776224Y-113484503D01*
X57821381Y-114213756D01*
X57875595Y-115089279D01*
X58014628Y-116691117D01*
X58193240Y-118289026D01*
X58193242Y-118289047D01*
X58193243Y-118289048D01*
X58411317Y-119882009D01*
X58668739Y-121469166D01*
X58965329Y-123049420D01*
X59300916Y-124621854D01*
X59675299Y-126185532D01*
X60088249Y-127739492D01*
X60539491Y-129282697D01*
X60889555Y-130378499D01*
X61028779Y-130814309D01*
X61555798Y-132333344D01*
X61671902Y-132643034D01*
X62120235Y-133838901D01*
X62721715Y-135329974D01*
X63359913Y-136805766D01*
X64034425Y-138265333D01*
X64744815Y-139707733D01*
X65490657Y-141132108D01*
X65490666Y-141132124D01*
X65490668Y-141132128D01*
X66271527Y-142537644D01*
X66314198Y-142610164D01*
X67031996Y-143830087D01*
X67086911Y-143923416D01*
X67145372Y-144017375D01*
X67936314Y-145288583D01*
X68233233Y-145740477D01*
X68443641Y-146060707D01*
X68819248Y-146632359D01*
X69735142Y-147953876D01*
X70683399Y-149252272D01*
X70683413Y-149252291D01*
X70683418Y-149252297D01*
X70768587Y-149363055D01*
X71663545Y-150526901D01*
X72674874Y-151776841D01*
X73716830Y-153001409D01*
X74788748Y-154199820D01*
X75889998Y-155371370D01*
X77019870Y-156515303D01*
X77822267Y-157288466D01*
X78177692Y-157630941D01*
X79362758Y-158717603D01*
X79362780Y-158717622D01*
X79362794Y-158717635D01*
X80574331Y-159774614D01*
X81211770Y-160303545D01*
X81811695Y-160801348D01*
X83074068Y-161797155D01*
X83074095Y-161797175D01*
X83074096Y-161797176D01*
X84360685Y-162761434D01*
X85670737Y-163693579D01*
X85670754Y-163693591D01*
X85670759Y-163693594D01*
X87003489Y-164593064D01*
X88358059Y-165459295D01*
X89733640Y-166291757D01*
X91129391Y-167089940D01*
X91129423Y-167089957D01*
X92544446Y-167853350D01*
X93977951Y-168581525D01*
X93977973Y-168581536D01*
X95429062Y-169274037D01*
X96896835Y-169930435D01*
X98380395Y-170550327D01*
X98380416Y-170550335D01*
X99878823Y-171133330D01*
X101391251Y-171679106D01*
X102907642Y-172184281D01*
X102916672Y-172187290D01*
X104454212Y-172657595D01*
X106002915Y-173089725D01*
X107561832Y-173483417D01*
X109130010Y-173838429D01*
X110706490Y-174154545D01*
X112290305Y-174431571D01*
X113880489Y-174669337D01*
X115476067Y-174867698D01*
X115476086Y-174867699D01*
X115476095Y-174867701D01*
X116931795Y-175012211D01*
X117076063Y-175026533D01*
X118679498Y-175145744D01*
X120285392Y-175225259D01*
X121752651Y-175261561D01*
X121892758Y-175265028D01*
X121892761Y-175265028D01*
X123500624Y-175265028D01*
X123636774Y-175261659D01*
X125107990Y-175225259D01*
X126713884Y-175145744D01*
X128317319Y-175026533D01*
X129117317Y-174947115D01*
X129917286Y-174867701D01*
X129917290Y-174867700D01*
X129917315Y-174867698D01*
X131512893Y-174669337D01*
X133103077Y-174431571D01*
X134686892Y-174154545D01*
X136263372Y-173838429D01*
X137831550Y-173483417D01*
X139390467Y-173089725D01*
X140939170Y-172657595D01*
X142476710Y-172187290D01*
X143240073Y-171932980D01*
X144002130Y-171679106D01*
X144002147Y-171679100D01*
X145514548Y-171133334D01*
X147012987Y-170550327D01*
X148496547Y-169930435D01*
X149964320Y-169274037D01*
X151415409Y-168581536D01*
X152848925Y-167853355D01*
X152848935Y-167853350D01*
X153651491Y-167420378D01*
X154263991Y-167089940D01*
X155575380Y-166340001D01*
X173664318Y-166340001D01*
X173684955Y-166496760D01*
X173684956Y-166496762D01*
X173745464Y-166642841D01*
X173841718Y-166768282D01*
X173967159Y-166864536D01*
X174113238Y-166925044D01*
X174191619Y-166935363D01*
X174269999Y-166945682D01*
X174270000Y-166945682D01*
X174270001Y-166945682D01*
X174322254Y-166938802D01*
X174426762Y-166925044D01*
X174572841Y-166864536D01*
X174698282Y-166768282D01*
X174794536Y-166642841D01*
X174855044Y-166496762D01*
X174875682Y-166340000D01*
X174855044Y-166183238D01*
X174794536Y-166037159D01*
X174698282Y-165911718D01*
X174572841Y-165815464D01*
X174518224Y-165792841D01*
X174426762Y-165754956D01*
X174426760Y-165754955D01*
X174270001Y-165734318D01*
X174269999Y-165734318D01*
X174113239Y-165754955D01*
X174113237Y-165754956D01*
X173967160Y-165815463D01*
X173841718Y-165911718D01*
X173745463Y-166037160D01*
X173684956Y-166183237D01*
X173684955Y-166183239D01*
X173664318Y-166339998D01*
X173664318Y-166340001D01*
X155575380Y-166340001D01*
X155659742Y-166291757D01*
X156984584Y-165490001D01*
X175444318Y-165490001D01*
X175464955Y-165646760D01*
X175464956Y-165646762D01*
X175525464Y-165792841D01*
X175621718Y-165918282D01*
X175747159Y-166014536D01*
X175893238Y-166075044D01*
X175971619Y-166085363D01*
X176049999Y-166095682D01*
X176050000Y-166095682D01*
X176050001Y-166095682D01*
X176102254Y-166088802D01*
X176206762Y-166075044D01*
X176352841Y-166014536D01*
X176478282Y-165918282D01*
X176574536Y-165792841D01*
X176635044Y-165646762D01*
X176655682Y-165490000D01*
X176651641Y-165459309D01*
X176635044Y-165333239D01*
X176635044Y-165333238D01*
X176574536Y-165187159D01*
X176478282Y-165061718D01*
X176352841Y-164965464D01*
X176206762Y-164904956D01*
X176206760Y-164904955D01*
X176050001Y-164884318D01*
X176049999Y-164884318D01*
X175893239Y-164904955D01*
X175893237Y-164904956D01*
X175747160Y-164965463D01*
X175621718Y-165061718D01*
X175525463Y-165187160D01*
X175464956Y-165333237D01*
X175464955Y-165333239D01*
X175444318Y-165489998D01*
X175444318Y-165490001D01*
X156984584Y-165490001D01*
X157035323Y-165459295D01*
X158003745Y-164840001D01*
X176944318Y-164840001D01*
X176964955Y-164996760D01*
X176964956Y-164996762D01*
X177025464Y-165142841D01*
X177121718Y-165268282D01*
X177247159Y-165364536D01*
X177393238Y-165425044D01*
X177471619Y-165435363D01*
X177549999Y-165445682D01*
X177550000Y-165445682D01*
X177550001Y-165445682D01*
X177602254Y-165438802D01*
X177706762Y-165425044D01*
X177852841Y-165364536D01*
X177978282Y-165268282D01*
X178074536Y-165142841D01*
X178135044Y-164996762D01*
X178155682Y-164840000D01*
X178135044Y-164683238D01*
X178074536Y-164537159D01*
X177978282Y-164411718D01*
X177852841Y-164315464D01*
X177706762Y-164254956D01*
X177706760Y-164254955D01*
X177550001Y-164234318D01*
X177549999Y-164234318D01*
X177393239Y-164254955D01*
X177393237Y-164254956D01*
X177247160Y-164315463D01*
X177121718Y-164411718D01*
X177025463Y-164537160D01*
X176964956Y-164683237D01*
X176964955Y-164683239D01*
X176944318Y-164839998D01*
X176944318Y-164840001D01*
X158003745Y-164840001D01*
X158389893Y-164593064D01*
X159722623Y-163693594D01*
X161032697Y-162761434D01*
X162319314Y-161797155D01*
X163581687Y-160801348D01*
X164819042Y-159774621D01*
X166030624Y-158717603D01*
X166202498Y-158560001D01*
X175284318Y-158560001D01*
X175304955Y-158716760D01*
X175304956Y-158716762D01*
X175362165Y-158854878D01*
X175365464Y-158862841D01*
X175461718Y-158988282D01*
X175587159Y-159084536D01*
X175733238Y-159145044D01*
X175792417Y-159152835D01*
X175889999Y-159165682D01*
X175890000Y-159165682D01*
X175890001Y-159165682D01*
X175942254Y-159158802D01*
X176046762Y-159145044D01*
X176192841Y-159084536D01*
X176318282Y-158988282D01*
X176414536Y-158862841D01*
X176416453Y-158858212D01*
X176460291Y-158803809D01*
X176526584Y-158781741D01*
X176594284Y-158799018D01*
X176629390Y-158830175D01*
X176654455Y-158862840D01*
X176670761Y-158884090D01*
X176796202Y-158980344D01*
X176942281Y-159040852D01*
X177020662Y-159051171D01*
X177099042Y-159061490D01*
X177099043Y-159061490D01*
X177099044Y-159061490D01*
X177151297Y-159054610D01*
X177255805Y-159040852D01*
X177401884Y-158980344D01*
X177448727Y-158944399D01*
X177513896Y-158919205D01*
X177582341Y-158933243D01*
X177622589Y-158967288D01*
X177661718Y-159018282D01*
X177787159Y-159114536D01*
X177933238Y-159175044D01*
X178011619Y-159185363D01*
X178089999Y-159195682D01*
X178090000Y-159195682D01*
X178090001Y-159195682D01*
X178142254Y-159188802D01*
X178246762Y-159175044D01*
X178392841Y-159114536D01*
X178518282Y-159018282D01*
X178614536Y-158892841D01*
X178675044Y-158746762D01*
X178695682Y-158590000D01*
X178691732Y-158560000D01*
X178675044Y-158433239D01*
X178675044Y-158433238D01*
X178614536Y-158287159D01*
X178518282Y-158161718D01*
X178392841Y-158065464D01*
X178320412Y-158035463D01*
X178246762Y-158004956D01*
X178246760Y-158004955D01*
X178090001Y-157984318D01*
X178089999Y-157984318D01*
X177933239Y-158004955D01*
X177933237Y-158004956D01*
X177787158Y-158065464D01*
X177740313Y-158101409D01*
X177675144Y-158126602D01*
X177606699Y-158112563D01*
X177566452Y-158078518D01*
X177527326Y-158027527D01*
X177497911Y-158004956D01*
X177401884Y-157931272D01*
X177255805Y-157870764D01*
X177255803Y-157870763D01*
X177099044Y-157850126D01*
X177099042Y-157850126D01*
X176942282Y-157870763D01*
X176942280Y-157870764D01*
X176796203Y-157931271D01*
X176670761Y-158027526D01*
X176574505Y-158152969D01*
X176572585Y-158157605D01*
X176528741Y-158212005D01*
X176462445Y-158234066D01*
X176394747Y-158216783D01*
X176359652Y-158185633D01*
X176318282Y-158131718D01*
X176192841Y-158035464D01*
X176173679Y-158027527D01*
X176046762Y-157974956D01*
X176046760Y-157974955D01*
X175890001Y-157954318D01*
X175889999Y-157954318D01*
X175733239Y-157974955D01*
X175733237Y-157974956D01*
X175587160Y-158035463D01*
X175461718Y-158131718D01*
X175365463Y-158257160D01*
X175304956Y-158403237D01*
X175304955Y-158403239D01*
X175284318Y-158559998D01*
X175284318Y-158560001D01*
X166202498Y-158560001D01*
X167215690Y-157630941D01*
X168373515Y-156515300D01*
X168517028Y-156370001D01*
X170794318Y-156370001D01*
X170814955Y-156526760D01*
X170814956Y-156526762D01*
X170875464Y-156672841D01*
X170971718Y-156798282D01*
X171097159Y-156894536D01*
X171243238Y-156955044D01*
X171321619Y-156965363D01*
X171399999Y-156975682D01*
X171400000Y-156975682D01*
X171400001Y-156975682D01*
X171452254Y-156968802D01*
X171556762Y-156955044D01*
X171702841Y-156894536D01*
X171828282Y-156798282D01*
X171924536Y-156672841D01*
X171985044Y-156526762D01*
X172005682Y-156370000D01*
X171985044Y-156213238D01*
X171924536Y-156067159D01*
X171828282Y-155941718D01*
X171702841Y-155845464D01*
X171556762Y-155784956D01*
X171556760Y-155784955D01*
X171400001Y-155764318D01*
X171399999Y-155764318D01*
X171243239Y-155784955D01*
X171243237Y-155784956D01*
X171097160Y-155845463D01*
X170971718Y-155941718D01*
X170875463Y-156067160D01*
X170814956Y-156213237D01*
X170814955Y-156213239D01*
X170794318Y-156369998D01*
X170794318Y-156370001D01*
X168517028Y-156370001D01*
X169503392Y-155371361D01*
X170604628Y-154199826D01*
X171676550Y-153001410D01*
X172718502Y-151776848D01*
X173729846Y-150526889D01*
X174709964Y-149252297D01*
X175021465Y-148825775D01*
X175658239Y-147953876D01*
X175806572Y-147739851D01*
X176574141Y-146632349D01*
X177457059Y-145288596D01*
X177572383Y-145103247D01*
X178518124Y-145103247D01*
X178545033Y-145236357D01*
X178609980Y-145355619D01*
X178609983Y-145355623D01*
X178707198Y-145450444D01*
X178707201Y-145450447D01*
X178733568Y-145465889D01*
X178733575Y-145465893D01*
X180363599Y-146225986D01*
X180386629Y-146234206D01*
X180392384Y-146236260D01*
X180392386Y-146236261D01*
X180437430Y-146240768D01*
X180527516Y-146249783D01*
X180527516Y-146249782D01*
X180527518Y-146249783D01*
X180572285Y-146240732D01*
X180660627Y-146222874D01*
X180779893Y-146157925D01*
X180874716Y-146060707D01*
X180890165Y-146034331D01*
X181460079Y-144812146D01*
X181470354Y-144783359D01*
X181483876Y-144648230D01*
X181456967Y-144515118D01*
X181392018Y-144395852D01*
X181358562Y-144363220D01*
X181294801Y-144301029D01*
X181294798Y-144301026D01*
X181268431Y-144285584D01*
X180978292Y-144150290D01*
X180035817Y-143710806D01*
X179638397Y-143525486D01*
X179638388Y-143525483D01*
X179609615Y-143515213D01*
X179609613Y-143515212D01*
X179474481Y-143501690D01*
X179341371Y-143528600D01*
X179222109Y-143593547D01*
X179222105Y-143593550D01*
X179127285Y-143690764D01*
X179127282Y-143690768D01*
X179111838Y-143717135D01*
X179111831Y-143717149D01*
X178541921Y-144939327D01*
X178531646Y-144968113D01*
X178518124Y-145103247D01*
X177572383Y-145103247D01*
X178306471Y-143923416D01*
X179121855Y-142537644D01*
X179122066Y-142537264D01*
X179796450Y-142537264D01*
X179796451Y-142537268D01*
X179828528Y-142745679D01*
X179828528Y-142745681D01*
X179828529Y-142745682D01*
X179900651Y-142943835D01*
X179900652Y-142943836D01*
X180010042Y-143124107D01*
X180010045Y-143124111D01*
X180152506Y-143279581D01*
X180322562Y-143404270D01*
X180322567Y-143404272D01*
X180322568Y-143404273D01*
X180921504Y-143683562D01*
X180921508Y-143683563D01*
X180921512Y-143683565D01*
X181126339Y-143733686D01*
X181318611Y-143742080D01*
X181337007Y-143742884D01*
X181337009Y-143742884D01*
X181545424Y-143710806D01*
X181743578Y-143638684D01*
X181923853Y-143529290D01*
X182079324Y-143386828D01*
X182204012Y-143216773D01*
X182293130Y-143025660D01*
X182343251Y-142820834D01*
X182352449Y-142610164D01*
X182320371Y-142401748D01*
X182248249Y-142203594D01*
X182138855Y-142023319D01*
X181996393Y-141867849D01*
X181996392Y-141867848D01*
X181826339Y-141743160D01*
X181826335Y-141743158D01*
X181227393Y-141463867D01*
X181227385Y-141463864D01*
X181022561Y-141413743D01*
X180811892Y-141404545D01*
X180811888Y-141404546D01*
X180603477Y-141436623D01*
X180591828Y-141440863D01*
X180405322Y-141508746D01*
X180405320Y-141508746D01*
X180405320Y-141508747D01*
X180225049Y-141618137D01*
X180225045Y-141618140D01*
X180069576Y-141760601D01*
X179944884Y-141930661D01*
X179855772Y-142121763D01*
X179855769Y-142121771D01*
X179805648Y-142326595D01*
X179796450Y-142537264D01*
X179122066Y-142537264D01*
X179902714Y-141132128D01*
X180372347Y-140235243D01*
X180869900Y-140235243D01*
X180869901Y-140235247D01*
X180901978Y-140443658D01*
X180901978Y-140443660D01*
X180901979Y-140443661D01*
X180974101Y-140641814D01*
X180974102Y-140641815D01*
X181083492Y-140822086D01*
X181083495Y-140822090D01*
X181225956Y-140977560D01*
X181396012Y-141102249D01*
X181396017Y-141102251D01*
X181396018Y-141102252D01*
X181994954Y-141381541D01*
X181994958Y-141381542D01*
X181994962Y-141381544D01*
X182199789Y-141431665D01*
X182392061Y-141440059D01*
X182410457Y-141440863D01*
X182410459Y-141440863D01*
X182618874Y-141408785D01*
X182817028Y-141336663D01*
X182997303Y-141227269D01*
X183152774Y-141084807D01*
X183277462Y-140914752D01*
X183366580Y-140723639D01*
X183416701Y-140518813D01*
X183425899Y-140308143D01*
X183393821Y-140099727D01*
X183321699Y-139901573D01*
X183212305Y-139721298D01*
X183069843Y-139565828D01*
X183044978Y-139547596D01*
X182899789Y-139441139D01*
X182899785Y-139441137D01*
X182300843Y-139161846D01*
X182300835Y-139161843D01*
X182096011Y-139111722D01*
X181885342Y-139102524D01*
X181885338Y-139102525D01*
X181676927Y-139134602D01*
X181665281Y-139138841D01*
X181478772Y-139206725D01*
X181478770Y-139206725D01*
X181478770Y-139206726D01*
X181298499Y-139316116D01*
X181298495Y-139316119D01*
X181143026Y-139458580D01*
X181018334Y-139628640D01*
X180929222Y-139819742D01*
X180929219Y-139819750D01*
X180879098Y-140024574D01*
X180869900Y-140235243D01*
X180372347Y-140235243D01*
X180641463Y-139721298D01*
X180648566Y-139707733D01*
X180718455Y-139565828D01*
X181358965Y-138265315D01*
X181512436Y-137933221D01*
X181943351Y-137933221D01*
X181943352Y-137933225D01*
X181975429Y-138141636D01*
X181975429Y-138141638D01*
X181975430Y-138141639D01*
X182047552Y-138339792D01*
X182047553Y-138339793D01*
X182156943Y-138520064D01*
X182156946Y-138520068D01*
X182299407Y-138675538D01*
X182469463Y-138800227D01*
X182469468Y-138800229D01*
X182469469Y-138800230D01*
X183068405Y-139079519D01*
X183068409Y-139079520D01*
X183068413Y-139079522D01*
X183273240Y-139129643D01*
X183465512Y-139138037D01*
X183483908Y-139138841D01*
X183483910Y-139138841D01*
X183692325Y-139106763D01*
X183890479Y-139034641D01*
X184070754Y-138925247D01*
X184226225Y-138782785D01*
X184350913Y-138612730D01*
X184440031Y-138421617D01*
X184490152Y-138216791D01*
X184499350Y-138006121D01*
X184467272Y-137797705D01*
X184395150Y-137599551D01*
X184285756Y-137419276D01*
X184143294Y-137263806D01*
X184143293Y-137263805D01*
X183973240Y-137139117D01*
X183973236Y-137139115D01*
X183374294Y-136859824D01*
X183374286Y-136859821D01*
X183169462Y-136809700D01*
X182958793Y-136800502D01*
X182958789Y-136800503D01*
X182750378Y-136832580D01*
X182738732Y-136836819D01*
X182552223Y-136904703D01*
X182552221Y-136904703D01*
X182552221Y-136904704D01*
X182371950Y-137014094D01*
X182371946Y-137014097D01*
X182216477Y-137156558D01*
X182091785Y-137326618D01*
X182002673Y-137517720D01*
X182002670Y-137517728D01*
X181952549Y-137722552D01*
X181943351Y-137933221D01*
X181512436Y-137933221D01*
X182033466Y-136805772D01*
X182671659Y-135329992D01*
X183273155Y-133838879D01*
X183562710Y-133066530D01*
X183604674Y-133010671D01*
X183670179Y-132986364D01*
X183738427Y-133001331D01*
X183787749Y-133050820D01*
X183802486Y-133119117D01*
X183801893Y-133125173D01*
X183791405Y-133210595D01*
X183791405Y-133210600D01*
X183798930Y-133426099D01*
X183798931Y-133426104D01*
X183840077Y-133637783D01*
X183840080Y-133637793D01*
X183913829Y-133840420D01*
X183913832Y-133840427D01*
X184018374Y-134029026D01*
X184018380Y-134029036D01*
X184151135Y-134198954D01*
X184151146Y-134198966D01*
X184248133Y-134289409D01*
X184283738Y-134349526D01*
X184281188Y-134419349D01*
X184241294Y-134476710D01*
X184176722Y-134503396D01*
X184158157Y-134503977D01*
X184144827Y-134503396D01*
X184032243Y-134498480D01*
X184032239Y-134498481D01*
X183823828Y-134530558D01*
X183770412Y-134550000D01*
X183625673Y-134602681D01*
X183625671Y-134602681D01*
X183625671Y-134602682D01*
X183445400Y-134712072D01*
X183445396Y-134712075D01*
X183289927Y-134854536D01*
X183165235Y-135024596D01*
X183076123Y-135215698D01*
X183076120Y-135215706D01*
X183025999Y-135420530D01*
X183016801Y-135631199D01*
X183016802Y-135631203D01*
X183048879Y-135839614D01*
X183048879Y-135839616D01*
X183048880Y-135839617D01*
X183121002Y-136037770D01*
X183121003Y-136037771D01*
X183230393Y-136218042D01*
X183230396Y-136218046D01*
X183372857Y-136373516D01*
X183542913Y-136498205D01*
X183542918Y-136498207D01*
X183542919Y-136498208D01*
X184141855Y-136777497D01*
X184141859Y-136777498D01*
X184141863Y-136777500D01*
X184346690Y-136827621D01*
X184538962Y-136836015D01*
X184557358Y-136836819D01*
X184557360Y-136836819D01*
X184765775Y-136804741D01*
X184963929Y-136732619D01*
X185144204Y-136623225D01*
X185299675Y-136480763D01*
X185424363Y-136310708D01*
X185513481Y-136119595D01*
X185563602Y-135914769D01*
X185572800Y-135704099D01*
X185540722Y-135495683D01*
X185468600Y-135297529D01*
X185375859Y-135144697D01*
X185359208Y-135117257D01*
X185359205Y-135117253D01*
X185274057Y-135024330D01*
X185243279Y-134961605D01*
X185251299Y-134892197D01*
X185295570Y-134838143D01*
X185362038Y-134816605D01*
X185380592Y-134817481D01*
X185512231Y-134833644D01*
X185512232Y-134833644D01*
X185727731Y-134826119D01*
X185727736Y-134826118D01*
X185939413Y-134784972D01*
X185939424Y-134784969D01*
X186142052Y-134711219D01*
X186142059Y-134711216D01*
X186330660Y-134606674D01*
X186330671Y-134606667D01*
X186500586Y-134473914D01*
X186500591Y-134473910D01*
X186647661Y-134316196D01*
X186687747Y-134256763D01*
X185753990Y-133821345D01*
X185844370Y-133730966D01*
X185922704Y-133595289D01*
X185963252Y-133443961D01*
X185963252Y-133367235D01*
X186899057Y-133803608D01*
X186918817Y-133734700D01*
X186918819Y-133734690D01*
X186945098Y-133520658D01*
X186945098Y-133520655D01*
X186937573Y-133305155D01*
X186937572Y-133305150D01*
X186896426Y-133093473D01*
X186896423Y-133093462D01*
X186822675Y-132890840D01*
X186822670Y-132890827D01*
X186718127Y-132702227D01*
X186718125Y-132702224D01*
X186585362Y-132532295D01*
X186427657Y-132385231D01*
X186248876Y-132264642D01*
X186173815Y-132229640D01*
X185823968Y-132979888D01*
X185733590Y-132889510D01*
X185597913Y-132811176D01*
X185446585Y-132770628D01*
X185369859Y-132770628D01*
X185720660Y-132018331D01*
X185645600Y-131983330D01*
X185438308Y-131923890D01*
X185224273Y-131897611D01*
X185008772Y-131905136D01*
X185008767Y-131905137D01*
X184797088Y-131946283D01*
X184797078Y-131946286D01*
X184594451Y-132020035D01*
X184594444Y-132020038D01*
X184405845Y-132124580D01*
X184405835Y-132124586D01*
X184235917Y-132257341D01*
X184235912Y-132257346D01*
X184088848Y-132415051D01*
X184042307Y-132484050D01*
X183988499Y-132528619D01*
X183919136Y-132537023D01*
X183856241Y-132506593D01*
X183819783Y-132446990D01*
X183821336Y-132377137D01*
X183823387Y-132371211D01*
X183837584Y-132333344D01*
X184364603Y-130814309D01*
X184853888Y-129282703D01*
X185016579Y-128726317D01*
X185305132Y-127739492D01*
X185305133Y-127739484D01*
X185305140Y-127739464D01*
X185718082Y-126185535D01*
X186092463Y-124621868D01*
X186428053Y-123049419D01*
X186724646Y-121469150D01*
X186982062Y-119882029D01*
X187200142Y-118289026D01*
X187378754Y-116691117D01*
X187517787Y-115089279D01*
X187617158Y-113484492D01*
X187676805Y-111877738D01*
X187696691Y-110270000D01*
X187676805Y-108662262D01*
X187617158Y-107055508D01*
X187517787Y-105450721D01*
X187378754Y-103848883D01*
X187200142Y-102250974D01*
X186982062Y-100657971D01*
X186724646Y-99070850D01*
X186428053Y-97490581D01*
X186163290Y-96250001D01*
X189974318Y-96250001D01*
X189994955Y-96406760D01*
X189994956Y-96406762D01*
X190055464Y-96552841D01*
X190151718Y-96678282D01*
X190277159Y-96774536D01*
X190423238Y-96835044D01*
X190501619Y-96845363D01*
X190579999Y-96855682D01*
X190580000Y-96855682D01*
X190580001Y-96855682D01*
X190632254Y-96848802D01*
X190736762Y-96835044D01*
X190882841Y-96774536D01*
X191008282Y-96678282D01*
X191104536Y-96552841D01*
X191165044Y-96406762D01*
X191165044Y-96406760D01*
X191168154Y-96399253D01*
X191170326Y-96400152D01*
X191200419Y-96350774D01*
X191263263Y-96320240D01*
X191332639Y-96328529D01*
X191386521Y-96373010D01*
X191398394Y-96395063D01*
X191455464Y-96532841D01*
X191551718Y-96658282D01*
X191677159Y-96754536D01*
X191823238Y-96815044D01*
X191901619Y-96825363D01*
X191979999Y-96835682D01*
X191980000Y-96835682D01*
X191980001Y-96835682D01*
X192032254Y-96828802D01*
X192136762Y-96815044D01*
X192282841Y-96754536D01*
X192408282Y-96658282D01*
X192504536Y-96532841D01*
X192565044Y-96386762D01*
X192585682Y-96230000D01*
X192576435Y-96159765D01*
X192566583Y-96084930D01*
X192565044Y-96073238D01*
X192504536Y-95927159D01*
X192408282Y-95801718D01*
X192282841Y-95705464D01*
X192136762Y-95644956D01*
X192136760Y-95644955D01*
X191980001Y-95624318D01*
X191979999Y-95624318D01*
X191823239Y-95644955D01*
X191823237Y-95644956D01*
X191677160Y-95705463D01*
X191551718Y-95801718D01*
X191455463Y-95927160D01*
X191414974Y-96024908D01*
X191394957Y-96073237D01*
X191391846Y-96080747D01*
X191389678Y-96079849D01*
X191359554Y-96129249D01*
X191296701Y-96159765D01*
X191227327Y-96151456D01*
X191173459Y-96106960D01*
X191161605Y-96084935D01*
X191104536Y-95947159D01*
X191008282Y-95821718D01*
X190882841Y-95725464D01*
X190834554Y-95705463D01*
X190736762Y-95664956D01*
X190736760Y-95664955D01*
X190580001Y-95644318D01*
X190579999Y-95644318D01*
X190423239Y-95664955D01*
X190423237Y-95664956D01*
X190277160Y-95725463D01*
X190151718Y-95821718D01*
X190055463Y-95947160D01*
X189994956Y-96093237D01*
X189994955Y-96093239D01*
X189974318Y-96249998D01*
X189974318Y-96250001D01*
X186163290Y-96250001D01*
X186092463Y-95918132D01*
X185718082Y-94354465D01*
X185305140Y-92800536D01*
X185267017Y-92670158D01*
X185264431Y-92661315D01*
X189489552Y-92661315D01*
X189510189Y-92818074D01*
X189510190Y-92818076D01*
X189570698Y-92964155D01*
X189666952Y-93089596D01*
X189792393Y-93185850D01*
X189938472Y-93246358D01*
X190016853Y-93256677D01*
X190095233Y-93266996D01*
X190095234Y-93266996D01*
X190095235Y-93266996D01*
X190147488Y-93260116D01*
X190251996Y-93246358D01*
X190398075Y-93185850D01*
X190405110Y-93180451D01*
X190470278Y-93155257D01*
X190538723Y-93169294D01*
X190588713Y-93218107D01*
X190595157Y-93231373D01*
X190613576Y-93275839D01*
X190709830Y-93401280D01*
X190835271Y-93497534D01*
X190981350Y-93558042D01*
X191059731Y-93568361D01*
X191138111Y-93578680D01*
X191138112Y-93578680D01*
X191138113Y-93578680D01*
X191190366Y-93571800D01*
X191294874Y-93558042D01*
X191440953Y-93497534D01*
X191566394Y-93401280D01*
X191662648Y-93275839D01*
X191723156Y-93129760D01*
X191743794Y-92972998D01*
X191723156Y-92816236D01*
X191662648Y-92670157D01*
X191566394Y-92544716D01*
X191440953Y-92448462D01*
X191294874Y-92387954D01*
X191294872Y-92387953D01*
X191138113Y-92367316D01*
X191138111Y-92367316D01*
X190981351Y-92387953D01*
X190981349Y-92387954D01*
X190835269Y-92448462D01*
X190828228Y-92453865D01*
X190763057Y-92479055D01*
X190694613Y-92465012D01*
X190644627Y-92416195D01*
X190638187Y-92402936D01*
X190619771Y-92358475D01*
X190619770Y-92358474D01*
X190619770Y-92358473D01*
X190523516Y-92233032D01*
X190398075Y-92136778D01*
X190320675Y-92104718D01*
X190251996Y-92076270D01*
X190251994Y-92076269D01*
X190095235Y-92055632D01*
X190095233Y-92055632D01*
X189938473Y-92076269D01*
X189938471Y-92076270D01*
X189792394Y-92136777D01*
X189666952Y-92233032D01*
X189570697Y-92358474D01*
X189510190Y-92504551D01*
X189510189Y-92504553D01*
X189489552Y-92661312D01*
X189489552Y-92661315D01*
X185264431Y-92661315D01*
X185013455Y-91802999D01*
X191637430Y-91802999D01*
X191658067Y-91959758D01*
X191658068Y-91959760D01*
X191718111Y-92104718D01*
X191718576Y-92105839D01*
X191814830Y-92231280D01*
X191940271Y-92327534D01*
X192086350Y-92388042D01*
X192164731Y-92398361D01*
X192243111Y-92408680D01*
X192243112Y-92408680D01*
X192243113Y-92408680D01*
X192295366Y-92401800D01*
X192399874Y-92388042D01*
X192545953Y-92327534D01*
X192671394Y-92231280D01*
X192671398Y-92231275D01*
X192677141Y-92225533D01*
X192678586Y-92226978D01*
X192726159Y-92192239D01*
X192795905Y-92188081D01*
X192856827Y-92222290D01*
X192863228Y-92229678D01*
X192864825Y-92231275D01*
X192864827Y-92231277D01*
X192864830Y-92231280D01*
X192990271Y-92327534D01*
X193136350Y-92388042D01*
X193214731Y-92398361D01*
X193293111Y-92408680D01*
X193293112Y-92408680D01*
X193293113Y-92408680D01*
X193345366Y-92401800D01*
X193449874Y-92388042D01*
X193595953Y-92327534D01*
X193721394Y-92231280D01*
X193817648Y-92105839D01*
X193878156Y-91959760D01*
X193898794Y-91802998D01*
X193878156Y-91646236D01*
X193817648Y-91500157D01*
X193721394Y-91374716D01*
X193595953Y-91278462D01*
X193544868Y-91257302D01*
X193449874Y-91217954D01*
X193449872Y-91217953D01*
X193293113Y-91197316D01*
X193293111Y-91197316D01*
X193136351Y-91217953D01*
X193136349Y-91217954D01*
X192990272Y-91278461D01*
X192864825Y-91374720D01*
X192859083Y-91380463D01*
X192857638Y-91379018D01*
X192810052Y-91413761D01*
X192740306Y-91417911D01*
X192679388Y-91383695D01*
X192672993Y-91376315D01*
X192671398Y-91374720D01*
X192671395Y-91374718D01*
X192671394Y-91374716D01*
X192545953Y-91278462D01*
X192494868Y-91257302D01*
X192399874Y-91217954D01*
X192399872Y-91217953D01*
X192243113Y-91197316D01*
X192243111Y-91197316D01*
X192086351Y-91217953D01*
X192086349Y-91217954D01*
X191940272Y-91278461D01*
X191814830Y-91374716D01*
X191718575Y-91500158D01*
X191658068Y-91646235D01*
X191658067Y-91646237D01*
X191637430Y-91802996D01*
X191637430Y-91802999D01*
X185013455Y-91802999D01*
X184853890Y-91257302D01*
X184723750Y-90849928D01*
X184364603Y-89725691D01*
X183837584Y-88206656D01*
X183273155Y-86701121D01*
X182671659Y-85210008D01*
X182033466Y-83734228D01*
X181358965Y-82274685D01*
X181358956Y-82274666D01*
X180648566Y-80832266D01*
X179902724Y-79407891D01*
X179902723Y-79407889D01*
X179902714Y-79407872D01*
X179121855Y-78002356D01*
X178306471Y-76616584D01*
X177696793Y-75636706D01*
X177457067Y-75251416D01*
X177197970Y-74857085D01*
X176781341Y-74222998D01*
X177782862Y-74222998D01*
X177801782Y-74366706D01*
X177801783Y-74366710D01*
X177857249Y-74500620D01*
X177857250Y-74500622D01*
X177857251Y-74500623D01*
X177945491Y-74615619D01*
X178060487Y-74703859D01*
X178194403Y-74759328D01*
X178279220Y-74770494D01*
X178343116Y-74798760D01*
X178381587Y-74857085D01*
X178382418Y-74926949D01*
X178345346Y-74986173D01*
X178310492Y-75007992D01*
X178300489Y-75012135D01*
X178185491Y-75100377D01*
X178097249Y-75215375D01*
X178041783Y-75349285D01*
X178041782Y-75349289D01*
X178022862Y-75492997D01*
X178022862Y-75492998D01*
X178041782Y-75636706D01*
X178041783Y-75636710D01*
X178097249Y-75770620D01*
X178097250Y-75770622D01*
X178097251Y-75770623D01*
X178185491Y-75885619D01*
X178300487Y-75973859D01*
X178434403Y-76029328D01*
X178561392Y-76046046D01*
X178578111Y-76048248D01*
X178578112Y-76048248D01*
X178578113Y-76048248D01*
X178593089Y-76046276D01*
X178721821Y-76029328D01*
X178855737Y-75973859D01*
X178970733Y-75885619D01*
X179058973Y-75770623D01*
X179114442Y-75636707D01*
X179133362Y-75492998D01*
X179114442Y-75349289D01*
X179058973Y-75215373D01*
X178970733Y-75100377D01*
X178855737Y-75012137D01*
X178855736Y-75012136D01*
X178855734Y-75012135D01*
X178721824Y-74956669D01*
X178721822Y-74956668D01*
X178721821Y-74956668D01*
X178681541Y-74951364D01*
X178637003Y-74945501D01*
X178573106Y-74917234D01*
X178534636Y-74858909D01*
X178533805Y-74789044D01*
X178570878Y-74729821D01*
X178605737Y-74708000D01*
X178615737Y-74703859D01*
X178730733Y-74615619D01*
X178818973Y-74500623D01*
X178874442Y-74366707D01*
X178893362Y-74222998D01*
X178874442Y-74079289D01*
X178818973Y-73945373D01*
X178730733Y-73830377D01*
X178615737Y-73742137D01*
X178615736Y-73742136D01*
X178615734Y-73742135D01*
X178481824Y-73686669D01*
X178481822Y-73686668D01*
X178481821Y-73686668D01*
X178409966Y-73677208D01*
X178338113Y-73667748D01*
X178338111Y-73667748D01*
X178194403Y-73686668D01*
X178194399Y-73686669D01*
X178060489Y-73742135D01*
X177945491Y-73830377D01*
X177857249Y-73945375D01*
X177801783Y-74079285D01*
X177801782Y-74079289D01*
X177782862Y-74222997D01*
X177782862Y-74222998D01*
X176781341Y-74222998D01*
X176574141Y-73907651D01*
X175658256Y-72586148D01*
X175658239Y-72586123D01*
X175181181Y-71932914D01*
X184916935Y-71932914D01*
X184935855Y-72076622D01*
X184935856Y-72076626D01*
X184991322Y-72210536D01*
X184991323Y-72210538D01*
X184991324Y-72210539D01*
X185079564Y-72325535D01*
X185194560Y-72413775D01*
X185328476Y-72469244D01*
X185455465Y-72485962D01*
X185472184Y-72488164D01*
X185472185Y-72488164D01*
X185472186Y-72488164D01*
X185487162Y-72486192D01*
X185615894Y-72469244D01*
X185749810Y-72413775D01*
X185864806Y-72325535D01*
X185953046Y-72210539D01*
X186008515Y-72076623D01*
X186027435Y-71932914D01*
X186008515Y-71789205D01*
X185953046Y-71655289D01*
X185864806Y-71540293D01*
X185749810Y-71452053D01*
X185749809Y-71452052D01*
X185749807Y-71452051D01*
X185615897Y-71396585D01*
X185615895Y-71396584D01*
X185615894Y-71396584D01*
X185544039Y-71387124D01*
X185472186Y-71377664D01*
X185472184Y-71377664D01*
X185328476Y-71396584D01*
X185328472Y-71396585D01*
X185194562Y-71452051D01*
X185079564Y-71540293D01*
X184991322Y-71655291D01*
X184935856Y-71789201D01*
X184935855Y-71789205D01*
X184916935Y-71932913D01*
X184916935Y-71932914D01*
X175181181Y-71932914D01*
X174709982Y-71287727D01*
X173729836Y-70013098D01*
X172718507Y-68763158D01*
X171676551Y-67538590D01*
X170604633Y-66340179D01*
X169503383Y-65168629D01*
X168373511Y-64024696D01*
X167215712Y-62909080D01*
X167215707Y-62909076D01*
X167215690Y-62909059D01*
X166030624Y-61822397D01*
X166030603Y-61822378D01*
X166030587Y-61822364D01*
X164819050Y-60765385D01*
X163581713Y-59738673D01*
X163581698Y-59738661D01*
X163581687Y-59738652D01*
X163367890Y-59570001D01*
X180064318Y-59570001D01*
X180084955Y-59726760D01*
X180084956Y-59726762D01*
X180145464Y-59872841D01*
X180241718Y-59998282D01*
X180367159Y-60094536D01*
X180513238Y-60155044D01*
X180591619Y-60165363D01*
X180669999Y-60175682D01*
X180670000Y-60175682D01*
X180670001Y-60175682D01*
X180722254Y-60168802D01*
X180826762Y-60155044D01*
X180972841Y-60094536D01*
X181098282Y-59998282D01*
X181194536Y-59872841D01*
X181255044Y-59726762D01*
X181275682Y-59570000D01*
X181267214Y-59505682D01*
X181255044Y-59413239D01*
X181255044Y-59413238D01*
X181194536Y-59267159D01*
X181098282Y-59141718D01*
X180972841Y-59045464D01*
X180826762Y-58984956D01*
X180826760Y-58984955D01*
X180670001Y-58964318D01*
X180669999Y-58964318D01*
X180513239Y-58984955D01*
X180513237Y-58984956D01*
X180367160Y-59045463D01*
X180241718Y-59141718D01*
X180145463Y-59267160D01*
X180084956Y-59413237D01*
X180084955Y-59413239D01*
X180064318Y-59569998D01*
X180064318Y-59570001D01*
X163367890Y-59570001D01*
X162518539Y-58900001D01*
X173814318Y-58900001D01*
X173834955Y-59056760D01*
X173834956Y-59056762D01*
X173895464Y-59202841D01*
X173991718Y-59328282D01*
X174117159Y-59424536D01*
X174263238Y-59485044D01*
X174341619Y-59495363D01*
X174419999Y-59505682D01*
X174420000Y-59505682D01*
X174420001Y-59505682D01*
X174472254Y-59498802D01*
X174576762Y-59485044D01*
X174722841Y-59424536D01*
X174848282Y-59328282D01*
X174944536Y-59202841D01*
X175005044Y-59056762D01*
X175025682Y-58900000D01*
X175024857Y-58893736D01*
X175005044Y-58743239D01*
X175005044Y-58743238D01*
X174944536Y-58597159D01*
X174848282Y-58471718D01*
X174834959Y-58461495D01*
X174793758Y-58405067D01*
X174789604Y-58335321D01*
X174823818Y-58274401D01*
X174834957Y-58264749D01*
X174915063Y-58203282D01*
X175011317Y-58077841D01*
X175071825Y-57931762D01*
X175092463Y-57775000D01*
X175071825Y-57618238D01*
X175011317Y-57472159D01*
X174915063Y-57346718D01*
X174789622Y-57250464D01*
X174643543Y-57189956D01*
X174643541Y-57189955D01*
X174486782Y-57169318D01*
X174486780Y-57169318D01*
X174330020Y-57189955D01*
X174330018Y-57189956D01*
X174183941Y-57250463D01*
X174058499Y-57346718D01*
X173962244Y-57472160D01*
X173901737Y-57618237D01*
X173901736Y-57618239D01*
X173881099Y-57774998D01*
X173881099Y-57775001D01*
X173901736Y-57931760D01*
X173901737Y-57931762D01*
X173962245Y-58077841D01*
X174058499Y-58203282D01*
X174071819Y-58213503D01*
X174113022Y-58269928D01*
X174117177Y-58339674D01*
X174082966Y-58400595D01*
X174071820Y-58410253D01*
X173991720Y-58471716D01*
X173895463Y-58597160D01*
X173834956Y-58743237D01*
X173834955Y-58743239D01*
X173814318Y-58899998D01*
X173814318Y-58900001D01*
X162518539Y-58900001D01*
X162319314Y-58742845D01*
X162124928Y-58597159D01*
X161032696Y-57778565D01*
X159722644Y-56846420D01*
X158389892Y-55946935D01*
X157700349Y-55505981D01*
X157035323Y-55080705D01*
X157035312Y-55080698D01*
X157035299Y-55080690D01*
X155659767Y-54248258D01*
X155659763Y-54248255D01*
X155659742Y-54248243D01*
X154263991Y-53450060D01*
X154263958Y-53450042D01*
X152848935Y-52686649D01*
X151415430Y-51958474D01*
X151196256Y-51853878D01*
X149964320Y-51265963D01*
X148496547Y-50609565D01*
X147012987Y-49989673D01*
X147012980Y-49989670D01*
X147012965Y-49989664D01*
X145514558Y-49406669D01*
X144002130Y-48860893D01*
X142476730Y-48352716D01*
X141836150Y-48156774D01*
X140939170Y-47882405D01*
X139390467Y-47450275D01*
X139390442Y-47450268D01*
X137831580Y-47056590D01*
X137831557Y-47056585D01*
X137831550Y-47056583D01*
X136263372Y-46701571D01*
X136224485Y-46693773D01*
X134686903Y-46385457D01*
X133103072Y-46108428D01*
X131512891Y-45870662D01*
X129917286Y-45672298D01*
X128317348Y-45513469D01*
X126713859Y-45394254D01*
X125107998Y-45314741D01*
X123500624Y-45274972D01*
X123500621Y-45274972D01*
X121892761Y-45274972D01*
X121892758Y-45274972D01*
X120285383Y-45314741D01*
X118679522Y-45394254D01*
X117076033Y-45513469D01*
X115476095Y-45672298D01*
X113880490Y-45870662D01*
X112290309Y-46108428D01*
X110706478Y-46385457D01*
X109130019Y-46701569D01*
X107561801Y-47056590D01*
X106002939Y-47450268D01*
X104454205Y-47882407D01*
X102916651Y-48352716D01*
X101391251Y-48860893D01*
X99878823Y-49406669D01*
X98380416Y-49989664D01*
X98117307Y-50099602D01*
X96896835Y-50609565D01*
X96896821Y-50609570D01*
X96896812Y-50609575D01*
X95429081Y-51265954D01*
X93977951Y-51958474D01*
X92544446Y-52686649D01*
X91129423Y-53450042D01*
X91129400Y-53450055D01*
X91129391Y-53450060D01*
X89733640Y-54248243D01*
X89733614Y-54248258D01*
X88358082Y-55080690D01*
X87003489Y-55946935D01*
X85670737Y-56846420D01*
X84360685Y-57778565D01*
X83074096Y-58742823D01*
X81811668Y-59738673D01*
X80574331Y-60765385D01*
X79362794Y-61822364D01*
X78177669Y-62909080D01*
X77019870Y-64024696D01*
X75889998Y-65168629D01*
X74788748Y-66340179D01*
X73716830Y-67538590D01*
X72674874Y-68763158D01*
X71663545Y-70013098D01*
X70683399Y-71287727D01*
X69735142Y-72586123D01*
X68819248Y-73907640D01*
X67936314Y-75251416D01*
X67086900Y-76616601D01*
X66271539Y-78002335D01*
X66271527Y-78002356D01*
X66007771Y-78477106D01*
X65490657Y-79407891D01*
X64744815Y-80832266D01*
X64034425Y-82274666D01*
X63359913Y-83734233D01*
X62721715Y-85210025D01*
X62120235Y-86701098D01*
X61555798Y-88206656D01*
X61028779Y-89725691D01*
X61028774Y-89725707D01*
X60539491Y-91257302D01*
X60088249Y-92800507D01*
X59675299Y-94354467D01*
X59300916Y-95918145D01*
X58965329Y-97490579D01*
X58668739Y-99070833D01*
X58411317Y-100657990D01*
X58193243Y-102250951D01*
X58193240Y-102250974D01*
X58088594Y-103187163D01*
X58014628Y-103848886D01*
X57875594Y-105450735D01*
X57776224Y-107055496D01*
X57716577Y-108662256D01*
X57696691Y-110270000D01*
X37999882Y-110270000D01*
X38009122Y-109417103D01*
X38019487Y-109368806D01*
X40292471Y-104167219D01*
X64329117Y-49160785D01*
X64357457Y-49120428D01*
X65117528Y-48400450D01*
X65119360Y-48398752D01*
X65969765Y-47627465D01*
X66007852Y-47603857D01*
X89054298Y-38581520D01*
X89123895Y-38575412D01*
X89185751Y-38607903D01*
X89203492Y-38629453D01*
X89279725Y-38746842D01*
X89279734Y-38746855D01*
X89279738Y-38746861D01*
X89511544Y-39033117D01*
X89772002Y-39293575D01*
X90058258Y-39525381D01*
X90058263Y-39525384D01*
X90058276Y-39525394D01*
X90367172Y-39725993D01*
X90367177Y-39725996D01*
X90695373Y-39893220D01*
X91039252Y-40025223D01*
X91395044Y-40120557D01*
X91758852Y-40178178D01*
X92106345Y-40196389D01*
X92126690Y-40197456D01*
X92126691Y-40197456D01*
X92126692Y-40197456D01*
X92145970Y-40196445D01*
X92494530Y-40178178D01*
X92858338Y-40120557D01*
X93214130Y-40025223D01*
X93558009Y-39893220D01*
X93886205Y-39725996D01*
X94003067Y-39650104D01*
X94195105Y-39525394D01*
X94195110Y-39525389D01*
X94195124Y-39525381D01*
X94481380Y-39293575D01*
X94741838Y-39033117D01*
X94973644Y-38746861D01*
X94973652Y-38746847D01*
X94973657Y-38746842D01*
X95174256Y-38437946D01*
X95174259Y-38437942D01*
X95341483Y-38109746D01*
X95473486Y-37765867D01*
X95568820Y-37410075D01*
X95626441Y-37046267D01*
X95645719Y-36678428D01*
X95626441Y-36310589D01*
X95597009Y-36124761D01*
X95605964Y-36055468D01*
X95650960Y-36002016D01*
X95674266Y-35989902D01*
X121613536Y-25835068D01*
X121656048Y-25826565D01*
X121777815Y-25823926D01*
X121780500Y-25823898D01*
X123466414Y-25823898D01*
X123513081Y-25833015D01*
G37*
G04 #@! TD.AperFunction*
G04 #@! TD*
M02*
