G04 #@! TF.GenerationSoftware,KiCad,Pcbnew,8.0.1*
G04 #@! TF.CreationDate,2024-11-14T10:24:17-05:00*
G04 #@! TF.ProjectId,induction_encoder,696e6475-6374-4696-9f6e-5f656e636f64,rev?*
G04 #@! TF.SameCoordinates,Original*
G04 #@! TF.FileFunction,Legend,Bot*
G04 #@! TF.FilePolarity,Positive*
%FSLAX46Y46*%
G04 Gerber Fmt 4.6, Leading zero omitted, Abs format (unit mm)*
G04 Created by KiCad (PCBNEW 8.0.1) date 2024-11-14 10:24:17*
%MOMM*%
%LPD*%
G01*
G04 APERTURE LIST*
G04 Aperture macros list*
%AMRoundRect*
0 Rectangle with rounded corners*
0 $1 Rounding radius*
0 $2 $3 $4 $5 $6 $7 $8 $9 X,Y pos of 4 corners*
0 Add a 4 corners polygon primitive as box body*
4,1,4,$2,$3,$4,$5,$6,$7,$8,$9,$2,$3,0*
0 Add four circle primitives for the rounded corners*
1,1,$1+$1,$2,$3*
1,1,$1+$1,$4,$5*
1,1,$1+$1,$6,$7*
1,1,$1+$1,$8,$9*
0 Add four rect primitives between the rounded corners*
20,1,$1+$1,$2,$3,$4,$5,0*
20,1,$1+$1,$4,$5,$6,$7,0*
20,1,$1+$1,$6,$7,$8,$9,0*
20,1,$1+$1,$8,$9,$2,$3,0*%
%AMHorizOval*
0 Thick line with rounded ends*
0 $1 width*
0 $2 $3 position (X,Y) of the first rounded end (center of the circle)*
0 $4 $5 position (X,Y) of the second rounded end (center of the circle)*
0 Add line between two ends*
20,1,$1,$2,$3,$4,$5,0*
0 Add two circle primitives to create the rounded ends*
1,1,$1,$2,$3*
1,1,$1,$4,$5*%
G04 Aperture macros list end*
%ADD10C,0.150000*%
%ADD11RoundRect,0.250000X0.503807X-0.919023X1.027853X0.204798X-0.503807X0.919023X-1.027853X-0.204798X0*%
%ADD12HorizOval,1.740000X-0.203919X0.095089X0.203919X-0.095089X0*%
G04 APERTURE END LIST*
D10*
X187976102Y-130995866D02*
X188071340Y-130948247D01*
X188071340Y-130948247D02*
X188214197Y-130948247D01*
X188214197Y-130948247D02*
X188357054Y-130995866D01*
X188357054Y-130995866D02*
X188452292Y-131091104D01*
X188452292Y-131091104D02*
X188499911Y-131186342D01*
X188499911Y-131186342D02*
X188547530Y-131376818D01*
X188547530Y-131376818D02*
X188547530Y-131519675D01*
X188547530Y-131519675D02*
X188499911Y-131710151D01*
X188499911Y-131710151D02*
X188452292Y-131805389D01*
X188452292Y-131805389D02*
X188357054Y-131900628D01*
X188357054Y-131900628D02*
X188214197Y-131948247D01*
X188214197Y-131948247D02*
X188118959Y-131948247D01*
X188118959Y-131948247D02*
X187976102Y-131900628D01*
X187976102Y-131900628D02*
X187928483Y-131853008D01*
X187928483Y-131853008D02*
X187928483Y-131519675D01*
X187928483Y-131519675D02*
X188118959Y-131519675D01*
X187499911Y-131948247D02*
X187499911Y-130948247D01*
X187499911Y-130948247D02*
X186928483Y-131948247D01*
X186928483Y-131948247D02*
X186928483Y-130948247D01*
X186452292Y-131948247D02*
X186452292Y-130948247D01*
X186452292Y-130948247D02*
X186214197Y-130948247D01*
X186214197Y-130948247D02*
X186071340Y-130995866D01*
X186071340Y-130995866D02*
X185976102Y-131091104D01*
X185976102Y-131091104D02*
X185928483Y-131186342D01*
X185928483Y-131186342D02*
X185880864Y-131376818D01*
X185880864Y-131376818D02*
X185880864Y-131519675D01*
X185880864Y-131519675D02*
X185928483Y-131710151D01*
X185928483Y-131710151D02*
X185976102Y-131805389D01*
X185976102Y-131805389D02*
X186071340Y-131900628D01*
X186071340Y-131900628D02*
X186214197Y-131948247D01*
X186214197Y-131948247D02*
X186452292Y-131948247D01*
X187998483Y-136428247D02*
X188331816Y-135952056D01*
X188569911Y-136428247D02*
X188569911Y-135428247D01*
X188569911Y-135428247D02*
X188188959Y-135428247D01*
X188188959Y-135428247D02*
X188093721Y-135475866D01*
X188093721Y-135475866D02*
X188046102Y-135523485D01*
X188046102Y-135523485D02*
X187998483Y-135618723D01*
X187998483Y-135618723D02*
X187998483Y-135761580D01*
X187998483Y-135761580D02*
X188046102Y-135856818D01*
X188046102Y-135856818D02*
X188093721Y-135904437D01*
X188093721Y-135904437D02*
X188188959Y-135952056D01*
X188188959Y-135952056D02*
X188569911Y-135952056D01*
X187569911Y-136428247D02*
X187569911Y-135428247D01*
X187569911Y-135428247D02*
X187331816Y-135428247D01*
X187331816Y-135428247D02*
X187188959Y-135475866D01*
X187188959Y-135475866D02*
X187093721Y-135571104D01*
X187093721Y-135571104D02*
X187046102Y-135666342D01*
X187046102Y-135666342D02*
X186998483Y-135856818D01*
X186998483Y-135856818D02*
X186998483Y-135999675D01*
X186998483Y-135999675D02*
X187046102Y-136190151D01*
X187046102Y-136190151D02*
X187093721Y-136285389D01*
X187093721Y-136285389D02*
X187188959Y-136380628D01*
X187188959Y-136380628D02*
X187331816Y-136428247D01*
X187331816Y-136428247D02*
X187569911Y-136428247D01*
X186379435Y-135952056D02*
X186379435Y-136428247D01*
X186712768Y-135428247D02*
X186379435Y-135952056D01*
X186379435Y-135952056D02*
X186046102Y-135428247D01*
X187137530Y-138430628D02*
X186994673Y-138478247D01*
X186994673Y-138478247D02*
X186756578Y-138478247D01*
X186756578Y-138478247D02*
X186661340Y-138430628D01*
X186661340Y-138430628D02*
X186613721Y-138383008D01*
X186613721Y-138383008D02*
X186566102Y-138287770D01*
X186566102Y-138287770D02*
X186566102Y-138192532D01*
X186566102Y-138192532D02*
X186613721Y-138097294D01*
X186613721Y-138097294D02*
X186661340Y-138049675D01*
X186661340Y-138049675D02*
X186756578Y-138002056D01*
X186756578Y-138002056D02*
X186947054Y-137954437D01*
X186947054Y-137954437D02*
X187042292Y-137906818D01*
X187042292Y-137906818D02*
X187089911Y-137859199D01*
X187089911Y-137859199D02*
X187137530Y-137763961D01*
X187137530Y-137763961D02*
X187137530Y-137668723D01*
X187137530Y-137668723D02*
X187089911Y-137573485D01*
X187089911Y-137573485D02*
X187042292Y-137525866D01*
X187042292Y-137525866D02*
X186947054Y-137478247D01*
X186947054Y-137478247D02*
X186708959Y-137478247D01*
X186708959Y-137478247D02*
X186566102Y-137525866D01*
X185566102Y-138383008D02*
X185613721Y-138430628D01*
X185613721Y-138430628D02*
X185756578Y-138478247D01*
X185756578Y-138478247D02*
X185851816Y-138478247D01*
X185851816Y-138478247D02*
X185994673Y-138430628D01*
X185994673Y-138430628D02*
X186089911Y-138335389D01*
X186089911Y-138335389D02*
X186137530Y-138240151D01*
X186137530Y-138240151D02*
X186185149Y-138049675D01*
X186185149Y-138049675D02*
X186185149Y-137906818D01*
X186185149Y-137906818D02*
X186137530Y-137716342D01*
X186137530Y-137716342D02*
X186089911Y-137621104D01*
X186089911Y-137621104D02*
X185994673Y-137525866D01*
X185994673Y-137525866D02*
X185851816Y-137478247D01*
X185851816Y-137478247D02*
X185756578Y-137478247D01*
X185756578Y-137478247D02*
X185613721Y-137525866D01*
X185613721Y-137525866D02*
X185566102Y-137573485D01*
X184661340Y-138478247D02*
X185137530Y-138478247D01*
X185137530Y-138478247D02*
X185137530Y-137478247D01*
X186187530Y-140740628D02*
X186044673Y-140788247D01*
X186044673Y-140788247D02*
X185806578Y-140788247D01*
X185806578Y-140788247D02*
X185711340Y-140740628D01*
X185711340Y-140740628D02*
X185663721Y-140693008D01*
X185663721Y-140693008D02*
X185616102Y-140597770D01*
X185616102Y-140597770D02*
X185616102Y-140502532D01*
X185616102Y-140502532D02*
X185663721Y-140407294D01*
X185663721Y-140407294D02*
X185711340Y-140359675D01*
X185711340Y-140359675D02*
X185806578Y-140312056D01*
X185806578Y-140312056D02*
X185997054Y-140264437D01*
X185997054Y-140264437D02*
X186092292Y-140216818D01*
X186092292Y-140216818D02*
X186139911Y-140169199D01*
X186139911Y-140169199D02*
X186187530Y-140073961D01*
X186187530Y-140073961D02*
X186187530Y-139978723D01*
X186187530Y-139978723D02*
X186139911Y-139883485D01*
X186139911Y-139883485D02*
X186092292Y-139835866D01*
X186092292Y-139835866D02*
X185997054Y-139788247D01*
X185997054Y-139788247D02*
X185758959Y-139788247D01*
X185758959Y-139788247D02*
X185616102Y-139835866D01*
X185187530Y-140788247D02*
X185187530Y-139788247D01*
X185187530Y-139788247D02*
X184949435Y-139788247D01*
X184949435Y-139788247D02*
X184806578Y-139835866D01*
X184806578Y-139835866D02*
X184711340Y-139931104D01*
X184711340Y-139931104D02*
X184663721Y-140026342D01*
X184663721Y-140026342D02*
X184616102Y-140216818D01*
X184616102Y-140216818D02*
X184616102Y-140359675D01*
X184616102Y-140359675D02*
X184663721Y-140550151D01*
X184663721Y-140550151D02*
X184711340Y-140645389D01*
X184711340Y-140645389D02*
X184806578Y-140740628D01*
X184806578Y-140740628D02*
X184949435Y-140788247D01*
X184949435Y-140788247D02*
X185187530Y-140788247D01*
X184235149Y-140502532D02*
X183758959Y-140502532D01*
X184330387Y-140788247D02*
X183997054Y-139788247D01*
X183997054Y-139788247D02*
X183663721Y-140788247D01*
X185215149Y-141888247D02*
X184596102Y-141888247D01*
X184596102Y-141888247D02*
X184929435Y-142269199D01*
X184929435Y-142269199D02*
X184786578Y-142269199D01*
X184786578Y-142269199D02*
X184691340Y-142316818D01*
X184691340Y-142316818D02*
X184643721Y-142364437D01*
X184643721Y-142364437D02*
X184596102Y-142459675D01*
X184596102Y-142459675D02*
X184596102Y-142697770D01*
X184596102Y-142697770D02*
X184643721Y-142793008D01*
X184643721Y-142793008D02*
X184691340Y-142840628D01*
X184691340Y-142840628D02*
X184786578Y-142888247D01*
X184786578Y-142888247D02*
X185072292Y-142888247D01*
X185072292Y-142888247D02*
X185167530Y-142840628D01*
X185167530Y-142840628D02*
X185215149Y-142793008D01*
X184310387Y-141888247D02*
X183977054Y-142888247D01*
X183977054Y-142888247D02*
X183643721Y-141888247D01*
X183405625Y-141888247D02*
X182786578Y-141888247D01*
X182786578Y-141888247D02*
X183119911Y-142269199D01*
X183119911Y-142269199D02*
X182977054Y-142269199D01*
X182977054Y-142269199D02*
X182881816Y-142316818D01*
X182881816Y-142316818D02*
X182834197Y-142364437D01*
X182834197Y-142364437D02*
X182786578Y-142459675D01*
X182786578Y-142459675D02*
X182786578Y-142697770D01*
X182786578Y-142697770D02*
X182834197Y-142793008D01*
X182834197Y-142793008D02*
X182881816Y-142840628D01*
X182881816Y-142840628D02*
X182977054Y-142888247D01*
X182977054Y-142888247D02*
X183262768Y-142888247D01*
X183262768Y-142888247D02*
X183358006Y-142840628D01*
X183358006Y-142840628D02*
X183405625Y-142793008D01*
%LPC*%
D11*
G04 #@! TO.C,J2*
X180001000Y-144875737D03*
D12*
X181074450Y-142573715D03*
X182147900Y-140271694D03*
X183221351Y-137969672D03*
X184294801Y-135667650D03*
X185368252Y-133365628D03*
G04 #@! TD*
%LPD*%
M02*
