%TF.GenerationSoftware,KiCad,Pcbnew,8.0.1*%
%TF.CreationDate,2024-11-14T10:24:17-05:00*%
%TF.ProjectId,induction_encoder,696e6475-6374-4696-9f6e-5f656e636f64,rev?*%
%TF.SameCoordinates,Original*%
%TF.FileFunction,Drillmap*%
%TF.FilePolarity,Positive*%
%FSLAX45Y45*%
G04 Gerber Fmt 4.5, Leading zero omitted, Abs format (unit mm)*
G04 Created by KiCad (PCBNEW 8.0.1) date 2024-11-14 10:24:17*
%MOMM*%
%LPD*%
G01*
G04 APERTURE LIST*
%ADD10C,0.200000*%
%ADD11C,0.050000*%
G04 APERTURE END LIST*
D10*
X19677676Y-14440000D02*
G75*
G02*
X19298324Y-14440000I-189676J0D01*
G01*
X19298324Y-14440000D02*
G75*
G02*
X19677676Y-14440000I189676J0D01*
G01*
X19939676Y-13455000D02*
G75*
G02*
X19560324Y-13455000I-189676J0D01*
G01*
X19560324Y-13455000D02*
G75*
G02*
X19939676Y-13455000I189676J0D01*
G01*
X19289676Y-15149000D02*
G75*
G02*
X18910324Y-15149000I-189676J0D01*
G01*
X18910324Y-15149000D02*
G75*
G02*
X19289676Y-15149000I189676J0D01*
G01*
X9534040Y-3667843D02*
G75*
G02*
X8891299Y-3667843I-321371J0D01*
G01*
X8891299Y-3667843D02*
G75*
G02*
X9534040Y-3667843I321371J0D01*
G01*
X5191040Y-14114843D02*
G75*
G02*
X4548299Y-14114843I-321371J0D01*
G01*
X4548299Y-14114843D02*
G75*
G02*
X5191040Y-14114843I321371J0D01*
G01*
X19973040Y-7990843D02*
G75*
G02*
X19330299Y-7990843I-321371J0D01*
G01*
X19330299Y-7990843D02*
G75*
G02*
X19973040Y-7990843I321371J0D01*
G01*
D11*
X20769669Y-11051843D02*
G75*
G02*
X3769669Y-11051843I-8500000J0D01*
G01*
X3769669Y-11051843D02*
G75*
G02*
X20769669Y-11051843I8500000J0D01*
G01*
X17269669Y-11051843D02*
G75*
G02*
X7269669Y-11051843I-5000000J0D01*
G01*
X7269669Y-11051843D02*
G75*
G02*
X17269669Y-11051843I5000000J0D01*
G01*
D10*
X15661040Y-18447843D02*
G75*
G02*
X15018299Y-18447843I-321370J0D01*
G01*
X15018299Y-18447843D02*
G75*
G02*
X15661040Y-18447843I321371J0D01*
G01*
X4027946Y-19865827D02*
X4027946Y-19665827D01*
X4027946Y-19665827D02*
X4075565Y-19665827D01*
X4075565Y-19665827D02*
X4104136Y-19675350D01*
X4104136Y-19675350D02*
X4123184Y-19694398D01*
X4123184Y-19694398D02*
X4132708Y-19713446D01*
X4132708Y-19713446D02*
X4142232Y-19751541D01*
X4142232Y-19751541D02*
X4142232Y-19780112D01*
X4142232Y-19780112D02*
X4132708Y-19818208D01*
X4132708Y-19818208D02*
X4123184Y-19837255D01*
X4123184Y-19837255D02*
X4104136Y-19856303D01*
X4104136Y-19856303D02*
X4075565Y-19865827D01*
X4075565Y-19865827D02*
X4027946Y-19865827D01*
X4227946Y-19865827D02*
X4227946Y-19732493D01*
X4227946Y-19770589D02*
X4237470Y-19751541D01*
X4237470Y-19751541D02*
X4246994Y-19742017D01*
X4246994Y-19742017D02*
X4266041Y-19732493D01*
X4266041Y-19732493D02*
X4285089Y-19732493D01*
X4351755Y-19865827D02*
X4351755Y-19732493D01*
X4351755Y-19665827D02*
X4342232Y-19675350D01*
X4342232Y-19675350D02*
X4351755Y-19684874D01*
X4351755Y-19684874D02*
X4361279Y-19675350D01*
X4361279Y-19675350D02*
X4351755Y-19665827D01*
X4351755Y-19665827D02*
X4351755Y-19684874D01*
X4475565Y-19865827D02*
X4456517Y-19856303D01*
X4456517Y-19856303D02*
X4446994Y-19837255D01*
X4446994Y-19837255D02*
X4446994Y-19665827D01*
X4580327Y-19865827D02*
X4561279Y-19856303D01*
X4561279Y-19856303D02*
X4551755Y-19837255D01*
X4551755Y-19837255D02*
X4551755Y-19665827D01*
X4808898Y-19865827D02*
X4808898Y-19665827D01*
X4808898Y-19665827D02*
X4875565Y-19808684D01*
X4875565Y-19808684D02*
X4942232Y-19665827D01*
X4942232Y-19665827D02*
X4942232Y-19865827D01*
X5123184Y-19865827D02*
X5123184Y-19761065D01*
X5123184Y-19761065D02*
X5113660Y-19742017D01*
X5113660Y-19742017D02*
X5094613Y-19732493D01*
X5094613Y-19732493D02*
X5056517Y-19732493D01*
X5056517Y-19732493D02*
X5037470Y-19742017D01*
X5123184Y-19856303D02*
X5104136Y-19865827D01*
X5104136Y-19865827D02*
X5056517Y-19865827D01*
X5056517Y-19865827D02*
X5037470Y-19856303D01*
X5037470Y-19856303D02*
X5027946Y-19837255D01*
X5027946Y-19837255D02*
X5027946Y-19818208D01*
X5027946Y-19818208D02*
X5037470Y-19799160D01*
X5037470Y-19799160D02*
X5056517Y-19789636D01*
X5056517Y-19789636D02*
X5104136Y-19789636D01*
X5104136Y-19789636D02*
X5123184Y-19780112D01*
X5218422Y-19732493D02*
X5218422Y-19932493D01*
X5218422Y-19742017D02*
X5237470Y-19732493D01*
X5237470Y-19732493D02*
X5275565Y-19732493D01*
X5275565Y-19732493D02*
X5294613Y-19742017D01*
X5294613Y-19742017D02*
X5304136Y-19751541D01*
X5304136Y-19751541D02*
X5313660Y-19770589D01*
X5313660Y-19770589D02*
X5313660Y-19827731D01*
X5313660Y-19827731D02*
X5304136Y-19846779D01*
X5304136Y-19846779D02*
X5294613Y-19856303D01*
X5294613Y-19856303D02*
X5275565Y-19865827D01*
X5275565Y-19865827D02*
X5237470Y-19865827D01*
X5237470Y-19865827D02*
X5218422Y-19856303D01*
X5399375Y-19846779D02*
X5408898Y-19856303D01*
X5408898Y-19856303D02*
X5399375Y-19865827D01*
X5399375Y-19865827D02*
X5389851Y-19856303D01*
X5389851Y-19856303D02*
X5399375Y-19846779D01*
X5399375Y-19846779D02*
X5399375Y-19865827D01*
X5399375Y-19742017D02*
X5408898Y-19751541D01*
X5408898Y-19751541D02*
X5399375Y-19761065D01*
X5399375Y-19761065D02*
X5389851Y-19751541D01*
X5389851Y-19751541D02*
X5399375Y-19742017D01*
X5399375Y-19742017D02*
X5399375Y-19761065D01*
M02*
