G04 #@! TF.GenerationSoftware,KiCad,Pcbnew,8.0.1*
G04 #@! TF.CreationDate,2024-11-14T10:24:17-05:00*
G04 #@! TF.ProjectId,induction_encoder,696e6475-6374-4696-9f6e-5f656e636f64,rev?*
G04 #@! TF.SameCoordinates,Original*
G04 #@! TF.FileFunction,Other,ECO1*
%FSLAX46Y46*%
G04 Gerber Fmt 4.6, Leading zero omitted, Abs format (unit mm)*
G04 Created by KiCad (PCBNEW 8.0.1) date 2024-11-14 10:24:17*
%MOMM*%
%LPD*%
G01*
G04 APERTURE LIST*
%ADD10C,0.050000*%
%ADD11C,0.100000*%
G04 APERTURE END LIST*
D10*
X202643420Y-110625375D02*
G75*
G02*
X42643420Y-110625375I-80000000J0D01*
G01*
X42643420Y-110625375D02*
G75*
G02*
X202643420Y-110625375I80000000J0D01*
G01*
D11*
X122696691Y-110518428D02*
X201096691Y-78008428D01*
X122696691Y-110518428D02*
X43956691Y-143108428D01*
X122696691Y-110518428D02*
X155206691Y-188838428D01*
X122696691Y-110518428D02*
X89846691Y-31168428D01*
X122696691Y-107018428D02*
X122696691Y-47018428D01*
X119923098Y-107744835D02*
X77496691Y-65318428D01*
X122696691Y-110518428D02*
X182696691Y-110518428D01*
X118723098Y-114492021D02*
X76296691Y-156918428D01*
X125570284Y-113392021D02*
X167996691Y-155818428D01*
X122696691Y-110518428D02*
X122696691Y-170518428D01*
X122696691Y-110518428D02*
X173608379Y-161430116D01*
X122696691Y-110518428D02*
X173608379Y-59606740D01*
X125470284Y-107744835D02*
X167896691Y-65318428D01*
X195196691Y-110518428D02*
G75*
G02*
X50196691Y-110518428I-72500000J0D01*
G01*
X50196691Y-110518428D02*
G75*
G02*
X195196691Y-110518428I72500000J0D01*
G01*
X122697665Y-110890076D02*
X122697665Y-61890076D01*
X122697665Y-110890076D02*
X122697665Y-158890076D01*
X182696691Y-110518428D02*
G75*
G02*
X62696691Y-110518428I-60000000J0D01*
G01*
X62696691Y-110518428D02*
G75*
G02*
X182696691Y-110518428I60000000J0D01*
G01*
X122696691Y-110518428D02*
X122696691Y-50518428D01*
X126196691Y-110518428D02*
X186196691Y-110518428D01*
X174893434Y-110518428D02*
G75*
G02*
X70499948Y-110518428I-52196743J0D01*
G01*
X70499948Y-110518428D02*
G75*
G02*
X174893434Y-110518428I52196743J0D01*
G01*
X119196691Y-110518428D02*
X59196691Y-110518428D01*
X122696691Y-115118428D02*
X122696691Y-175118428D01*
X122696691Y-110518428D02*
X71785003Y-161430116D01*
X185696691Y-110518428D02*
G75*
G02*
X59696691Y-110518428I-63000000J0D01*
G01*
X59696691Y-110518428D02*
G75*
G02*
X185696691Y-110518428I63000000J0D01*
G01*
X122696691Y-110518428D02*
X62696691Y-110518428D01*
X122657665Y-110510076D02*
X172697665Y-110520076D01*
X122677665Y-110510076D02*
X73807665Y-110500076D01*
X122696691Y-110518428D02*
X71785003Y-59606740D01*
M02*
