M48
; DRILL file {KiCad 8.0.1} date 2024-11-14T10:24:17-0500
; FORMAT={-:-/ absolute / metric / decimal}
; #@! TF.CreationDate,2024-11-14T10:24:17-05:00
; #@! TF.GenerationSoftware,Kicad,Pcbnew,8.0.1
; #@! TF.FileFunction,Plated,1,4,PTH
FMAT,2
METRIC
; #@! TA.AperFunction,Plated,PTH,ViaDrill
T1C0.300
; #@! TA.AperFunction,Plated,PTH,ViaDrill
T2C0.400
; #@! TA.AperFunction,Plated,PTH,ViaDrill
T3C0.500
; #@! TA.AperFunction,Plated,PTH,ViaDrill
T4C0.600
; #@! TA.AperFunction,Plated,PTH,ComponentDrill
T5C1.190
%
G90
G05
T1
X178.338Y-74.223
X178.578Y-75.493
X180.727Y-74.831
X182.09Y-58.03
X183.432Y-73.793
X184.494Y-72.608
X184.827Y-70.891
X185.472Y-71.933
X185.643Y-72.988
T2
X52.61Y-104.442
X53.68Y-109.332
X53.73Y-111.782
X65.351Y-128.16
X66.252Y-130.84
X68.222Y-124.505
X71.45Y-130.808
X72.113Y-88.629
X72.921Y-62.51
X73.03Y-158.522
X74.287Y-81.889
X74.571Y-60.81
X74.68Y-160.272
X94.067Y-158.928
X100.807Y-161.102
X102.375Y-54.073
X102.407Y-59.272
X105.055Y-53.173
X108.71Y-56.044
X121.44Y-179.577
X121.465Y-41.472
X123.815Y-41.572
X123.84Y-179.627
X136.404Y-163.904
X140.339Y-167.864
X143.018Y-166.964
X143.401Y-162.81
X150.754Y-63.077
X151.326Y-62.109
X170.138Y-138.575
X170.759Y-160.158
X170.808Y-60.83
X171.4Y-156.37
X172.359Y-158.508
X172.458Y-62.48
X174.27Y-166.34
X174.313Y-132.855
X174.42Y-58.9
X174.487Y-57.775
X175.89Y-158.56
X176.05Y-165.49
X176.082Y-96.811
X176.138Y-150.566
X177.099Y-158.456
X177.171Y-96.532
X177.188Y-148.516
X177.55Y-164.84
X178.09Y-158.59
X179.142Y-90.197
X179.288Y-153.866
X179.495Y-54.2
X180.042Y-92.877
X180.67Y-59.57
X183.796Y-110.71
X186.87Y-111.218
X190.095Y-92.661
X190.58Y-96.25
X191.138Y-92.973
X191.77Y-111.767
X191.87Y-109.367
X191.98Y-96.23
X192.243Y-91.803
X193.293Y-91.803
X194.456Y-116.672
T3
X182.81Y-83.331
X186.371Y-76.448
X186.748Y-92.213
X188.509Y-89.072
X189.718Y-77.433
X191.201Y-91.498
X191.278Y-81.563
X192.843Y-83.876
T4
X176.159Y-69.736
T5
X180.001Y-144.876
X181.074Y-142.574
X182.148Y-140.272
X183.221Y-137.97
X184.295Y-135.668
X185.368Y-133.366
M30
