%TF.GenerationSoftware,KiCad,Pcbnew,8.0.1*%
%TF.CreationDate,2024-11-14T10:24:17-05:00*%
%TF.ProjectId,induction_encoder,696e6475-6374-4696-9f6e-5f656e636f64,rev?*%
%TF.SameCoordinates,Original*%
%TF.FileFunction,Drillmap*%
%TF.FilePolarity,Positive*%
%FSLAX45Y45*%
G04 Gerber Fmt 4.5, Leading zero omitted, Abs format (unit mm)*
G04 Created by KiCad (PCBNEW 8.0.1) date 2024-11-14 10:24:17*
%MOMM*%
%LPD*%
G01*
G04 APERTURE LIST*
%ADD10C,0.200000*%
%ADD11C,0.050000*%
%ADD12C,0.100000*%
%ADD13C,0.119000*%
G04 APERTURE END LIST*
D10*
X19677676Y-14440000D02*
G75*
G02*
X19298324Y-14440000I-189676J0D01*
G01*
X19298324Y-14440000D02*
G75*
G02*
X19677676Y-14440000I189676J0D01*
G01*
X19939676Y-13455000D02*
G75*
G02*
X19560324Y-13455000I-189676J0D01*
G01*
X19560324Y-13455000D02*
G75*
G02*
X19939676Y-13455000I189676J0D01*
G01*
X19289676Y-15149000D02*
G75*
G02*
X18910324Y-15149000I-189676J0D01*
G01*
X18910324Y-15149000D02*
G75*
G02*
X19289676Y-15149000I189676J0D01*
G01*
X9534040Y-3667843D02*
G75*
G02*
X8891299Y-3667843I-321371J0D01*
G01*
X8891299Y-3667843D02*
G75*
G02*
X9534040Y-3667843I321371J0D01*
G01*
X5191040Y-14114843D02*
G75*
G02*
X4548299Y-14114843I-321371J0D01*
G01*
X4548299Y-14114843D02*
G75*
G02*
X5191040Y-14114843I321371J0D01*
G01*
X19973040Y-7990843D02*
G75*
G02*
X19330299Y-7990843I-321371J0D01*
G01*
X19330299Y-7990843D02*
G75*
G02*
X19973040Y-7990843I321371J0D01*
G01*
D11*
X20769669Y-11051843D02*
G75*
G02*
X3769669Y-11051843I-8500000J0D01*
G01*
X3769669Y-11051843D02*
G75*
G02*
X20769669Y-11051843I8500000J0D01*
G01*
X17269669Y-11051843D02*
G75*
G02*
X7269669Y-11051843I-5000000J0D01*
G01*
X7269669Y-11051843D02*
G75*
G02*
X17269669Y-11051843I5000000J0D01*
G01*
D10*
X15661040Y-18447843D02*
G75*
G02*
X15018299Y-18447843I-321370J0D01*
G01*
X15018299Y-18447843D02*
G75*
G02*
X15661040Y-18447843I321371J0D01*
G01*
D12*
X17818811Y-7407300D02*
X17848811Y-7437300D01*
X17848811Y-7407300D02*
X17818811Y-7437300D01*
X17842811Y-7534300D02*
X17872811Y-7564300D01*
X17872811Y-7534300D02*
X17842811Y-7564300D01*
X18057709Y-7468059D02*
X18087709Y-7498059D01*
X18087709Y-7468059D02*
X18057709Y-7498059D01*
X18194000Y-5788000D02*
X18224000Y-5818000D01*
X18224000Y-5788000D02*
X18194000Y-5818000D01*
X18328180Y-7364294D02*
X18358180Y-7394294D01*
X18358180Y-7364294D02*
X18328180Y-7394294D01*
X18434415Y-7245814D02*
X18464415Y-7275814D01*
X18464415Y-7245814D02*
X18434415Y-7275814D01*
X18467684Y-7074079D02*
X18497684Y-7104079D01*
X18497684Y-7074079D02*
X18467684Y-7104079D01*
X18532219Y-7178291D02*
X18562219Y-7208291D01*
X18562219Y-7178291D02*
X18532219Y-7208291D01*
X18549337Y-7283799D02*
X18579337Y-7313799D01*
X18579337Y-7283799D02*
X18549337Y-7313799D01*
X5280989Y-10444163D02*
G75*
G02*
X5240989Y-10444163I-20000J0D01*
G01*
X5240989Y-10444163D02*
G75*
G02*
X5280989Y-10444163I20000J0D01*
G01*
X5387989Y-10933163D02*
G75*
G02*
X5347989Y-10933163I-20000J0D01*
G01*
X5347989Y-10933163D02*
G75*
G02*
X5387989Y-10933163I20000J0D01*
G01*
X5392989Y-11178163D02*
G75*
G02*
X5352989Y-11178163I-20000J0D01*
G01*
X5352989Y-11178163D02*
G75*
G02*
X5392989Y-11178163I20000J0D01*
G01*
X6555107Y-12816024D02*
G75*
G02*
X6515107Y-12816024I-20000J0D01*
G01*
X6515107Y-12816024D02*
G75*
G02*
X6555107Y-12816024I20000J0D01*
G01*
X6645157Y-13083992D02*
G75*
G02*
X6605157Y-13083992I-20000J0D01*
G01*
X6605157Y-13083992D02*
G75*
G02*
X6645157Y-13083992I20000J0D01*
G01*
X6842214Y-12450511D02*
G75*
G02*
X6802214Y-12450511I-20000J0D01*
G01*
X6802214Y-12450511D02*
G75*
G02*
X6842214Y-12450511I20000J0D01*
G01*
X7165010Y-13080839D02*
G75*
G02*
X7125010Y-13080839I-20000J0D01*
G01*
X7125010Y-13080839D02*
G75*
G02*
X7165010Y-13080839I20000J0D01*
G01*
X7231271Y-8862878D02*
G75*
G02*
X7191271Y-8862878I-20000J0D01*
G01*
X7191271Y-8862878D02*
G75*
G02*
X7231271Y-8862878I20000J0D01*
G01*
X7312118Y-6251034D02*
G75*
G02*
X7272118Y-6251034I-20000J0D01*
G01*
X7272118Y-6251034D02*
G75*
G02*
X7312118Y-6251034I20000J0D01*
G01*
X7322989Y-15852163D02*
G75*
G02*
X7282989Y-15852163I-20000J0D01*
G01*
X7282989Y-15852163D02*
G75*
G02*
X7322989Y-15852163I20000J0D01*
G01*
X7448729Y-8188919D02*
G75*
G02*
X7408729Y-8188919I-20000J0D01*
G01*
X7408729Y-8188919D02*
G75*
G02*
X7448729Y-8188919I20000J0D01*
G01*
X7477118Y-6081034D02*
G75*
G02*
X7437118Y-6081034I-20000J0D01*
G01*
X7437118Y-6081034D02*
G75*
G02*
X7477118Y-6081034I20000J0D01*
G01*
X7487989Y-16027163D02*
G75*
G02*
X7447989Y-16027163I-20000J0D01*
G01*
X7447989Y-16027163D02*
G75*
G02*
X7487989Y-16027163I20000J0D01*
G01*
X9426745Y-15892783D02*
G75*
G02*
X9386745Y-15892783I-20000J0D01*
G01*
X9386745Y-15892783D02*
G75*
G02*
X9426745Y-15892783I20000J0D01*
G01*
X10100705Y-16110241D02*
G75*
G02*
X10060705Y-16110241I-20000J0D01*
G01*
X10060705Y-16110241D02*
G75*
G02*
X10100705Y-16110241I20000J0D01*
G01*
X10257520Y-5407331D02*
G75*
G02*
X10217520Y-5407331I-20000J0D01*
G01*
X10217520Y-5407331D02*
G75*
G02*
X10257520Y-5407331I20000J0D01*
G01*
X10260673Y-5927183D02*
G75*
G02*
X10220673Y-5927183I-20000J0D01*
G01*
X10220673Y-5927183D02*
G75*
G02*
X10260673Y-5927183I20000J0D01*
G01*
X10525488Y-5317281D02*
G75*
G02*
X10485488Y-5317281I-20000J0D01*
G01*
X10485488Y-5317281D02*
G75*
G02*
X10525488Y-5317281I20000J0D01*
G01*
X10891000Y-5604388D02*
G75*
G02*
X10851000Y-5604388I-20000J0D01*
G01*
X10851000Y-5604388D02*
G75*
G02*
X10891000Y-5604388I20000J0D01*
G01*
X12163989Y-17957663D02*
G75*
G02*
X12123989Y-17957663I-20000J0D01*
G01*
X12123989Y-17957663D02*
G75*
G02*
X12163989Y-17957663I20000J0D01*
G01*
X12166489Y-4147163D02*
G75*
G02*
X12126489Y-4147163I-20000J0D01*
G01*
X12126489Y-4147163D02*
G75*
G02*
X12166489Y-4147163I20000J0D01*
G01*
X12401489Y-4157163D02*
G75*
G02*
X12361489Y-4157163I-20000J0D01*
G01*
X12361489Y-4157163D02*
G75*
G02*
X12401489Y-4157163I20000J0D01*
G01*
X12403989Y-17962663D02*
G75*
G02*
X12363989Y-17962663I-20000J0D01*
G01*
X12363989Y-17962663D02*
G75*
G02*
X12403989Y-17962663I20000J0D01*
G01*
X13660376Y-16390393D02*
G75*
G02*
X13620376Y-16390393I-20000J0D01*
G01*
X13620376Y-16390393D02*
G75*
G02*
X13660376Y-16390393I20000J0D01*
G01*
X14053851Y-16786405D02*
G75*
G02*
X14013851Y-16786405I-20000J0D01*
G01*
X14013851Y-16786405D02*
G75*
G02*
X14053851Y-16786405I20000J0D01*
G01*
X14321818Y-16696354D02*
G75*
G02*
X14281818Y-16696354I-20000J0D01*
G01*
X14281818Y-16696354D02*
G75*
G02*
X14321818Y-16696354I20000J0D01*
G01*
X14360056Y-16281043D02*
G75*
G02*
X14320056Y-16281043I-20000J0D01*
G01*
X14320056Y-16281043D02*
G75*
G02*
X14360056Y-16281043I20000J0D01*
G01*
X15095358Y-6307681D02*
G75*
G02*
X15055358Y-6307681I-20000J0D01*
G01*
X15055358Y-6307681D02*
G75*
G02*
X15095358Y-6307681I20000J0D01*
G01*
X15152593Y-6210902D02*
G75*
G02*
X15112593Y-6210902I-20000J0D01*
G01*
X15112593Y-6210902D02*
G75*
G02*
X15152593Y-6210902I20000J0D01*
G01*
X17033831Y-13857532D02*
G75*
G02*
X16993831Y-13857532I-20000J0D01*
G01*
X16993831Y-13857532D02*
G75*
G02*
X17033831Y-13857532I20000J0D01*
G01*
X17095946Y-16015782D02*
G75*
G02*
X17055946Y-16015782I-20000J0D01*
G01*
X17055946Y-16015782D02*
G75*
G02*
X17095946Y-16015782I20000J0D01*
G01*
X17100800Y-6082973D02*
G75*
G02*
X17060800Y-6082973I-20000J0D01*
G01*
X17060800Y-6082973D02*
G75*
G02*
X17100800Y-6082973I20000J0D01*
G01*
X17160000Y-15637000D02*
G75*
G02*
X17120000Y-15637000I-20000J0D01*
G01*
X17120000Y-15637000D02*
G75*
G02*
X17160000Y-15637000I20000J0D01*
G01*
X17255946Y-15850782D02*
G75*
G02*
X17215946Y-15850782I-20000J0D01*
G01*
X17215946Y-15850782D02*
G75*
G02*
X17255946Y-15850782I20000J0D01*
G01*
X17265800Y-6247973D02*
G75*
G02*
X17225800Y-6247973I-20000J0D01*
G01*
X17225800Y-6247973D02*
G75*
G02*
X17265800Y-6247973I20000J0D01*
G01*
X17447000Y-16634000D02*
G75*
G02*
X17407000Y-16634000I-20000J0D01*
G01*
X17407000Y-16634000D02*
G75*
G02*
X17447000Y-16634000I20000J0D01*
G01*
X17451257Y-13285461D02*
G75*
G02*
X17411257Y-13285461I-20000J0D01*
G01*
X17411257Y-13285461D02*
G75*
G02*
X17451257Y-13285461I20000J0D01*
G01*
X17462000Y-5890000D02*
G75*
G02*
X17422000Y-5890000I-20000J0D01*
G01*
X17422000Y-5890000D02*
G75*
G02*
X17462000Y-5890000I20000J0D01*
G01*
X17468678Y-5777500D02*
G75*
G02*
X17428678Y-5777500I-20000J0D01*
G01*
X17428678Y-5777500D02*
G75*
G02*
X17468678Y-5777500I20000J0D01*
G01*
X17609000Y-15856000D02*
G75*
G02*
X17569000Y-15856000I-20000J0D01*
G01*
X17569000Y-15856000D02*
G75*
G02*
X17609000Y-15856000I20000J0D01*
G01*
X17625000Y-16549000D02*
G75*
G02*
X17585000Y-16549000I-20000J0D01*
G01*
X17585000Y-16549000D02*
G75*
G02*
X17625000Y-16549000I20000J0D01*
G01*
X17628220Y-9681136D02*
G75*
G02*
X17588220Y-9681136I-20000J0D01*
G01*
X17588220Y-9681136D02*
G75*
G02*
X17628220Y-9681136I20000J0D01*
G01*
X17633846Y-15056589D02*
G75*
G02*
X17593846Y-15056589I-20000J0D01*
G01*
X17593846Y-15056589D02*
G75*
G02*
X17633846Y-15056589I20000J0D01*
G01*
X17729904Y-15845581D02*
G75*
G02*
X17689904Y-15845581I-20000J0D01*
G01*
X17689904Y-15845581D02*
G75*
G02*
X17729904Y-15845581I20000J0D01*
G01*
X17737124Y-9653174D02*
G75*
G02*
X17697124Y-9653174I-20000J0D01*
G01*
X17697124Y-9653174D02*
G75*
G02*
X17737124Y-9653174I20000J0D01*
G01*
X17738846Y-14851589D02*
G75*
G02*
X17698846Y-14851589I-20000J0D01*
G01*
X17698846Y-14851589D02*
G75*
G02*
X17738846Y-14851589I20000J0D01*
G01*
X17775000Y-16484000D02*
G75*
G02*
X17735000Y-16484000I-20000J0D01*
G01*
X17735000Y-16484000D02*
G75*
G02*
X17775000Y-16484000I20000J0D01*
G01*
X17829000Y-15859000D02*
G75*
G02*
X17789000Y-15859000I-20000J0D01*
G01*
X17789000Y-15859000D02*
G75*
G02*
X17829000Y-15859000I20000J0D01*
G01*
X17934181Y-9019694D02*
G75*
G02*
X17894181Y-9019694I-20000J0D01*
G01*
X17894181Y-9019694D02*
G75*
G02*
X17934181Y-9019694I20000J0D01*
G01*
X17948846Y-15386589D02*
G75*
G02*
X17908846Y-15386589I-20000J0D01*
G01*
X17908846Y-15386589D02*
G75*
G02*
X17948846Y-15386589I20000J0D01*
G01*
X17969500Y-5420000D02*
G75*
G02*
X17929500Y-5420000I-20000J0D01*
G01*
X17929500Y-5420000D02*
G75*
G02*
X17969500Y-5420000I20000J0D01*
G01*
X18024231Y-9287661D02*
G75*
G02*
X17984231Y-9287661I-20000J0D01*
G01*
X17984231Y-9287661D02*
G75*
G02*
X18024231Y-9287661I20000J0D01*
G01*
X18087000Y-5957000D02*
G75*
G02*
X18047000Y-5957000I-20000J0D01*
G01*
X18047000Y-5957000D02*
G75*
G02*
X18087000Y-5957000I20000J0D01*
G01*
X18399639Y-11071038D02*
G75*
G02*
X18359639Y-11071038I-20000J0D01*
G01*
X18359639Y-11071038D02*
G75*
G02*
X18399639Y-11071038I20000J0D01*
G01*
X18707000Y-11121843D02*
G75*
G02*
X18667000Y-11121843I-20000J0D01*
G01*
X18667000Y-11121843D02*
G75*
G02*
X18707000Y-11121843I20000J0D01*
G01*
X19029523Y-9266131D02*
G75*
G02*
X18989523Y-9266131I-20000J0D01*
G01*
X18989523Y-9266131D02*
G75*
G02*
X19029523Y-9266131I20000J0D01*
G01*
X19078000Y-9625000D02*
G75*
G02*
X19038000Y-9625000I-20000J0D01*
G01*
X19038000Y-9625000D02*
G75*
G02*
X19078000Y-9625000I20000J0D01*
G01*
X19133811Y-9297300D02*
G75*
G02*
X19093811Y-9297300I-20000J0D01*
G01*
X19093811Y-9297300D02*
G75*
G02*
X19133811Y-9297300I20000J0D01*
G01*
X19196989Y-11176663D02*
G75*
G02*
X19156989Y-11176663I-20000J0D01*
G01*
X19156989Y-11176663D02*
G75*
G02*
X19196989Y-11176663I20000J0D01*
G01*
X19206989Y-10936663D02*
G75*
G02*
X19166989Y-10936663I-20000J0D01*
G01*
X19166989Y-10936663D02*
G75*
G02*
X19206989Y-10936663I20000J0D01*
G01*
X19218000Y-9623000D02*
G75*
G02*
X19178000Y-9623000I-20000J0D01*
G01*
X19178000Y-9623000D02*
G75*
G02*
X19218000Y-9623000I20000J0D01*
G01*
X19244311Y-9180300D02*
G75*
G02*
X19204311Y-9180300I-20000J0D01*
G01*
X19204311Y-9180300D02*
G75*
G02*
X19244311Y-9180300I20000J0D01*
G01*
X19349311Y-9180300D02*
G75*
G02*
X19309311Y-9180300I-20000J0D01*
G01*
X19309311Y-9180300D02*
G75*
G02*
X19349311Y-9180300I20000J0D01*
G01*
X19465601Y-11667223D02*
G75*
G02*
X19425601Y-11667223I-20000J0D01*
G01*
X19425601Y-11667223D02*
G75*
G02*
X19465601Y-11667223I20000J0D01*
G01*
X18280995Y-8308083D02*
X18280995Y-8358083D01*
X18255995Y-8333083D02*
X18305995Y-8333083D01*
X18637059Y-7619793D02*
X18637059Y-7669793D01*
X18612059Y-7644793D02*
X18662059Y-7644793D01*
X18674811Y-9196300D02*
X18674811Y-9246300D01*
X18649811Y-9221300D02*
X18699811Y-9221300D01*
X18850874Y-8882200D02*
X18850874Y-8932200D01*
X18825874Y-8907200D02*
X18875874Y-8907200D01*
X18971811Y-7718300D02*
X18971811Y-7768300D01*
X18946811Y-7743300D02*
X18996811Y-7743300D01*
X19120068Y-9124759D02*
X19120068Y-9174759D01*
X19095068Y-9149759D02*
X19145068Y-9149759D01*
X19127811Y-8131300D02*
X19127811Y-8181300D01*
X19102811Y-8156300D02*
X19152811Y-8156300D01*
X19284307Y-8362623D02*
X19284307Y-8412623D01*
X19259307Y-8387623D02*
X19309307Y-8387623D01*
X17637117Y-6994782D02*
X17637117Y-6952355D01*
X17594691Y-6952355D01*
X17594691Y-6994782D01*
X17637117Y-6994782D01*
D13*
X18000100Y-14547074D02*
X18059600Y-14487574D01*
X18000100Y-14428074D01*
X17940600Y-14487574D01*
X18000100Y-14547074D01*
X18107445Y-14316871D02*
X18166945Y-14257371D01*
X18107445Y-14197871D01*
X18047945Y-14257371D01*
X18107445Y-14316871D01*
X18214790Y-14086669D02*
X18274290Y-14027169D01*
X18214790Y-13967669D01*
X18155290Y-14027169D01*
X18214790Y-14086669D01*
X18322135Y-13856467D02*
X18381635Y-13796967D01*
X18322135Y-13737467D01*
X18262635Y-13796967D01*
X18322135Y-13856467D01*
X18429480Y-13626265D02*
X18488980Y-13566765D01*
X18429480Y-13507265D01*
X18369980Y-13566765D01*
X18429480Y-13626265D01*
X18536825Y-13396063D02*
X18596325Y-13336563D01*
X18536825Y-13277063D01*
X18477325Y-13336563D01*
X18536825Y-13396063D01*
D10*
X4027946Y-19865827D02*
X4027946Y-19665827D01*
X4027946Y-19665827D02*
X4075565Y-19665827D01*
X4075565Y-19665827D02*
X4104136Y-19675350D01*
X4104136Y-19675350D02*
X4123184Y-19694398D01*
X4123184Y-19694398D02*
X4132708Y-19713446D01*
X4132708Y-19713446D02*
X4142232Y-19751541D01*
X4142232Y-19751541D02*
X4142232Y-19780112D01*
X4142232Y-19780112D02*
X4132708Y-19818208D01*
X4132708Y-19818208D02*
X4123184Y-19837255D01*
X4123184Y-19837255D02*
X4104136Y-19856303D01*
X4104136Y-19856303D02*
X4075565Y-19865827D01*
X4075565Y-19865827D02*
X4027946Y-19865827D01*
X4227946Y-19865827D02*
X4227946Y-19732493D01*
X4227946Y-19770589D02*
X4237470Y-19751541D01*
X4237470Y-19751541D02*
X4246994Y-19742017D01*
X4246994Y-19742017D02*
X4266041Y-19732493D01*
X4266041Y-19732493D02*
X4285089Y-19732493D01*
X4351755Y-19865827D02*
X4351755Y-19732493D01*
X4351755Y-19665827D02*
X4342232Y-19675350D01*
X4342232Y-19675350D02*
X4351755Y-19684874D01*
X4351755Y-19684874D02*
X4361279Y-19675350D01*
X4361279Y-19675350D02*
X4351755Y-19665827D01*
X4351755Y-19665827D02*
X4351755Y-19684874D01*
X4475565Y-19865827D02*
X4456517Y-19856303D01*
X4456517Y-19856303D02*
X4446994Y-19837255D01*
X4446994Y-19837255D02*
X4446994Y-19665827D01*
X4580327Y-19865827D02*
X4561279Y-19856303D01*
X4561279Y-19856303D02*
X4551755Y-19837255D01*
X4551755Y-19837255D02*
X4551755Y-19665827D01*
X4808898Y-19865827D02*
X4808898Y-19665827D01*
X4808898Y-19665827D02*
X4875565Y-19808684D01*
X4875565Y-19808684D02*
X4942232Y-19665827D01*
X4942232Y-19665827D02*
X4942232Y-19865827D01*
X5123184Y-19865827D02*
X5123184Y-19761065D01*
X5123184Y-19761065D02*
X5113660Y-19742017D01*
X5113660Y-19742017D02*
X5094613Y-19732493D01*
X5094613Y-19732493D02*
X5056517Y-19732493D01*
X5056517Y-19732493D02*
X5037470Y-19742017D01*
X5123184Y-19856303D02*
X5104136Y-19865827D01*
X5104136Y-19865827D02*
X5056517Y-19865827D01*
X5056517Y-19865827D02*
X5037470Y-19856303D01*
X5037470Y-19856303D02*
X5027946Y-19837255D01*
X5027946Y-19837255D02*
X5027946Y-19818208D01*
X5027946Y-19818208D02*
X5037470Y-19799160D01*
X5037470Y-19799160D02*
X5056517Y-19789636D01*
X5056517Y-19789636D02*
X5104136Y-19789636D01*
X5104136Y-19789636D02*
X5123184Y-19780112D01*
X5218422Y-19732493D02*
X5218422Y-19932493D01*
X5218422Y-19742017D02*
X5237470Y-19732493D01*
X5237470Y-19732493D02*
X5275565Y-19732493D01*
X5275565Y-19732493D02*
X5294613Y-19742017D01*
X5294613Y-19742017D02*
X5304136Y-19751541D01*
X5304136Y-19751541D02*
X5313660Y-19770589D01*
X5313660Y-19770589D02*
X5313660Y-19827731D01*
X5313660Y-19827731D02*
X5304136Y-19846779D01*
X5304136Y-19846779D02*
X5294613Y-19856303D01*
X5294613Y-19856303D02*
X5275565Y-19865827D01*
X5275565Y-19865827D02*
X5237470Y-19865827D01*
X5237470Y-19865827D02*
X5218422Y-19856303D01*
X5399375Y-19846779D02*
X5408898Y-19856303D01*
X5408898Y-19856303D02*
X5399375Y-19865827D01*
X5399375Y-19865827D02*
X5389851Y-19856303D01*
X5389851Y-19856303D02*
X5399375Y-19846779D01*
X5399375Y-19846779D02*
X5399375Y-19865827D01*
X5399375Y-19742017D02*
X5408898Y-19751541D01*
X5408898Y-19751541D02*
X5399375Y-19761065D01*
X5399375Y-19761065D02*
X5389851Y-19751541D01*
X5389851Y-19751541D02*
X5399375Y-19742017D01*
X5399375Y-19742017D02*
X5399375Y-19761065D01*
D12*
X3737169Y-20179343D02*
X3767169Y-20209343D01*
X3767169Y-20179343D02*
X3737169Y-20209343D01*
D10*
X4066041Y-20085827D02*
X4085089Y-20085827D01*
X4085089Y-20085827D02*
X4104136Y-20095350D01*
X4104136Y-20095350D02*
X4113660Y-20104874D01*
X4113660Y-20104874D02*
X4123184Y-20123922D01*
X4123184Y-20123922D02*
X4132708Y-20162017D01*
X4132708Y-20162017D02*
X4132708Y-20209636D01*
X4132708Y-20209636D02*
X4123184Y-20247731D01*
X4123184Y-20247731D02*
X4113660Y-20266779D01*
X4113660Y-20266779D02*
X4104136Y-20276303D01*
X4104136Y-20276303D02*
X4085089Y-20285827D01*
X4085089Y-20285827D02*
X4066041Y-20285827D01*
X4066041Y-20285827D02*
X4046993Y-20276303D01*
X4046993Y-20276303D02*
X4037470Y-20266779D01*
X4037470Y-20266779D02*
X4027946Y-20247731D01*
X4027946Y-20247731D02*
X4018422Y-20209636D01*
X4018422Y-20209636D02*
X4018422Y-20162017D01*
X4018422Y-20162017D02*
X4027946Y-20123922D01*
X4027946Y-20123922D02*
X4037470Y-20104874D01*
X4037470Y-20104874D02*
X4046993Y-20095350D01*
X4046993Y-20095350D02*
X4066041Y-20085827D01*
X4218422Y-20266779D02*
X4227946Y-20276303D01*
X4227946Y-20276303D02*
X4218422Y-20285827D01*
X4218422Y-20285827D02*
X4208898Y-20276303D01*
X4208898Y-20276303D02*
X4218422Y-20266779D01*
X4218422Y-20266779D02*
X4218422Y-20285827D01*
X4294613Y-20085827D02*
X4418422Y-20085827D01*
X4418422Y-20085827D02*
X4351755Y-20162017D01*
X4351755Y-20162017D02*
X4380327Y-20162017D01*
X4380327Y-20162017D02*
X4399375Y-20171541D01*
X4399375Y-20171541D02*
X4408898Y-20181065D01*
X4408898Y-20181065D02*
X4418422Y-20200112D01*
X4418422Y-20200112D02*
X4418422Y-20247731D01*
X4418422Y-20247731D02*
X4408898Y-20266779D01*
X4408898Y-20266779D02*
X4399375Y-20276303D01*
X4399375Y-20276303D02*
X4380327Y-20285827D01*
X4380327Y-20285827D02*
X4323184Y-20285827D01*
X4323184Y-20285827D02*
X4304136Y-20276303D01*
X4304136Y-20276303D02*
X4294613Y-20266779D01*
X4542232Y-20085827D02*
X4561279Y-20085827D01*
X4561279Y-20085827D02*
X4580327Y-20095350D01*
X4580327Y-20095350D02*
X4589851Y-20104874D01*
X4589851Y-20104874D02*
X4599375Y-20123922D01*
X4599375Y-20123922D02*
X4608898Y-20162017D01*
X4608898Y-20162017D02*
X4608898Y-20209636D01*
X4608898Y-20209636D02*
X4599375Y-20247731D01*
X4599375Y-20247731D02*
X4589851Y-20266779D01*
X4589851Y-20266779D02*
X4580327Y-20276303D01*
X4580327Y-20276303D02*
X4561279Y-20285827D01*
X4561279Y-20285827D02*
X4542232Y-20285827D01*
X4542232Y-20285827D02*
X4523184Y-20276303D01*
X4523184Y-20276303D02*
X4513660Y-20266779D01*
X4513660Y-20266779D02*
X4504136Y-20247731D01*
X4504136Y-20247731D02*
X4494613Y-20209636D01*
X4494613Y-20209636D02*
X4494613Y-20162017D01*
X4494613Y-20162017D02*
X4504136Y-20123922D01*
X4504136Y-20123922D02*
X4513660Y-20104874D01*
X4513660Y-20104874D02*
X4523184Y-20095350D01*
X4523184Y-20095350D02*
X4542232Y-20085827D01*
X4732708Y-20085827D02*
X4751756Y-20085827D01*
X4751756Y-20085827D02*
X4770803Y-20095350D01*
X4770803Y-20095350D02*
X4780327Y-20104874D01*
X4780327Y-20104874D02*
X4789851Y-20123922D01*
X4789851Y-20123922D02*
X4799375Y-20162017D01*
X4799375Y-20162017D02*
X4799375Y-20209636D01*
X4799375Y-20209636D02*
X4789851Y-20247731D01*
X4789851Y-20247731D02*
X4780327Y-20266779D01*
X4780327Y-20266779D02*
X4770803Y-20276303D01*
X4770803Y-20276303D02*
X4751756Y-20285827D01*
X4751756Y-20285827D02*
X4732708Y-20285827D01*
X4732708Y-20285827D02*
X4713660Y-20276303D01*
X4713660Y-20276303D02*
X4704136Y-20266779D01*
X4704136Y-20266779D02*
X4694613Y-20247731D01*
X4694613Y-20247731D02*
X4685089Y-20209636D01*
X4685089Y-20209636D02*
X4685089Y-20162017D01*
X4685089Y-20162017D02*
X4694613Y-20123922D01*
X4694613Y-20123922D02*
X4704136Y-20104874D01*
X4704136Y-20104874D02*
X4713660Y-20095350D01*
X4713660Y-20095350D02*
X4732708Y-20085827D01*
X4885089Y-20285827D02*
X4885089Y-20152493D01*
X4885089Y-20171541D02*
X4894613Y-20162017D01*
X4894613Y-20162017D02*
X4913660Y-20152493D01*
X4913660Y-20152493D02*
X4942232Y-20152493D01*
X4942232Y-20152493D02*
X4961279Y-20162017D01*
X4961279Y-20162017D02*
X4970803Y-20181065D01*
X4970803Y-20181065D02*
X4970803Y-20285827D01*
X4970803Y-20181065D02*
X4980327Y-20162017D01*
X4980327Y-20162017D02*
X4999375Y-20152493D01*
X4999375Y-20152493D02*
X5027946Y-20152493D01*
X5027946Y-20152493D02*
X5046994Y-20162017D01*
X5046994Y-20162017D02*
X5056517Y-20181065D01*
X5056517Y-20181065D02*
X5056517Y-20285827D01*
X5151756Y-20285827D02*
X5151756Y-20152493D01*
X5151756Y-20171541D02*
X5161279Y-20162017D01*
X5161279Y-20162017D02*
X5180327Y-20152493D01*
X5180327Y-20152493D02*
X5208898Y-20152493D01*
X5208898Y-20152493D02*
X5227946Y-20162017D01*
X5227946Y-20162017D02*
X5237470Y-20181065D01*
X5237470Y-20181065D02*
X5237470Y-20285827D01*
X5237470Y-20181065D02*
X5246994Y-20162017D01*
X5246994Y-20162017D02*
X5266041Y-20152493D01*
X5266041Y-20152493D02*
X5294613Y-20152493D01*
X5294613Y-20152493D02*
X5313660Y-20162017D01*
X5313660Y-20162017D02*
X5323184Y-20181065D01*
X5323184Y-20181065D02*
X5323184Y-20285827D01*
X5713660Y-20076303D02*
X5542232Y-20333446D01*
X5970803Y-20085827D02*
X5989851Y-20085827D01*
X5989851Y-20085827D02*
X6008898Y-20095350D01*
X6008898Y-20095350D02*
X6018422Y-20104874D01*
X6018422Y-20104874D02*
X6027946Y-20123922D01*
X6027946Y-20123922D02*
X6037470Y-20162017D01*
X6037470Y-20162017D02*
X6037470Y-20209636D01*
X6037470Y-20209636D02*
X6027946Y-20247731D01*
X6027946Y-20247731D02*
X6018422Y-20266779D01*
X6018422Y-20266779D02*
X6008898Y-20276303D01*
X6008898Y-20276303D02*
X5989851Y-20285827D01*
X5989851Y-20285827D02*
X5970803Y-20285827D01*
X5970803Y-20285827D02*
X5951756Y-20276303D01*
X5951756Y-20276303D02*
X5942232Y-20266779D01*
X5942232Y-20266779D02*
X5932708Y-20247731D01*
X5932708Y-20247731D02*
X5923184Y-20209636D01*
X5923184Y-20209636D02*
X5923184Y-20162017D01*
X5923184Y-20162017D02*
X5932708Y-20123922D01*
X5932708Y-20123922D02*
X5942232Y-20104874D01*
X5942232Y-20104874D02*
X5951756Y-20095350D01*
X5951756Y-20095350D02*
X5970803Y-20085827D01*
X6123184Y-20266779D02*
X6132708Y-20276303D01*
X6132708Y-20276303D02*
X6123184Y-20285827D01*
X6123184Y-20285827D02*
X6113660Y-20276303D01*
X6113660Y-20276303D02*
X6123184Y-20266779D01*
X6123184Y-20266779D02*
X6123184Y-20285827D01*
X6256517Y-20085827D02*
X6275565Y-20085827D01*
X6275565Y-20085827D02*
X6294613Y-20095350D01*
X6294613Y-20095350D02*
X6304137Y-20104874D01*
X6304137Y-20104874D02*
X6313660Y-20123922D01*
X6313660Y-20123922D02*
X6323184Y-20162017D01*
X6323184Y-20162017D02*
X6323184Y-20209636D01*
X6323184Y-20209636D02*
X6313660Y-20247731D01*
X6313660Y-20247731D02*
X6304137Y-20266779D01*
X6304137Y-20266779D02*
X6294613Y-20276303D01*
X6294613Y-20276303D02*
X6275565Y-20285827D01*
X6275565Y-20285827D02*
X6256517Y-20285827D01*
X6256517Y-20285827D02*
X6237470Y-20276303D01*
X6237470Y-20276303D02*
X6227946Y-20266779D01*
X6227946Y-20266779D02*
X6218422Y-20247731D01*
X6218422Y-20247731D02*
X6208898Y-20209636D01*
X6208898Y-20209636D02*
X6208898Y-20162017D01*
X6208898Y-20162017D02*
X6218422Y-20123922D01*
X6218422Y-20123922D02*
X6227946Y-20104874D01*
X6227946Y-20104874D02*
X6237470Y-20095350D01*
X6237470Y-20095350D02*
X6256517Y-20085827D01*
X6513660Y-20285827D02*
X6399375Y-20285827D01*
X6456517Y-20285827D02*
X6456517Y-20085827D01*
X6456517Y-20085827D02*
X6437470Y-20114398D01*
X6437470Y-20114398D02*
X6418422Y-20133446D01*
X6418422Y-20133446D02*
X6399375Y-20142969D01*
X6704137Y-20285827D02*
X6589851Y-20285827D01*
X6646994Y-20285827D02*
X6646994Y-20085827D01*
X6646994Y-20085827D02*
X6627946Y-20114398D01*
X6627946Y-20114398D02*
X6608898Y-20133446D01*
X6608898Y-20133446D02*
X6589851Y-20142969D01*
X6818422Y-20171541D02*
X6799375Y-20162017D01*
X6799375Y-20162017D02*
X6789851Y-20152493D01*
X6789851Y-20152493D02*
X6780327Y-20133446D01*
X6780327Y-20133446D02*
X6780327Y-20123922D01*
X6780327Y-20123922D02*
X6789851Y-20104874D01*
X6789851Y-20104874D02*
X6799375Y-20095350D01*
X6799375Y-20095350D02*
X6818422Y-20085827D01*
X6818422Y-20085827D02*
X6856518Y-20085827D01*
X6856518Y-20085827D02*
X6875565Y-20095350D01*
X6875565Y-20095350D02*
X6885089Y-20104874D01*
X6885089Y-20104874D02*
X6894613Y-20123922D01*
X6894613Y-20123922D02*
X6894613Y-20133446D01*
X6894613Y-20133446D02*
X6885089Y-20152493D01*
X6885089Y-20152493D02*
X6875565Y-20162017D01*
X6875565Y-20162017D02*
X6856518Y-20171541D01*
X6856518Y-20171541D02*
X6818422Y-20171541D01*
X6818422Y-20171541D02*
X6799375Y-20181065D01*
X6799375Y-20181065D02*
X6789851Y-20190589D01*
X6789851Y-20190589D02*
X6780327Y-20209636D01*
X6780327Y-20209636D02*
X6780327Y-20247731D01*
X6780327Y-20247731D02*
X6789851Y-20266779D01*
X6789851Y-20266779D02*
X6799375Y-20276303D01*
X6799375Y-20276303D02*
X6818422Y-20285827D01*
X6818422Y-20285827D02*
X6856518Y-20285827D01*
X6856518Y-20285827D02*
X6875565Y-20276303D01*
X6875565Y-20276303D02*
X6885089Y-20266779D01*
X6885089Y-20266779D02*
X6894613Y-20247731D01*
X6894613Y-20247731D02*
X6894613Y-20209636D01*
X6894613Y-20209636D02*
X6885089Y-20190589D01*
X6885089Y-20190589D02*
X6875565Y-20181065D01*
X6875565Y-20181065D02*
X6856518Y-20171541D01*
X6970803Y-20085827D02*
X6970803Y-20123922D01*
X7046994Y-20085827D02*
X7046994Y-20123922D01*
X7342232Y-20362017D02*
X7332708Y-20352493D01*
X7332708Y-20352493D02*
X7313660Y-20323922D01*
X7313660Y-20323922D02*
X7304137Y-20304874D01*
X7304137Y-20304874D02*
X7294613Y-20276303D01*
X7294613Y-20276303D02*
X7285089Y-20228684D01*
X7285089Y-20228684D02*
X7285089Y-20190589D01*
X7285089Y-20190589D02*
X7294613Y-20142969D01*
X7294613Y-20142969D02*
X7304137Y-20114398D01*
X7304137Y-20114398D02*
X7313660Y-20095350D01*
X7313660Y-20095350D02*
X7332708Y-20066779D01*
X7332708Y-20066779D02*
X7342232Y-20057255D01*
X7427946Y-20285827D02*
X7466041Y-20285827D01*
X7466041Y-20285827D02*
X7485089Y-20276303D01*
X7485089Y-20276303D02*
X7494613Y-20266779D01*
X7494613Y-20266779D02*
X7513660Y-20238208D01*
X7513660Y-20238208D02*
X7523184Y-20200112D01*
X7523184Y-20200112D02*
X7523184Y-20123922D01*
X7523184Y-20123922D02*
X7513660Y-20104874D01*
X7513660Y-20104874D02*
X7504137Y-20095350D01*
X7504137Y-20095350D02*
X7485089Y-20085827D01*
X7485089Y-20085827D02*
X7446994Y-20085827D01*
X7446994Y-20085827D02*
X7427946Y-20095350D01*
X7427946Y-20095350D02*
X7418422Y-20104874D01*
X7418422Y-20104874D02*
X7408899Y-20123922D01*
X7408899Y-20123922D02*
X7408899Y-20171541D01*
X7408899Y-20171541D02*
X7418422Y-20190589D01*
X7418422Y-20190589D02*
X7427946Y-20200112D01*
X7427946Y-20200112D02*
X7446994Y-20209636D01*
X7446994Y-20209636D02*
X7485089Y-20209636D01*
X7485089Y-20209636D02*
X7504137Y-20200112D01*
X7504137Y-20200112D02*
X7513660Y-20190589D01*
X7513660Y-20190589D02*
X7523184Y-20171541D01*
X7761280Y-20285827D02*
X7761280Y-20085827D01*
X7846994Y-20285827D02*
X7846994Y-20181065D01*
X7846994Y-20181065D02*
X7837470Y-20162017D01*
X7837470Y-20162017D02*
X7818422Y-20152493D01*
X7818422Y-20152493D02*
X7789851Y-20152493D01*
X7789851Y-20152493D02*
X7770803Y-20162017D01*
X7770803Y-20162017D02*
X7761280Y-20171541D01*
X7970803Y-20285827D02*
X7951756Y-20276303D01*
X7951756Y-20276303D02*
X7942232Y-20266779D01*
X7942232Y-20266779D02*
X7932708Y-20247731D01*
X7932708Y-20247731D02*
X7932708Y-20190589D01*
X7932708Y-20190589D02*
X7942232Y-20171541D01*
X7942232Y-20171541D02*
X7951756Y-20162017D01*
X7951756Y-20162017D02*
X7970803Y-20152493D01*
X7970803Y-20152493D02*
X7999375Y-20152493D01*
X7999375Y-20152493D02*
X8018422Y-20162017D01*
X8018422Y-20162017D02*
X8027946Y-20171541D01*
X8027946Y-20171541D02*
X8037470Y-20190589D01*
X8037470Y-20190589D02*
X8037470Y-20247731D01*
X8037470Y-20247731D02*
X8027946Y-20266779D01*
X8027946Y-20266779D02*
X8018422Y-20276303D01*
X8018422Y-20276303D02*
X7999375Y-20285827D01*
X7999375Y-20285827D02*
X7970803Y-20285827D01*
X8151756Y-20285827D02*
X8132708Y-20276303D01*
X8132708Y-20276303D02*
X8123184Y-20257255D01*
X8123184Y-20257255D02*
X8123184Y-20085827D01*
X8304137Y-20276303D02*
X8285089Y-20285827D01*
X8285089Y-20285827D02*
X8246994Y-20285827D01*
X8246994Y-20285827D02*
X8227946Y-20276303D01*
X8227946Y-20276303D02*
X8218422Y-20257255D01*
X8218422Y-20257255D02*
X8218422Y-20181065D01*
X8218422Y-20181065D02*
X8227946Y-20162017D01*
X8227946Y-20162017D02*
X8246994Y-20152493D01*
X8246994Y-20152493D02*
X8285089Y-20152493D01*
X8285089Y-20152493D02*
X8304137Y-20162017D01*
X8304137Y-20162017D02*
X8313661Y-20181065D01*
X8313661Y-20181065D02*
X8313661Y-20200112D01*
X8313661Y-20200112D02*
X8218422Y-20219160D01*
X8389851Y-20276303D02*
X8408899Y-20285827D01*
X8408899Y-20285827D02*
X8446994Y-20285827D01*
X8446994Y-20285827D02*
X8466042Y-20276303D01*
X8466042Y-20276303D02*
X8475565Y-20257255D01*
X8475565Y-20257255D02*
X8475565Y-20247731D01*
X8475565Y-20247731D02*
X8466042Y-20228684D01*
X8466042Y-20228684D02*
X8446994Y-20219160D01*
X8446994Y-20219160D02*
X8418423Y-20219160D01*
X8418423Y-20219160D02*
X8399375Y-20209636D01*
X8399375Y-20209636D02*
X8389851Y-20190589D01*
X8389851Y-20190589D02*
X8389851Y-20181065D01*
X8389851Y-20181065D02*
X8399375Y-20162017D01*
X8399375Y-20162017D02*
X8418423Y-20152493D01*
X8418423Y-20152493D02*
X8446994Y-20152493D01*
X8446994Y-20152493D02*
X8466042Y-20162017D01*
X8542232Y-20362017D02*
X8551756Y-20352493D01*
X8551756Y-20352493D02*
X8570804Y-20323922D01*
X8570804Y-20323922D02*
X8580327Y-20304874D01*
X8580327Y-20304874D02*
X8589851Y-20276303D01*
X8589851Y-20276303D02*
X8599375Y-20228684D01*
X8599375Y-20228684D02*
X8599375Y-20190589D01*
X8599375Y-20190589D02*
X8589851Y-20142969D01*
X8589851Y-20142969D02*
X8580327Y-20114398D01*
X8580327Y-20114398D02*
X8570804Y-20095350D01*
X8570804Y-20095350D02*
X8551756Y-20066779D01*
X8551756Y-20066779D02*
X8542232Y-20057255D01*
D12*
X3767169Y-20458343D02*
G75*
G02*
X3727169Y-20458343I-20000J0D01*
G01*
X3727169Y-20458343D02*
G75*
G02*
X3767169Y-20458343I20000J0D01*
G01*
D10*
X4066041Y-20349827D02*
X4085089Y-20349827D01*
X4085089Y-20349827D02*
X4104136Y-20359350D01*
X4104136Y-20359350D02*
X4113660Y-20368874D01*
X4113660Y-20368874D02*
X4123184Y-20387922D01*
X4123184Y-20387922D02*
X4132708Y-20426017D01*
X4132708Y-20426017D02*
X4132708Y-20473636D01*
X4132708Y-20473636D02*
X4123184Y-20511731D01*
X4123184Y-20511731D02*
X4113660Y-20530779D01*
X4113660Y-20530779D02*
X4104136Y-20540303D01*
X4104136Y-20540303D02*
X4085089Y-20549827D01*
X4085089Y-20549827D02*
X4066041Y-20549827D01*
X4066041Y-20549827D02*
X4046993Y-20540303D01*
X4046993Y-20540303D02*
X4037470Y-20530779D01*
X4037470Y-20530779D02*
X4027946Y-20511731D01*
X4027946Y-20511731D02*
X4018422Y-20473636D01*
X4018422Y-20473636D02*
X4018422Y-20426017D01*
X4018422Y-20426017D02*
X4027946Y-20387922D01*
X4027946Y-20387922D02*
X4037470Y-20368874D01*
X4037470Y-20368874D02*
X4046993Y-20359350D01*
X4046993Y-20359350D02*
X4066041Y-20349827D01*
X4218422Y-20530779D02*
X4227946Y-20540303D01*
X4227946Y-20540303D02*
X4218422Y-20549827D01*
X4218422Y-20549827D02*
X4208898Y-20540303D01*
X4208898Y-20540303D02*
X4218422Y-20530779D01*
X4218422Y-20530779D02*
X4218422Y-20549827D01*
X4399375Y-20416493D02*
X4399375Y-20549827D01*
X4351755Y-20340303D02*
X4304136Y-20483160D01*
X4304136Y-20483160D02*
X4427946Y-20483160D01*
X4542232Y-20349827D02*
X4561279Y-20349827D01*
X4561279Y-20349827D02*
X4580327Y-20359350D01*
X4580327Y-20359350D02*
X4589851Y-20368874D01*
X4589851Y-20368874D02*
X4599375Y-20387922D01*
X4599375Y-20387922D02*
X4608898Y-20426017D01*
X4608898Y-20426017D02*
X4608898Y-20473636D01*
X4608898Y-20473636D02*
X4599375Y-20511731D01*
X4599375Y-20511731D02*
X4589851Y-20530779D01*
X4589851Y-20530779D02*
X4580327Y-20540303D01*
X4580327Y-20540303D02*
X4561279Y-20549827D01*
X4561279Y-20549827D02*
X4542232Y-20549827D01*
X4542232Y-20549827D02*
X4523184Y-20540303D01*
X4523184Y-20540303D02*
X4513660Y-20530779D01*
X4513660Y-20530779D02*
X4504136Y-20511731D01*
X4504136Y-20511731D02*
X4494613Y-20473636D01*
X4494613Y-20473636D02*
X4494613Y-20426017D01*
X4494613Y-20426017D02*
X4504136Y-20387922D01*
X4504136Y-20387922D02*
X4513660Y-20368874D01*
X4513660Y-20368874D02*
X4523184Y-20359350D01*
X4523184Y-20359350D02*
X4542232Y-20349827D01*
X4732708Y-20349827D02*
X4751756Y-20349827D01*
X4751756Y-20349827D02*
X4770803Y-20359350D01*
X4770803Y-20359350D02*
X4780327Y-20368874D01*
X4780327Y-20368874D02*
X4789851Y-20387922D01*
X4789851Y-20387922D02*
X4799375Y-20426017D01*
X4799375Y-20426017D02*
X4799375Y-20473636D01*
X4799375Y-20473636D02*
X4789851Y-20511731D01*
X4789851Y-20511731D02*
X4780327Y-20530779D01*
X4780327Y-20530779D02*
X4770803Y-20540303D01*
X4770803Y-20540303D02*
X4751756Y-20549827D01*
X4751756Y-20549827D02*
X4732708Y-20549827D01*
X4732708Y-20549827D02*
X4713660Y-20540303D01*
X4713660Y-20540303D02*
X4704136Y-20530779D01*
X4704136Y-20530779D02*
X4694613Y-20511731D01*
X4694613Y-20511731D02*
X4685089Y-20473636D01*
X4685089Y-20473636D02*
X4685089Y-20426017D01*
X4685089Y-20426017D02*
X4694613Y-20387922D01*
X4694613Y-20387922D02*
X4704136Y-20368874D01*
X4704136Y-20368874D02*
X4713660Y-20359350D01*
X4713660Y-20359350D02*
X4732708Y-20349827D01*
X4885089Y-20549827D02*
X4885089Y-20416493D01*
X4885089Y-20435541D02*
X4894613Y-20426017D01*
X4894613Y-20426017D02*
X4913660Y-20416493D01*
X4913660Y-20416493D02*
X4942232Y-20416493D01*
X4942232Y-20416493D02*
X4961279Y-20426017D01*
X4961279Y-20426017D02*
X4970803Y-20445065D01*
X4970803Y-20445065D02*
X4970803Y-20549827D01*
X4970803Y-20445065D02*
X4980327Y-20426017D01*
X4980327Y-20426017D02*
X4999375Y-20416493D01*
X4999375Y-20416493D02*
X5027946Y-20416493D01*
X5027946Y-20416493D02*
X5046994Y-20426017D01*
X5046994Y-20426017D02*
X5056517Y-20445065D01*
X5056517Y-20445065D02*
X5056517Y-20549827D01*
X5151756Y-20549827D02*
X5151756Y-20416493D01*
X5151756Y-20435541D02*
X5161279Y-20426017D01*
X5161279Y-20426017D02*
X5180327Y-20416493D01*
X5180327Y-20416493D02*
X5208898Y-20416493D01*
X5208898Y-20416493D02*
X5227946Y-20426017D01*
X5227946Y-20426017D02*
X5237470Y-20445065D01*
X5237470Y-20445065D02*
X5237470Y-20549827D01*
X5237470Y-20445065D02*
X5246994Y-20426017D01*
X5246994Y-20426017D02*
X5266041Y-20416493D01*
X5266041Y-20416493D02*
X5294613Y-20416493D01*
X5294613Y-20416493D02*
X5313660Y-20426017D01*
X5313660Y-20426017D02*
X5323184Y-20445065D01*
X5323184Y-20445065D02*
X5323184Y-20549827D01*
X5713660Y-20340303D02*
X5542232Y-20597446D01*
X5970803Y-20349827D02*
X5989851Y-20349827D01*
X5989851Y-20349827D02*
X6008898Y-20359350D01*
X6008898Y-20359350D02*
X6018422Y-20368874D01*
X6018422Y-20368874D02*
X6027946Y-20387922D01*
X6027946Y-20387922D02*
X6037470Y-20426017D01*
X6037470Y-20426017D02*
X6037470Y-20473636D01*
X6037470Y-20473636D02*
X6027946Y-20511731D01*
X6027946Y-20511731D02*
X6018422Y-20530779D01*
X6018422Y-20530779D02*
X6008898Y-20540303D01*
X6008898Y-20540303D02*
X5989851Y-20549827D01*
X5989851Y-20549827D02*
X5970803Y-20549827D01*
X5970803Y-20549827D02*
X5951756Y-20540303D01*
X5951756Y-20540303D02*
X5942232Y-20530779D01*
X5942232Y-20530779D02*
X5932708Y-20511731D01*
X5932708Y-20511731D02*
X5923184Y-20473636D01*
X5923184Y-20473636D02*
X5923184Y-20426017D01*
X5923184Y-20426017D02*
X5932708Y-20387922D01*
X5932708Y-20387922D02*
X5942232Y-20368874D01*
X5942232Y-20368874D02*
X5951756Y-20359350D01*
X5951756Y-20359350D02*
X5970803Y-20349827D01*
X6123184Y-20530779D02*
X6132708Y-20540303D01*
X6132708Y-20540303D02*
X6123184Y-20549827D01*
X6123184Y-20549827D02*
X6113660Y-20540303D01*
X6113660Y-20540303D02*
X6123184Y-20530779D01*
X6123184Y-20530779D02*
X6123184Y-20549827D01*
X6256517Y-20349827D02*
X6275565Y-20349827D01*
X6275565Y-20349827D02*
X6294613Y-20359350D01*
X6294613Y-20359350D02*
X6304137Y-20368874D01*
X6304137Y-20368874D02*
X6313660Y-20387922D01*
X6313660Y-20387922D02*
X6323184Y-20426017D01*
X6323184Y-20426017D02*
X6323184Y-20473636D01*
X6323184Y-20473636D02*
X6313660Y-20511731D01*
X6313660Y-20511731D02*
X6304137Y-20530779D01*
X6304137Y-20530779D02*
X6294613Y-20540303D01*
X6294613Y-20540303D02*
X6275565Y-20549827D01*
X6275565Y-20549827D02*
X6256517Y-20549827D01*
X6256517Y-20549827D02*
X6237470Y-20540303D01*
X6237470Y-20540303D02*
X6227946Y-20530779D01*
X6227946Y-20530779D02*
X6218422Y-20511731D01*
X6218422Y-20511731D02*
X6208898Y-20473636D01*
X6208898Y-20473636D02*
X6208898Y-20426017D01*
X6208898Y-20426017D02*
X6218422Y-20387922D01*
X6218422Y-20387922D02*
X6227946Y-20368874D01*
X6227946Y-20368874D02*
X6237470Y-20359350D01*
X6237470Y-20359350D02*
X6256517Y-20349827D01*
X6513660Y-20549827D02*
X6399375Y-20549827D01*
X6456517Y-20549827D02*
X6456517Y-20349827D01*
X6456517Y-20349827D02*
X6437470Y-20378398D01*
X6437470Y-20378398D02*
X6418422Y-20397446D01*
X6418422Y-20397446D02*
X6399375Y-20406969D01*
X6694613Y-20349827D02*
X6599375Y-20349827D01*
X6599375Y-20349827D02*
X6589851Y-20445065D01*
X6589851Y-20445065D02*
X6599375Y-20435541D01*
X6599375Y-20435541D02*
X6618422Y-20426017D01*
X6618422Y-20426017D02*
X6666041Y-20426017D01*
X6666041Y-20426017D02*
X6685089Y-20435541D01*
X6685089Y-20435541D02*
X6694613Y-20445065D01*
X6694613Y-20445065D02*
X6704137Y-20464112D01*
X6704137Y-20464112D02*
X6704137Y-20511731D01*
X6704137Y-20511731D02*
X6694613Y-20530779D01*
X6694613Y-20530779D02*
X6685089Y-20540303D01*
X6685089Y-20540303D02*
X6666041Y-20549827D01*
X6666041Y-20549827D02*
X6618422Y-20549827D01*
X6618422Y-20549827D02*
X6599375Y-20540303D01*
X6599375Y-20540303D02*
X6589851Y-20530779D01*
X6770803Y-20349827D02*
X6904137Y-20349827D01*
X6904137Y-20349827D02*
X6818422Y-20549827D01*
X6970803Y-20349827D02*
X6970803Y-20387922D01*
X7046994Y-20349827D02*
X7046994Y-20387922D01*
X7342232Y-20626017D02*
X7332708Y-20616493D01*
X7332708Y-20616493D02*
X7313660Y-20587922D01*
X7313660Y-20587922D02*
X7304137Y-20568874D01*
X7304137Y-20568874D02*
X7294613Y-20540303D01*
X7294613Y-20540303D02*
X7285089Y-20492684D01*
X7285089Y-20492684D02*
X7285089Y-20454589D01*
X7285089Y-20454589D02*
X7294613Y-20406969D01*
X7294613Y-20406969D02*
X7304137Y-20378398D01*
X7304137Y-20378398D02*
X7313660Y-20359350D01*
X7313660Y-20359350D02*
X7332708Y-20330779D01*
X7332708Y-20330779D02*
X7342232Y-20321255D01*
X7504137Y-20349827D02*
X7466041Y-20349827D01*
X7466041Y-20349827D02*
X7446994Y-20359350D01*
X7446994Y-20359350D02*
X7437470Y-20368874D01*
X7437470Y-20368874D02*
X7418422Y-20397446D01*
X7418422Y-20397446D02*
X7408899Y-20435541D01*
X7408899Y-20435541D02*
X7408899Y-20511731D01*
X7408899Y-20511731D02*
X7418422Y-20530779D01*
X7418422Y-20530779D02*
X7427946Y-20540303D01*
X7427946Y-20540303D02*
X7446994Y-20549827D01*
X7446994Y-20549827D02*
X7485089Y-20549827D01*
X7485089Y-20549827D02*
X7504137Y-20540303D01*
X7504137Y-20540303D02*
X7513660Y-20530779D01*
X7513660Y-20530779D02*
X7523184Y-20511731D01*
X7523184Y-20511731D02*
X7523184Y-20464112D01*
X7523184Y-20464112D02*
X7513660Y-20445065D01*
X7513660Y-20445065D02*
X7504137Y-20435541D01*
X7504137Y-20435541D02*
X7485089Y-20426017D01*
X7485089Y-20426017D02*
X7446994Y-20426017D01*
X7446994Y-20426017D02*
X7427946Y-20435541D01*
X7427946Y-20435541D02*
X7418422Y-20445065D01*
X7418422Y-20445065D02*
X7408899Y-20464112D01*
X7694613Y-20416493D02*
X7694613Y-20549827D01*
X7646994Y-20340303D02*
X7599375Y-20483160D01*
X7599375Y-20483160D02*
X7723184Y-20483160D01*
X7951756Y-20549827D02*
X7951756Y-20349827D01*
X8037470Y-20549827D02*
X8037470Y-20445065D01*
X8037470Y-20445065D02*
X8027946Y-20426017D01*
X8027946Y-20426017D02*
X8008899Y-20416493D01*
X8008899Y-20416493D02*
X7980327Y-20416493D01*
X7980327Y-20416493D02*
X7961280Y-20426017D01*
X7961280Y-20426017D02*
X7951756Y-20435541D01*
X8161280Y-20549827D02*
X8142232Y-20540303D01*
X8142232Y-20540303D02*
X8132708Y-20530779D01*
X8132708Y-20530779D02*
X8123184Y-20511731D01*
X8123184Y-20511731D02*
X8123184Y-20454589D01*
X8123184Y-20454589D02*
X8132708Y-20435541D01*
X8132708Y-20435541D02*
X8142232Y-20426017D01*
X8142232Y-20426017D02*
X8161280Y-20416493D01*
X8161280Y-20416493D02*
X8189851Y-20416493D01*
X8189851Y-20416493D02*
X8208899Y-20426017D01*
X8208899Y-20426017D02*
X8218422Y-20435541D01*
X8218422Y-20435541D02*
X8227946Y-20454589D01*
X8227946Y-20454589D02*
X8227946Y-20511731D01*
X8227946Y-20511731D02*
X8218422Y-20530779D01*
X8218422Y-20530779D02*
X8208899Y-20540303D01*
X8208899Y-20540303D02*
X8189851Y-20549827D01*
X8189851Y-20549827D02*
X8161280Y-20549827D01*
X8342232Y-20549827D02*
X8323184Y-20540303D01*
X8323184Y-20540303D02*
X8313661Y-20521255D01*
X8313661Y-20521255D02*
X8313661Y-20349827D01*
X8494613Y-20540303D02*
X8475565Y-20549827D01*
X8475565Y-20549827D02*
X8437470Y-20549827D01*
X8437470Y-20549827D02*
X8418423Y-20540303D01*
X8418423Y-20540303D02*
X8408899Y-20521255D01*
X8408899Y-20521255D02*
X8408899Y-20445065D01*
X8408899Y-20445065D02*
X8418423Y-20426017D01*
X8418423Y-20426017D02*
X8437470Y-20416493D01*
X8437470Y-20416493D02*
X8475565Y-20416493D01*
X8475565Y-20416493D02*
X8494613Y-20426017D01*
X8494613Y-20426017D02*
X8504137Y-20445065D01*
X8504137Y-20445065D02*
X8504137Y-20464112D01*
X8504137Y-20464112D02*
X8408899Y-20483160D01*
X8580327Y-20540303D02*
X8599375Y-20549827D01*
X8599375Y-20549827D02*
X8637470Y-20549827D01*
X8637470Y-20549827D02*
X8656518Y-20540303D01*
X8656518Y-20540303D02*
X8666042Y-20521255D01*
X8666042Y-20521255D02*
X8666042Y-20511731D01*
X8666042Y-20511731D02*
X8656518Y-20492684D01*
X8656518Y-20492684D02*
X8637470Y-20483160D01*
X8637470Y-20483160D02*
X8608899Y-20483160D01*
X8608899Y-20483160D02*
X8589851Y-20473636D01*
X8589851Y-20473636D02*
X8580327Y-20454589D01*
X8580327Y-20454589D02*
X8580327Y-20445065D01*
X8580327Y-20445065D02*
X8589851Y-20426017D01*
X8589851Y-20426017D02*
X8608899Y-20416493D01*
X8608899Y-20416493D02*
X8637470Y-20416493D01*
X8637470Y-20416493D02*
X8656518Y-20426017D01*
X8732708Y-20626017D02*
X8742232Y-20616493D01*
X8742232Y-20616493D02*
X8761280Y-20587922D01*
X8761280Y-20587922D02*
X8770804Y-20568874D01*
X8770804Y-20568874D02*
X8780327Y-20540303D01*
X8780327Y-20540303D02*
X8789851Y-20492684D01*
X8789851Y-20492684D02*
X8789851Y-20454589D01*
X8789851Y-20454589D02*
X8780327Y-20406969D01*
X8780327Y-20406969D02*
X8770804Y-20378398D01*
X8770804Y-20378398D02*
X8761280Y-20359350D01*
X8761280Y-20359350D02*
X8742232Y-20330779D01*
X8742232Y-20330779D02*
X8732708Y-20321255D01*
D12*
X3742169Y-20697343D02*
X3742169Y-20747343D01*
X3717169Y-20722343D02*
X3767169Y-20722343D01*
D10*
X4066041Y-20613827D02*
X4085089Y-20613827D01*
X4085089Y-20613827D02*
X4104136Y-20623350D01*
X4104136Y-20623350D02*
X4113660Y-20632874D01*
X4113660Y-20632874D02*
X4123184Y-20651922D01*
X4123184Y-20651922D02*
X4132708Y-20690017D01*
X4132708Y-20690017D02*
X4132708Y-20737636D01*
X4132708Y-20737636D02*
X4123184Y-20775731D01*
X4123184Y-20775731D02*
X4113660Y-20794779D01*
X4113660Y-20794779D02*
X4104136Y-20804303D01*
X4104136Y-20804303D02*
X4085089Y-20813827D01*
X4085089Y-20813827D02*
X4066041Y-20813827D01*
X4066041Y-20813827D02*
X4046993Y-20804303D01*
X4046993Y-20804303D02*
X4037470Y-20794779D01*
X4037470Y-20794779D02*
X4027946Y-20775731D01*
X4027946Y-20775731D02*
X4018422Y-20737636D01*
X4018422Y-20737636D02*
X4018422Y-20690017D01*
X4018422Y-20690017D02*
X4027946Y-20651922D01*
X4027946Y-20651922D02*
X4037470Y-20632874D01*
X4037470Y-20632874D02*
X4046993Y-20623350D01*
X4046993Y-20623350D02*
X4066041Y-20613827D01*
X4218422Y-20794779D02*
X4227946Y-20804303D01*
X4227946Y-20804303D02*
X4218422Y-20813827D01*
X4218422Y-20813827D02*
X4208898Y-20804303D01*
X4208898Y-20804303D02*
X4218422Y-20794779D01*
X4218422Y-20794779D02*
X4218422Y-20813827D01*
X4408898Y-20613827D02*
X4313660Y-20613827D01*
X4313660Y-20613827D02*
X4304136Y-20709065D01*
X4304136Y-20709065D02*
X4313660Y-20699541D01*
X4313660Y-20699541D02*
X4332708Y-20690017D01*
X4332708Y-20690017D02*
X4380327Y-20690017D01*
X4380327Y-20690017D02*
X4399375Y-20699541D01*
X4399375Y-20699541D02*
X4408898Y-20709065D01*
X4408898Y-20709065D02*
X4418422Y-20728112D01*
X4418422Y-20728112D02*
X4418422Y-20775731D01*
X4418422Y-20775731D02*
X4408898Y-20794779D01*
X4408898Y-20794779D02*
X4399375Y-20804303D01*
X4399375Y-20804303D02*
X4380327Y-20813827D01*
X4380327Y-20813827D02*
X4332708Y-20813827D01*
X4332708Y-20813827D02*
X4313660Y-20804303D01*
X4313660Y-20804303D02*
X4304136Y-20794779D01*
X4542232Y-20613827D02*
X4561279Y-20613827D01*
X4561279Y-20613827D02*
X4580327Y-20623350D01*
X4580327Y-20623350D02*
X4589851Y-20632874D01*
X4589851Y-20632874D02*
X4599375Y-20651922D01*
X4599375Y-20651922D02*
X4608898Y-20690017D01*
X4608898Y-20690017D02*
X4608898Y-20737636D01*
X4608898Y-20737636D02*
X4599375Y-20775731D01*
X4599375Y-20775731D02*
X4589851Y-20794779D01*
X4589851Y-20794779D02*
X4580327Y-20804303D01*
X4580327Y-20804303D02*
X4561279Y-20813827D01*
X4561279Y-20813827D02*
X4542232Y-20813827D01*
X4542232Y-20813827D02*
X4523184Y-20804303D01*
X4523184Y-20804303D02*
X4513660Y-20794779D01*
X4513660Y-20794779D02*
X4504136Y-20775731D01*
X4504136Y-20775731D02*
X4494613Y-20737636D01*
X4494613Y-20737636D02*
X4494613Y-20690017D01*
X4494613Y-20690017D02*
X4504136Y-20651922D01*
X4504136Y-20651922D02*
X4513660Y-20632874D01*
X4513660Y-20632874D02*
X4523184Y-20623350D01*
X4523184Y-20623350D02*
X4542232Y-20613827D01*
X4732708Y-20613827D02*
X4751756Y-20613827D01*
X4751756Y-20613827D02*
X4770803Y-20623350D01*
X4770803Y-20623350D02*
X4780327Y-20632874D01*
X4780327Y-20632874D02*
X4789851Y-20651922D01*
X4789851Y-20651922D02*
X4799375Y-20690017D01*
X4799375Y-20690017D02*
X4799375Y-20737636D01*
X4799375Y-20737636D02*
X4789851Y-20775731D01*
X4789851Y-20775731D02*
X4780327Y-20794779D01*
X4780327Y-20794779D02*
X4770803Y-20804303D01*
X4770803Y-20804303D02*
X4751756Y-20813827D01*
X4751756Y-20813827D02*
X4732708Y-20813827D01*
X4732708Y-20813827D02*
X4713660Y-20804303D01*
X4713660Y-20804303D02*
X4704136Y-20794779D01*
X4704136Y-20794779D02*
X4694613Y-20775731D01*
X4694613Y-20775731D02*
X4685089Y-20737636D01*
X4685089Y-20737636D02*
X4685089Y-20690017D01*
X4685089Y-20690017D02*
X4694613Y-20651922D01*
X4694613Y-20651922D02*
X4704136Y-20632874D01*
X4704136Y-20632874D02*
X4713660Y-20623350D01*
X4713660Y-20623350D02*
X4732708Y-20613827D01*
X4885089Y-20813827D02*
X4885089Y-20680493D01*
X4885089Y-20699541D02*
X4894613Y-20690017D01*
X4894613Y-20690017D02*
X4913660Y-20680493D01*
X4913660Y-20680493D02*
X4942232Y-20680493D01*
X4942232Y-20680493D02*
X4961279Y-20690017D01*
X4961279Y-20690017D02*
X4970803Y-20709065D01*
X4970803Y-20709065D02*
X4970803Y-20813827D01*
X4970803Y-20709065D02*
X4980327Y-20690017D01*
X4980327Y-20690017D02*
X4999375Y-20680493D01*
X4999375Y-20680493D02*
X5027946Y-20680493D01*
X5027946Y-20680493D02*
X5046994Y-20690017D01*
X5046994Y-20690017D02*
X5056517Y-20709065D01*
X5056517Y-20709065D02*
X5056517Y-20813827D01*
X5151756Y-20813827D02*
X5151756Y-20680493D01*
X5151756Y-20699541D02*
X5161279Y-20690017D01*
X5161279Y-20690017D02*
X5180327Y-20680493D01*
X5180327Y-20680493D02*
X5208898Y-20680493D01*
X5208898Y-20680493D02*
X5227946Y-20690017D01*
X5227946Y-20690017D02*
X5237470Y-20709065D01*
X5237470Y-20709065D02*
X5237470Y-20813827D01*
X5237470Y-20709065D02*
X5246994Y-20690017D01*
X5246994Y-20690017D02*
X5266041Y-20680493D01*
X5266041Y-20680493D02*
X5294613Y-20680493D01*
X5294613Y-20680493D02*
X5313660Y-20690017D01*
X5313660Y-20690017D02*
X5323184Y-20709065D01*
X5323184Y-20709065D02*
X5323184Y-20813827D01*
X5713660Y-20604303D02*
X5542232Y-20861446D01*
X5970803Y-20613827D02*
X5989851Y-20613827D01*
X5989851Y-20613827D02*
X6008898Y-20623350D01*
X6008898Y-20623350D02*
X6018422Y-20632874D01*
X6018422Y-20632874D02*
X6027946Y-20651922D01*
X6027946Y-20651922D02*
X6037470Y-20690017D01*
X6037470Y-20690017D02*
X6037470Y-20737636D01*
X6037470Y-20737636D02*
X6027946Y-20775731D01*
X6027946Y-20775731D02*
X6018422Y-20794779D01*
X6018422Y-20794779D02*
X6008898Y-20804303D01*
X6008898Y-20804303D02*
X5989851Y-20813827D01*
X5989851Y-20813827D02*
X5970803Y-20813827D01*
X5970803Y-20813827D02*
X5951756Y-20804303D01*
X5951756Y-20804303D02*
X5942232Y-20794779D01*
X5942232Y-20794779D02*
X5932708Y-20775731D01*
X5932708Y-20775731D02*
X5923184Y-20737636D01*
X5923184Y-20737636D02*
X5923184Y-20690017D01*
X5923184Y-20690017D02*
X5932708Y-20651922D01*
X5932708Y-20651922D02*
X5942232Y-20632874D01*
X5942232Y-20632874D02*
X5951756Y-20623350D01*
X5951756Y-20623350D02*
X5970803Y-20613827D01*
X6123184Y-20794779D02*
X6132708Y-20804303D01*
X6132708Y-20804303D02*
X6123184Y-20813827D01*
X6123184Y-20813827D02*
X6113660Y-20804303D01*
X6113660Y-20804303D02*
X6123184Y-20794779D01*
X6123184Y-20794779D02*
X6123184Y-20813827D01*
X6256517Y-20613827D02*
X6275565Y-20613827D01*
X6275565Y-20613827D02*
X6294613Y-20623350D01*
X6294613Y-20623350D02*
X6304137Y-20632874D01*
X6304137Y-20632874D02*
X6313660Y-20651922D01*
X6313660Y-20651922D02*
X6323184Y-20690017D01*
X6323184Y-20690017D02*
X6323184Y-20737636D01*
X6323184Y-20737636D02*
X6313660Y-20775731D01*
X6313660Y-20775731D02*
X6304137Y-20794779D01*
X6304137Y-20794779D02*
X6294613Y-20804303D01*
X6294613Y-20804303D02*
X6275565Y-20813827D01*
X6275565Y-20813827D02*
X6256517Y-20813827D01*
X6256517Y-20813827D02*
X6237470Y-20804303D01*
X6237470Y-20804303D02*
X6227946Y-20794779D01*
X6227946Y-20794779D02*
X6218422Y-20775731D01*
X6218422Y-20775731D02*
X6208898Y-20737636D01*
X6208898Y-20737636D02*
X6208898Y-20690017D01*
X6208898Y-20690017D02*
X6218422Y-20651922D01*
X6218422Y-20651922D02*
X6227946Y-20632874D01*
X6227946Y-20632874D02*
X6237470Y-20623350D01*
X6237470Y-20623350D02*
X6256517Y-20613827D01*
X6513660Y-20813827D02*
X6399375Y-20813827D01*
X6456517Y-20813827D02*
X6456517Y-20613827D01*
X6456517Y-20613827D02*
X6437470Y-20642398D01*
X6437470Y-20642398D02*
X6418422Y-20661446D01*
X6418422Y-20661446D02*
X6399375Y-20670969D01*
X6608898Y-20813827D02*
X6646994Y-20813827D01*
X6646994Y-20813827D02*
X6666041Y-20804303D01*
X6666041Y-20804303D02*
X6675565Y-20794779D01*
X6675565Y-20794779D02*
X6694613Y-20766208D01*
X6694613Y-20766208D02*
X6704137Y-20728112D01*
X6704137Y-20728112D02*
X6704137Y-20651922D01*
X6704137Y-20651922D02*
X6694613Y-20632874D01*
X6694613Y-20632874D02*
X6685089Y-20623350D01*
X6685089Y-20623350D02*
X6666041Y-20613827D01*
X6666041Y-20613827D02*
X6627946Y-20613827D01*
X6627946Y-20613827D02*
X6608898Y-20623350D01*
X6608898Y-20623350D02*
X6599375Y-20632874D01*
X6599375Y-20632874D02*
X6589851Y-20651922D01*
X6589851Y-20651922D02*
X6589851Y-20699541D01*
X6589851Y-20699541D02*
X6599375Y-20718589D01*
X6599375Y-20718589D02*
X6608898Y-20728112D01*
X6608898Y-20728112D02*
X6627946Y-20737636D01*
X6627946Y-20737636D02*
X6666041Y-20737636D01*
X6666041Y-20737636D02*
X6685089Y-20728112D01*
X6685089Y-20728112D02*
X6694613Y-20718589D01*
X6694613Y-20718589D02*
X6704137Y-20699541D01*
X6770803Y-20613827D02*
X6904137Y-20613827D01*
X6904137Y-20613827D02*
X6818422Y-20813827D01*
X6970803Y-20613827D02*
X6970803Y-20651922D01*
X7046994Y-20613827D02*
X7046994Y-20651922D01*
X7342232Y-20890017D02*
X7332708Y-20880493D01*
X7332708Y-20880493D02*
X7313660Y-20851922D01*
X7313660Y-20851922D02*
X7304137Y-20832874D01*
X7304137Y-20832874D02*
X7294613Y-20804303D01*
X7294613Y-20804303D02*
X7285089Y-20756684D01*
X7285089Y-20756684D02*
X7285089Y-20718589D01*
X7285089Y-20718589D02*
X7294613Y-20670969D01*
X7294613Y-20670969D02*
X7304137Y-20642398D01*
X7304137Y-20642398D02*
X7313660Y-20623350D01*
X7313660Y-20623350D02*
X7332708Y-20594779D01*
X7332708Y-20594779D02*
X7342232Y-20585255D01*
X7446994Y-20699541D02*
X7427946Y-20690017D01*
X7427946Y-20690017D02*
X7418422Y-20680493D01*
X7418422Y-20680493D02*
X7408899Y-20661446D01*
X7408899Y-20661446D02*
X7408899Y-20651922D01*
X7408899Y-20651922D02*
X7418422Y-20632874D01*
X7418422Y-20632874D02*
X7427946Y-20623350D01*
X7427946Y-20623350D02*
X7446994Y-20613827D01*
X7446994Y-20613827D02*
X7485089Y-20613827D01*
X7485089Y-20613827D02*
X7504137Y-20623350D01*
X7504137Y-20623350D02*
X7513660Y-20632874D01*
X7513660Y-20632874D02*
X7523184Y-20651922D01*
X7523184Y-20651922D02*
X7523184Y-20661446D01*
X7523184Y-20661446D02*
X7513660Y-20680493D01*
X7513660Y-20680493D02*
X7504137Y-20690017D01*
X7504137Y-20690017D02*
X7485089Y-20699541D01*
X7485089Y-20699541D02*
X7446994Y-20699541D01*
X7446994Y-20699541D02*
X7427946Y-20709065D01*
X7427946Y-20709065D02*
X7418422Y-20718589D01*
X7418422Y-20718589D02*
X7408899Y-20737636D01*
X7408899Y-20737636D02*
X7408899Y-20775731D01*
X7408899Y-20775731D02*
X7418422Y-20794779D01*
X7418422Y-20794779D02*
X7427946Y-20804303D01*
X7427946Y-20804303D02*
X7446994Y-20813827D01*
X7446994Y-20813827D02*
X7485089Y-20813827D01*
X7485089Y-20813827D02*
X7504137Y-20804303D01*
X7504137Y-20804303D02*
X7513660Y-20794779D01*
X7513660Y-20794779D02*
X7523184Y-20775731D01*
X7523184Y-20775731D02*
X7523184Y-20737636D01*
X7523184Y-20737636D02*
X7513660Y-20718589D01*
X7513660Y-20718589D02*
X7504137Y-20709065D01*
X7504137Y-20709065D02*
X7485089Y-20699541D01*
X7761280Y-20813827D02*
X7761280Y-20613827D01*
X7846994Y-20813827D02*
X7846994Y-20709065D01*
X7846994Y-20709065D02*
X7837470Y-20690017D01*
X7837470Y-20690017D02*
X7818422Y-20680493D01*
X7818422Y-20680493D02*
X7789851Y-20680493D01*
X7789851Y-20680493D02*
X7770803Y-20690017D01*
X7770803Y-20690017D02*
X7761280Y-20699541D01*
X7970803Y-20813827D02*
X7951756Y-20804303D01*
X7951756Y-20804303D02*
X7942232Y-20794779D01*
X7942232Y-20794779D02*
X7932708Y-20775731D01*
X7932708Y-20775731D02*
X7932708Y-20718589D01*
X7932708Y-20718589D02*
X7942232Y-20699541D01*
X7942232Y-20699541D02*
X7951756Y-20690017D01*
X7951756Y-20690017D02*
X7970803Y-20680493D01*
X7970803Y-20680493D02*
X7999375Y-20680493D01*
X7999375Y-20680493D02*
X8018422Y-20690017D01*
X8018422Y-20690017D02*
X8027946Y-20699541D01*
X8027946Y-20699541D02*
X8037470Y-20718589D01*
X8037470Y-20718589D02*
X8037470Y-20775731D01*
X8037470Y-20775731D02*
X8027946Y-20794779D01*
X8027946Y-20794779D02*
X8018422Y-20804303D01*
X8018422Y-20804303D02*
X7999375Y-20813827D01*
X7999375Y-20813827D02*
X7970803Y-20813827D01*
X8151756Y-20813827D02*
X8132708Y-20804303D01*
X8132708Y-20804303D02*
X8123184Y-20785255D01*
X8123184Y-20785255D02*
X8123184Y-20613827D01*
X8304137Y-20804303D02*
X8285089Y-20813827D01*
X8285089Y-20813827D02*
X8246994Y-20813827D01*
X8246994Y-20813827D02*
X8227946Y-20804303D01*
X8227946Y-20804303D02*
X8218422Y-20785255D01*
X8218422Y-20785255D02*
X8218422Y-20709065D01*
X8218422Y-20709065D02*
X8227946Y-20690017D01*
X8227946Y-20690017D02*
X8246994Y-20680493D01*
X8246994Y-20680493D02*
X8285089Y-20680493D01*
X8285089Y-20680493D02*
X8304137Y-20690017D01*
X8304137Y-20690017D02*
X8313661Y-20709065D01*
X8313661Y-20709065D02*
X8313661Y-20728112D01*
X8313661Y-20728112D02*
X8218422Y-20747160D01*
X8389851Y-20804303D02*
X8408899Y-20813827D01*
X8408899Y-20813827D02*
X8446994Y-20813827D01*
X8446994Y-20813827D02*
X8466042Y-20804303D01*
X8466042Y-20804303D02*
X8475565Y-20785255D01*
X8475565Y-20785255D02*
X8475565Y-20775731D01*
X8475565Y-20775731D02*
X8466042Y-20756684D01*
X8466042Y-20756684D02*
X8446994Y-20747160D01*
X8446994Y-20747160D02*
X8418423Y-20747160D01*
X8418423Y-20747160D02*
X8399375Y-20737636D01*
X8399375Y-20737636D02*
X8389851Y-20718589D01*
X8389851Y-20718589D02*
X8389851Y-20709065D01*
X8389851Y-20709065D02*
X8399375Y-20690017D01*
X8399375Y-20690017D02*
X8418423Y-20680493D01*
X8418423Y-20680493D02*
X8446994Y-20680493D01*
X8446994Y-20680493D02*
X8466042Y-20690017D01*
X8542232Y-20890017D02*
X8551756Y-20880493D01*
X8551756Y-20880493D02*
X8570804Y-20851922D01*
X8570804Y-20851922D02*
X8580327Y-20832874D01*
X8580327Y-20832874D02*
X8589851Y-20804303D01*
X8589851Y-20804303D02*
X8599375Y-20756684D01*
X8599375Y-20756684D02*
X8599375Y-20718589D01*
X8599375Y-20718589D02*
X8589851Y-20670969D01*
X8589851Y-20670969D02*
X8580327Y-20642398D01*
X8580327Y-20642398D02*
X8570804Y-20623350D01*
X8570804Y-20623350D02*
X8551756Y-20594779D01*
X8551756Y-20594779D02*
X8542232Y-20585255D01*
D12*
X3758382Y-21007556D02*
X3758382Y-20965129D01*
X3715956Y-20965129D01*
X3715956Y-21007556D01*
X3758382Y-21007556D01*
D10*
X4066041Y-20877827D02*
X4085089Y-20877827D01*
X4085089Y-20877827D02*
X4104136Y-20887350D01*
X4104136Y-20887350D02*
X4113660Y-20896874D01*
X4113660Y-20896874D02*
X4123184Y-20915922D01*
X4123184Y-20915922D02*
X4132708Y-20954017D01*
X4132708Y-20954017D02*
X4132708Y-21001636D01*
X4132708Y-21001636D02*
X4123184Y-21039731D01*
X4123184Y-21039731D02*
X4113660Y-21058779D01*
X4113660Y-21058779D02*
X4104136Y-21068303D01*
X4104136Y-21068303D02*
X4085089Y-21077827D01*
X4085089Y-21077827D02*
X4066041Y-21077827D01*
X4066041Y-21077827D02*
X4046993Y-21068303D01*
X4046993Y-21068303D02*
X4037470Y-21058779D01*
X4037470Y-21058779D02*
X4027946Y-21039731D01*
X4027946Y-21039731D02*
X4018422Y-21001636D01*
X4018422Y-21001636D02*
X4018422Y-20954017D01*
X4018422Y-20954017D02*
X4027946Y-20915922D01*
X4027946Y-20915922D02*
X4037470Y-20896874D01*
X4037470Y-20896874D02*
X4046993Y-20887350D01*
X4046993Y-20887350D02*
X4066041Y-20877827D01*
X4218422Y-21058779D02*
X4227946Y-21068303D01*
X4227946Y-21068303D02*
X4218422Y-21077827D01*
X4218422Y-21077827D02*
X4208898Y-21068303D01*
X4208898Y-21068303D02*
X4218422Y-21058779D01*
X4218422Y-21058779D02*
X4218422Y-21077827D01*
X4399375Y-20877827D02*
X4361279Y-20877827D01*
X4361279Y-20877827D02*
X4342232Y-20887350D01*
X4342232Y-20887350D02*
X4332708Y-20896874D01*
X4332708Y-20896874D02*
X4313660Y-20925446D01*
X4313660Y-20925446D02*
X4304136Y-20963541D01*
X4304136Y-20963541D02*
X4304136Y-21039731D01*
X4304136Y-21039731D02*
X4313660Y-21058779D01*
X4313660Y-21058779D02*
X4323184Y-21068303D01*
X4323184Y-21068303D02*
X4342232Y-21077827D01*
X4342232Y-21077827D02*
X4380327Y-21077827D01*
X4380327Y-21077827D02*
X4399375Y-21068303D01*
X4399375Y-21068303D02*
X4408898Y-21058779D01*
X4408898Y-21058779D02*
X4418422Y-21039731D01*
X4418422Y-21039731D02*
X4418422Y-20992112D01*
X4418422Y-20992112D02*
X4408898Y-20973065D01*
X4408898Y-20973065D02*
X4399375Y-20963541D01*
X4399375Y-20963541D02*
X4380327Y-20954017D01*
X4380327Y-20954017D02*
X4342232Y-20954017D01*
X4342232Y-20954017D02*
X4323184Y-20963541D01*
X4323184Y-20963541D02*
X4313660Y-20973065D01*
X4313660Y-20973065D02*
X4304136Y-20992112D01*
X4542232Y-20877827D02*
X4561279Y-20877827D01*
X4561279Y-20877827D02*
X4580327Y-20887350D01*
X4580327Y-20887350D02*
X4589851Y-20896874D01*
X4589851Y-20896874D02*
X4599375Y-20915922D01*
X4599375Y-20915922D02*
X4608898Y-20954017D01*
X4608898Y-20954017D02*
X4608898Y-21001636D01*
X4608898Y-21001636D02*
X4599375Y-21039731D01*
X4599375Y-21039731D02*
X4589851Y-21058779D01*
X4589851Y-21058779D02*
X4580327Y-21068303D01*
X4580327Y-21068303D02*
X4561279Y-21077827D01*
X4561279Y-21077827D02*
X4542232Y-21077827D01*
X4542232Y-21077827D02*
X4523184Y-21068303D01*
X4523184Y-21068303D02*
X4513660Y-21058779D01*
X4513660Y-21058779D02*
X4504136Y-21039731D01*
X4504136Y-21039731D02*
X4494613Y-21001636D01*
X4494613Y-21001636D02*
X4494613Y-20954017D01*
X4494613Y-20954017D02*
X4504136Y-20915922D01*
X4504136Y-20915922D02*
X4513660Y-20896874D01*
X4513660Y-20896874D02*
X4523184Y-20887350D01*
X4523184Y-20887350D02*
X4542232Y-20877827D01*
X4732708Y-20877827D02*
X4751756Y-20877827D01*
X4751756Y-20877827D02*
X4770803Y-20887350D01*
X4770803Y-20887350D02*
X4780327Y-20896874D01*
X4780327Y-20896874D02*
X4789851Y-20915922D01*
X4789851Y-20915922D02*
X4799375Y-20954017D01*
X4799375Y-20954017D02*
X4799375Y-21001636D01*
X4799375Y-21001636D02*
X4789851Y-21039731D01*
X4789851Y-21039731D02*
X4780327Y-21058779D01*
X4780327Y-21058779D02*
X4770803Y-21068303D01*
X4770803Y-21068303D02*
X4751756Y-21077827D01*
X4751756Y-21077827D02*
X4732708Y-21077827D01*
X4732708Y-21077827D02*
X4713660Y-21068303D01*
X4713660Y-21068303D02*
X4704136Y-21058779D01*
X4704136Y-21058779D02*
X4694613Y-21039731D01*
X4694613Y-21039731D02*
X4685089Y-21001636D01*
X4685089Y-21001636D02*
X4685089Y-20954017D01*
X4685089Y-20954017D02*
X4694613Y-20915922D01*
X4694613Y-20915922D02*
X4704136Y-20896874D01*
X4704136Y-20896874D02*
X4713660Y-20887350D01*
X4713660Y-20887350D02*
X4732708Y-20877827D01*
X4885089Y-21077827D02*
X4885089Y-20944493D01*
X4885089Y-20963541D02*
X4894613Y-20954017D01*
X4894613Y-20954017D02*
X4913660Y-20944493D01*
X4913660Y-20944493D02*
X4942232Y-20944493D01*
X4942232Y-20944493D02*
X4961279Y-20954017D01*
X4961279Y-20954017D02*
X4970803Y-20973065D01*
X4970803Y-20973065D02*
X4970803Y-21077827D01*
X4970803Y-20973065D02*
X4980327Y-20954017D01*
X4980327Y-20954017D02*
X4999375Y-20944493D01*
X4999375Y-20944493D02*
X5027946Y-20944493D01*
X5027946Y-20944493D02*
X5046994Y-20954017D01*
X5046994Y-20954017D02*
X5056517Y-20973065D01*
X5056517Y-20973065D02*
X5056517Y-21077827D01*
X5151756Y-21077827D02*
X5151756Y-20944493D01*
X5151756Y-20963541D02*
X5161279Y-20954017D01*
X5161279Y-20954017D02*
X5180327Y-20944493D01*
X5180327Y-20944493D02*
X5208898Y-20944493D01*
X5208898Y-20944493D02*
X5227946Y-20954017D01*
X5227946Y-20954017D02*
X5237470Y-20973065D01*
X5237470Y-20973065D02*
X5237470Y-21077827D01*
X5237470Y-20973065D02*
X5246994Y-20954017D01*
X5246994Y-20954017D02*
X5266041Y-20944493D01*
X5266041Y-20944493D02*
X5294613Y-20944493D01*
X5294613Y-20944493D02*
X5313660Y-20954017D01*
X5313660Y-20954017D02*
X5323184Y-20973065D01*
X5323184Y-20973065D02*
X5323184Y-21077827D01*
X5713660Y-20868303D02*
X5542232Y-21125446D01*
X5970803Y-20877827D02*
X5989851Y-20877827D01*
X5989851Y-20877827D02*
X6008898Y-20887350D01*
X6008898Y-20887350D02*
X6018422Y-20896874D01*
X6018422Y-20896874D02*
X6027946Y-20915922D01*
X6027946Y-20915922D02*
X6037470Y-20954017D01*
X6037470Y-20954017D02*
X6037470Y-21001636D01*
X6037470Y-21001636D02*
X6027946Y-21039731D01*
X6027946Y-21039731D02*
X6018422Y-21058779D01*
X6018422Y-21058779D02*
X6008898Y-21068303D01*
X6008898Y-21068303D02*
X5989851Y-21077827D01*
X5989851Y-21077827D02*
X5970803Y-21077827D01*
X5970803Y-21077827D02*
X5951756Y-21068303D01*
X5951756Y-21068303D02*
X5942232Y-21058779D01*
X5942232Y-21058779D02*
X5932708Y-21039731D01*
X5932708Y-21039731D02*
X5923184Y-21001636D01*
X5923184Y-21001636D02*
X5923184Y-20954017D01*
X5923184Y-20954017D02*
X5932708Y-20915922D01*
X5932708Y-20915922D02*
X5942232Y-20896874D01*
X5942232Y-20896874D02*
X5951756Y-20887350D01*
X5951756Y-20887350D02*
X5970803Y-20877827D01*
X6123184Y-21058779D02*
X6132708Y-21068303D01*
X6132708Y-21068303D02*
X6123184Y-21077827D01*
X6123184Y-21077827D02*
X6113660Y-21068303D01*
X6113660Y-21068303D02*
X6123184Y-21058779D01*
X6123184Y-21058779D02*
X6123184Y-21077827D01*
X6256517Y-20877827D02*
X6275565Y-20877827D01*
X6275565Y-20877827D02*
X6294613Y-20887350D01*
X6294613Y-20887350D02*
X6304137Y-20896874D01*
X6304137Y-20896874D02*
X6313660Y-20915922D01*
X6313660Y-20915922D02*
X6323184Y-20954017D01*
X6323184Y-20954017D02*
X6323184Y-21001636D01*
X6323184Y-21001636D02*
X6313660Y-21039731D01*
X6313660Y-21039731D02*
X6304137Y-21058779D01*
X6304137Y-21058779D02*
X6294613Y-21068303D01*
X6294613Y-21068303D02*
X6275565Y-21077827D01*
X6275565Y-21077827D02*
X6256517Y-21077827D01*
X6256517Y-21077827D02*
X6237470Y-21068303D01*
X6237470Y-21068303D02*
X6227946Y-21058779D01*
X6227946Y-21058779D02*
X6218422Y-21039731D01*
X6218422Y-21039731D02*
X6208898Y-21001636D01*
X6208898Y-21001636D02*
X6208898Y-20954017D01*
X6208898Y-20954017D02*
X6218422Y-20915922D01*
X6218422Y-20915922D02*
X6227946Y-20896874D01*
X6227946Y-20896874D02*
X6237470Y-20887350D01*
X6237470Y-20887350D02*
X6256517Y-20877827D01*
X6399375Y-20896874D02*
X6408898Y-20887350D01*
X6408898Y-20887350D02*
X6427946Y-20877827D01*
X6427946Y-20877827D02*
X6475565Y-20877827D01*
X6475565Y-20877827D02*
X6494613Y-20887350D01*
X6494613Y-20887350D02*
X6504137Y-20896874D01*
X6504137Y-20896874D02*
X6513660Y-20915922D01*
X6513660Y-20915922D02*
X6513660Y-20934969D01*
X6513660Y-20934969D02*
X6504137Y-20963541D01*
X6504137Y-20963541D02*
X6389851Y-21077827D01*
X6389851Y-21077827D02*
X6513660Y-21077827D01*
X6580327Y-20877827D02*
X6704137Y-20877827D01*
X6704137Y-20877827D02*
X6637470Y-20954017D01*
X6637470Y-20954017D02*
X6666041Y-20954017D01*
X6666041Y-20954017D02*
X6685089Y-20963541D01*
X6685089Y-20963541D02*
X6694613Y-20973065D01*
X6694613Y-20973065D02*
X6704137Y-20992112D01*
X6704137Y-20992112D02*
X6704137Y-21039731D01*
X6704137Y-21039731D02*
X6694613Y-21058779D01*
X6694613Y-21058779D02*
X6685089Y-21068303D01*
X6685089Y-21068303D02*
X6666041Y-21077827D01*
X6666041Y-21077827D02*
X6608898Y-21077827D01*
X6608898Y-21077827D02*
X6589851Y-21068303D01*
X6589851Y-21068303D02*
X6580327Y-21058779D01*
X6875565Y-20877827D02*
X6837470Y-20877827D01*
X6837470Y-20877827D02*
X6818422Y-20887350D01*
X6818422Y-20887350D02*
X6808898Y-20896874D01*
X6808898Y-20896874D02*
X6789851Y-20925446D01*
X6789851Y-20925446D02*
X6780327Y-20963541D01*
X6780327Y-20963541D02*
X6780327Y-21039731D01*
X6780327Y-21039731D02*
X6789851Y-21058779D01*
X6789851Y-21058779D02*
X6799375Y-21068303D01*
X6799375Y-21068303D02*
X6818422Y-21077827D01*
X6818422Y-21077827D02*
X6856518Y-21077827D01*
X6856518Y-21077827D02*
X6875565Y-21068303D01*
X6875565Y-21068303D02*
X6885089Y-21058779D01*
X6885089Y-21058779D02*
X6894613Y-21039731D01*
X6894613Y-21039731D02*
X6894613Y-20992112D01*
X6894613Y-20992112D02*
X6885089Y-20973065D01*
X6885089Y-20973065D02*
X6875565Y-20963541D01*
X6875565Y-20963541D02*
X6856518Y-20954017D01*
X6856518Y-20954017D02*
X6818422Y-20954017D01*
X6818422Y-20954017D02*
X6799375Y-20963541D01*
X6799375Y-20963541D02*
X6789851Y-20973065D01*
X6789851Y-20973065D02*
X6780327Y-20992112D01*
X6970803Y-20877827D02*
X6970803Y-20915922D01*
X7046994Y-20877827D02*
X7046994Y-20915922D01*
X7342232Y-21154017D02*
X7332708Y-21144493D01*
X7332708Y-21144493D02*
X7313660Y-21115922D01*
X7313660Y-21115922D02*
X7304137Y-21096874D01*
X7304137Y-21096874D02*
X7294613Y-21068303D01*
X7294613Y-21068303D02*
X7285089Y-21020684D01*
X7285089Y-21020684D02*
X7285089Y-20982589D01*
X7285089Y-20982589D02*
X7294613Y-20934969D01*
X7294613Y-20934969D02*
X7304137Y-20906398D01*
X7304137Y-20906398D02*
X7313660Y-20887350D01*
X7313660Y-20887350D02*
X7332708Y-20858779D01*
X7332708Y-20858779D02*
X7342232Y-20849255D01*
X7523184Y-21077827D02*
X7408899Y-21077827D01*
X7466041Y-21077827D02*
X7466041Y-20877827D01*
X7466041Y-20877827D02*
X7446994Y-20906398D01*
X7446994Y-20906398D02*
X7427946Y-20925446D01*
X7427946Y-20925446D02*
X7408899Y-20934969D01*
X7761280Y-21077827D02*
X7761280Y-20877827D01*
X7846994Y-21077827D02*
X7846994Y-20973065D01*
X7846994Y-20973065D02*
X7837470Y-20954017D01*
X7837470Y-20954017D02*
X7818422Y-20944493D01*
X7818422Y-20944493D02*
X7789851Y-20944493D01*
X7789851Y-20944493D02*
X7770803Y-20954017D01*
X7770803Y-20954017D02*
X7761280Y-20963541D01*
X7970803Y-21077827D02*
X7951756Y-21068303D01*
X7951756Y-21068303D02*
X7942232Y-21058779D01*
X7942232Y-21058779D02*
X7932708Y-21039731D01*
X7932708Y-21039731D02*
X7932708Y-20982589D01*
X7932708Y-20982589D02*
X7942232Y-20963541D01*
X7942232Y-20963541D02*
X7951756Y-20954017D01*
X7951756Y-20954017D02*
X7970803Y-20944493D01*
X7970803Y-20944493D02*
X7999375Y-20944493D01*
X7999375Y-20944493D02*
X8018422Y-20954017D01*
X8018422Y-20954017D02*
X8027946Y-20963541D01*
X8027946Y-20963541D02*
X8037470Y-20982589D01*
X8037470Y-20982589D02*
X8037470Y-21039731D01*
X8037470Y-21039731D02*
X8027946Y-21058779D01*
X8027946Y-21058779D02*
X8018422Y-21068303D01*
X8018422Y-21068303D02*
X7999375Y-21077827D01*
X7999375Y-21077827D02*
X7970803Y-21077827D01*
X8151756Y-21077827D02*
X8132708Y-21068303D01*
X8132708Y-21068303D02*
X8123184Y-21049255D01*
X8123184Y-21049255D02*
X8123184Y-20877827D01*
X8304137Y-21068303D02*
X8285089Y-21077827D01*
X8285089Y-21077827D02*
X8246994Y-21077827D01*
X8246994Y-21077827D02*
X8227946Y-21068303D01*
X8227946Y-21068303D02*
X8218422Y-21049255D01*
X8218422Y-21049255D02*
X8218422Y-20973065D01*
X8218422Y-20973065D02*
X8227946Y-20954017D01*
X8227946Y-20954017D02*
X8246994Y-20944493D01*
X8246994Y-20944493D02*
X8285089Y-20944493D01*
X8285089Y-20944493D02*
X8304137Y-20954017D01*
X8304137Y-20954017D02*
X8313661Y-20973065D01*
X8313661Y-20973065D02*
X8313661Y-20992112D01*
X8313661Y-20992112D02*
X8218422Y-21011160D01*
X8380327Y-21154017D02*
X8389851Y-21144493D01*
X8389851Y-21144493D02*
X8408899Y-21115922D01*
X8408899Y-21115922D02*
X8418423Y-21096874D01*
X8418423Y-21096874D02*
X8427946Y-21068303D01*
X8427946Y-21068303D02*
X8437470Y-21020684D01*
X8437470Y-21020684D02*
X8437470Y-20982589D01*
X8437470Y-20982589D02*
X8427946Y-20934969D01*
X8427946Y-20934969D02*
X8418423Y-20906398D01*
X8418423Y-20906398D02*
X8408899Y-20887350D01*
X8408899Y-20887350D02*
X8389851Y-20858779D01*
X8389851Y-20858779D02*
X8380327Y-20849255D01*
D13*
X3707669Y-21309843D02*
X3767169Y-21250343D01*
X3707669Y-21190843D01*
X3648169Y-21250343D01*
X3707669Y-21309843D01*
D10*
X4132708Y-21341827D02*
X4018422Y-21341827D01*
X4075565Y-21341827D02*
X4075565Y-21141827D01*
X4075565Y-21141827D02*
X4056517Y-21170398D01*
X4056517Y-21170398D02*
X4037470Y-21189446D01*
X4037470Y-21189446D02*
X4018422Y-21198969D01*
X4218422Y-21322779D02*
X4227946Y-21332303D01*
X4227946Y-21332303D02*
X4218422Y-21341827D01*
X4218422Y-21341827D02*
X4208898Y-21332303D01*
X4208898Y-21332303D02*
X4218422Y-21322779D01*
X4218422Y-21322779D02*
X4218422Y-21341827D01*
X4418422Y-21341827D02*
X4304136Y-21341827D01*
X4361279Y-21341827D02*
X4361279Y-21141827D01*
X4361279Y-21141827D02*
X4342232Y-21170398D01*
X4342232Y-21170398D02*
X4323184Y-21189446D01*
X4323184Y-21189446D02*
X4304136Y-21198969D01*
X4513660Y-21341827D02*
X4551755Y-21341827D01*
X4551755Y-21341827D02*
X4570803Y-21332303D01*
X4570803Y-21332303D02*
X4580327Y-21322779D01*
X4580327Y-21322779D02*
X4599375Y-21294208D01*
X4599375Y-21294208D02*
X4608898Y-21256112D01*
X4608898Y-21256112D02*
X4608898Y-21179922D01*
X4608898Y-21179922D02*
X4599375Y-21160874D01*
X4599375Y-21160874D02*
X4589851Y-21151350D01*
X4589851Y-21151350D02*
X4570803Y-21141827D01*
X4570803Y-21141827D02*
X4532708Y-21141827D01*
X4532708Y-21141827D02*
X4513660Y-21151350D01*
X4513660Y-21151350D02*
X4504136Y-21160874D01*
X4504136Y-21160874D02*
X4494613Y-21179922D01*
X4494613Y-21179922D02*
X4494613Y-21227541D01*
X4494613Y-21227541D02*
X4504136Y-21246589D01*
X4504136Y-21246589D02*
X4513660Y-21256112D01*
X4513660Y-21256112D02*
X4532708Y-21265636D01*
X4532708Y-21265636D02*
X4570803Y-21265636D01*
X4570803Y-21265636D02*
X4589851Y-21256112D01*
X4589851Y-21256112D02*
X4599375Y-21246589D01*
X4599375Y-21246589D02*
X4608898Y-21227541D01*
X4732708Y-21141827D02*
X4751756Y-21141827D01*
X4751756Y-21141827D02*
X4770803Y-21151350D01*
X4770803Y-21151350D02*
X4780327Y-21160874D01*
X4780327Y-21160874D02*
X4789851Y-21179922D01*
X4789851Y-21179922D02*
X4799375Y-21218017D01*
X4799375Y-21218017D02*
X4799375Y-21265636D01*
X4799375Y-21265636D02*
X4789851Y-21303731D01*
X4789851Y-21303731D02*
X4780327Y-21322779D01*
X4780327Y-21322779D02*
X4770803Y-21332303D01*
X4770803Y-21332303D02*
X4751756Y-21341827D01*
X4751756Y-21341827D02*
X4732708Y-21341827D01*
X4732708Y-21341827D02*
X4713660Y-21332303D01*
X4713660Y-21332303D02*
X4704136Y-21322779D01*
X4704136Y-21322779D02*
X4694613Y-21303731D01*
X4694613Y-21303731D02*
X4685089Y-21265636D01*
X4685089Y-21265636D02*
X4685089Y-21218017D01*
X4685089Y-21218017D02*
X4694613Y-21179922D01*
X4694613Y-21179922D02*
X4704136Y-21160874D01*
X4704136Y-21160874D02*
X4713660Y-21151350D01*
X4713660Y-21151350D02*
X4732708Y-21141827D01*
X4885089Y-21341827D02*
X4885089Y-21208493D01*
X4885089Y-21227541D02*
X4894613Y-21218017D01*
X4894613Y-21218017D02*
X4913660Y-21208493D01*
X4913660Y-21208493D02*
X4942232Y-21208493D01*
X4942232Y-21208493D02*
X4961279Y-21218017D01*
X4961279Y-21218017D02*
X4970803Y-21237065D01*
X4970803Y-21237065D02*
X4970803Y-21341827D01*
X4970803Y-21237065D02*
X4980327Y-21218017D01*
X4980327Y-21218017D02*
X4999375Y-21208493D01*
X4999375Y-21208493D02*
X5027946Y-21208493D01*
X5027946Y-21208493D02*
X5046994Y-21218017D01*
X5046994Y-21218017D02*
X5056517Y-21237065D01*
X5056517Y-21237065D02*
X5056517Y-21341827D01*
X5151756Y-21341827D02*
X5151756Y-21208493D01*
X5151756Y-21227541D02*
X5161279Y-21218017D01*
X5161279Y-21218017D02*
X5180327Y-21208493D01*
X5180327Y-21208493D02*
X5208898Y-21208493D01*
X5208898Y-21208493D02*
X5227946Y-21218017D01*
X5227946Y-21218017D02*
X5237470Y-21237065D01*
X5237470Y-21237065D02*
X5237470Y-21341827D01*
X5237470Y-21237065D02*
X5246994Y-21218017D01*
X5246994Y-21218017D02*
X5266041Y-21208493D01*
X5266041Y-21208493D02*
X5294613Y-21208493D01*
X5294613Y-21208493D02*
X5313660Y-21218017D01*
X5313660Y-21218017D02*
X5323184Y-21237065D01*
X5323184Y-21237065D02*
X5323184Y-21341827D01*
X5713660Y-21132303D02*
X5542232Y-21389446D01*
X5970803Y-21141827D02*
X5989851Y-21141827D01*
X5989851Y-21141827D02*
X6008898Y-21151350D01*
X6008898Y-21151350D02*
X6018422Y-21160874D01*
X6018422Y-21160874D02*
X6027946Y-21179922D01*
X6027946Y-21179922D02*
X6037470Y-21218017D01*
X6037470Y-21218017D02*
X6037470Y-21265636D01*
X6037470Y-21265636D02*
X6027946Y-21303731D01*
X6027946Y-21303731D02*
X6018422Y-21322779D01*
X6018422Y-21322779D02*
X6008898Y-21332303D01*
X6008898Y-21332303D02*
X5989851Y-21341827D01*
X5989851Y-21341827D02*
X5970803Y-21341827D01*
X5970803Y-21341827D02*
X5951756Y-21332303D01*
X5951756Y-21332303D02*
X5942232Y-21322779D01*
X5942232Y-21322779D02*
X5932708Y-21303731D01*
X5932708Y-21303731D02*
X5923184Y-21265636D01*
X5923184Y-21265636D02*
X5923184Y-21218017D01*
X5923184Y-21218017D02*
X5932708Y-21179922D01*
X5932708Y-21179922D02*
X5942232Y-21160874D01*
X5942232Y-21160874D02*
X5951756Y-21151350D01*
X5951756Y-21151350D02*
X5970803Y-21141827D01*
X6123184Y-21322779D02*
X6132708Y-21332303D01*
X6132708Y-21332303D02*
X6123184Y-21341827D01*
X6123184Y-21341827D02*
X6113660Y-21332303D01*
X6113660Y-21332303D02*
X6123184Y-21322779D01*
X6123184Y-21322779D02*
X6123184Y-21341827D01*
X6256517Y-21141827D02*
X6275565Y-21141827D01*
X6275565Y-21141827D02*
X6294613Y-21151350D01*
X6294613Y-21151350D02*
X6304137Y-21160874D01*
X6304137Y-21160874D02*
X6313660Y-21179922D01*
X6313660Y-21179922D02*
X6323184Y-21218017D01*
X6323184Y-21218017D02*
X6323184Y-21265636D01*
X6323184Y-21265636D02*
X6313660Y-21303731D01*
X6313660Y-21303731D02*
X6304137Y-21322779D01*
X6304137Y-21322779D02*
X6294613Y-21332303D01*
X6294613Y-21332303D02*
X6275565Y-21341827D01*
X6275565Y-21341827D02*
X6256517Y-21341827D01*
X6256517Y-21341827D02*
X6237470Y-21332303D01*
X6237470Y-21332303D02*
X6227946Y-21322779D01*
X6227946Y-21322779D02*
X6218422Y-21303731D01*
X6218422Y-21303731D02*
X6208898Y-21265636D01*
X6208898Y-21265636D02*
X6208898Y-21218017D01*
X6208898Y-21218017D02*
X6218422Y-21179922D01*
X6218422Y-21179922D02*
X6227946Y-21160874D01*
X6227946Y-21160874D02*
X6237470Y-21151350D01*
X6237470Y-21151350D02*
X6256517Y-21141827D01*
X6494613Y-21208493D02*
X6494613Y-21341827D01*
X6446994Y-21132303D02*
X6399375Y-21275160D01*
X6399375Y-21275160D02*
X6523184Y-21275160D01*
X6685089Y-21141827D02*
X6646994Y-21141827D01*
X6646994Y-21141827D02*
X6627946Y-21151350D01*
X6627946Y-21151350D02*
X6618422Y-21160874D01*
X6618422Y-21160874D02*
X6599375Y-21189446D01*
X6599375Y-21189446D02*
X6589851Y-21227541D01*
X6589851Y-21227541D02*
X6589851Y-21303731D01*
X6589851Y-21303731D02*
X6599375Y-21322779D01*
X6599375Y-21322779D02*
X6608898Y-21332303D01*
X6608898Y-21332303D02*
X6627946Y-21341827D01*
X6627946Y-21341827D02*
X6666041Y-21341827D01*
X6666041Y-21341827D02*
X6685089Y-21332303D01*
X6685089Y-21332303D02*
X6694613Y-21322779D01*
X6694613Y-21322779D02*
X6704137Y-21303731D01*
X6704137Y-21303731D02*
X6704137Y-21256112D01*
X6704137Y-21256112D02*
X6694613Y-21237065D01*
X6694613Y-21237065D02*
X6685089Y-21227541D01*
X6685089Y-21227541D02*
X6666041Y-21218017D01*
X6666041Y-21218017D02*
X6627946Y-21218017D01*
X6627946Y-21218017D02*
X6608898Y-21227541D01*
X6608898Y-21227541D02*
X6599375Y-21237065D01*
X6599375Y-21237065D02*
X6589851Y-21256112D01*
X6799375Y-21341827D02*
X6837470Y-21341827D01*
X6837470Y-21341827D02*
X6856518Y-21332303D01*
X6856518Y-21332303D02*
X6866041Y-21322779D01*
X6866041Y-21322779D02*
X6885089Y-21294208D01*
X6885089Y-21294208D02*
X6894613Y-21256112D01*
X6894613Y-21256112D02*
X6894613Y-21179922D01*
X6894613Y-21179922D02*
X6885089Y-21160874D01*
X6885089Y-21160874D02*
X6875565Y-21151350D01*
X6875565Y-21151350D02*
X6856518Y-21141827D01*
X6856518Y-21141827D02*
X6818422Y-21141827D01*
X6818422Y-21141827D02*
X6799375Y-21151350D01*
X6799375Y-21151350D02*
X6789851Y-21160874D01*
X6789851Y-21160874D02*
X6780327Y-21179922D01*
X6780327Y-21179922D02*
X6780327Y-21227541D01*
X6780327Y-21227541D02*
X6789851Y-21246589D01*
X6789851Y-21246589D02*
X6799375Y-21256112D01*
X6799375Y-21256112D02*
X6818422Y-21265636D01*
X6818422Y-21265636D02*
X6856518Y-21265636D01*
X6856518Y-21265636D02*
X6875565Y-21256112D01*
X6875565Y-21256112D02*
X6885089Y-21246589D01*
X6885089Y-21246589D02*
X6894613Y-21227541D01*
X6970803Y-21141827D02*
X6970803Y-21179922D01*
X7046994Y-21141827D02*
X7046994Y-21179922D01*
X7342232Y-21418017D02*
X7332708Y-21408493D01*
X7332708Y-21408493D02*
X7313660Y-21379922D01*
X7313660Y-21379922D02*
X7304137Y-21360874D01*
X7304137Y-21360874D02*
X7294613Y-21332303D01*
X7294613Y-21332303D02*
X7285089Y-21284684D01*
X7285089Y-21284684D02*
X7285089Y-21246589D01*
X7285089Y-21246589D02*
X7294613Y-21198969D01*
X7294613Y-21198969D02*
X7304137Y-21170398D01*
X7304137Y-21170398D02*
X7313660Y-21151350D01*
X7313660Y-21151350D02*
X7332708Y-21122779D01*
X7332708Y-21122779D02*
X7342232Y-21113255D01*
X7504137Y-21141827D02*
X7466041Y-21141827D01*
X7466041Y-21141827D02*
X7446994Y-21151350D01*
X7446994Y-21151350D02*
X7437470Y-21160874D01*
X7437470Y-21160874D02*
X7418422Y-21189446D01*
X7418422Y-21189446D02*
X7408899Y-21227541D01*
X7408899Y-21227541D02*
X7408899Y-21303731D01*
X7408899Y-21303731D02*
X7418422Y-21322779D01*
X7418422Y-21322779D02*
X7427946Y-21332303D01*
X7427946Y-21332303D02*
X7446994Y-21341827D01*
X7446994Y-21341827D02*
X7485089Y-21341827D01*
X7485089Y-21341827D02*
X7504137Y-21332303D01*
X7504137Y-21332303D02*
X7513660Y-21322779D01*
X7513660Y-21322779D02*
X7523184Y-21303731D01*
X7523184Y-21303731D02*
X7523184Y-21256112D01*
X7523184Y-21256112D02*
X7513660Y-21237065D01*
X7513660Y-21237065D02*
X7504137Y-21227541D01*
X7504137Y-21227541D02*
X7485089Y-21218017D01*
X7485089Y-21218017D02*
X7446994Y-21218017D01*
X7446994Y-21218017D02*
X7427946Y-21227541D01*
X7427946Y-21227541D02*
X7418422Y-21237065D01*
X7418422Y-21237065D02*
X7408899Y-21256112D01*
X7761280Y-21341827D02*
X7761280Y-21141827D01*
X7846994Y-21341827D02*
X7846994Y-21237065D01*
X7846994Y-21237065D02*
X7837470Y-21218017D01*
X7837470Y-21218017D02*
X7818422Y-21208493D01*
X7818422Y-21208493D02*
X7789851Y-21208493D01*
X7789851Y-21208493D02*
X7770803Y-21218017D01*
X7770803Y-21218017D02*
X7761280Y-21227541D01*
X7970803Y-21341827D02*
X7951756Y-21332303D01*
X7951756Y-21332303D02*
X7942232Y-21322779D01*
X7942232Y-21322779D02*
X7932708Y-21303731D01*
X7932708Y-21303731D02*
X7932708Y-21246589D01*
X7932708Y-21246589D02*
X7942232Y-21227541D01*
X7942232Y-21227541D02*
X7951756Y-21218017D01*
X7951756Y-21218017D02*
X7970803Y-21208493D01*
X7970803Y-21208493D02*
X7999375Y-21208493D01*
X7999375Y-21208493D02*
X8018422Y-21218017D01*
X8018422Y-21218017D02*
X8027946Y-21227541D01*
X8027946Y-21227541D02*
X8037470Y-21246589D01*
X8037470Y-21246589D02*
X8037470Y-21303731D01*
X8037470Y-21303731D02*
X8027946Y-21322779D01*
X8027946Y-21322779D02*
X8018422Y-21332303D01*
X8018422Y-21332303D02*
X7999375Y-21341827D01*
X7999375Y-21341827D02*
X7970803Y-21341827D01*
X8151756Y-21341827D02*
X8132708Y-21332303D01*
X8132708Y-21332303D02*
X8123184Y-21313255D01*
X8123184Y-21313255D02*
X8123184Y-21141827D01*
X8304137Y-21332303D02*
X8285089Y-21341827D01*
X8285089Y-21341827D02*
X8246994Y-21341827D01*
X8246994Y-21341827D02*
X8227946Y-21332303D01*
X8227946Y-21332303D02*
X8218422Y-21313255D01*
X8218422Y-21313255D02*
X8218422Y-21237065D01*
X8218422Y-21237065D02*
X8227946Y-21218017D01*
X8227946Y-21218017D02*
X8246994Y-21208493D01*
X8246994Y-21208493D02*
X8285089Y-21208493D01*
X8285089Y-21208493D02*
X8304137Y-21218017D01*
X8304137Y-21218017D02*
X8313661Y-21237065D01*
X8313661Y-21237065D02*
X8313661Y-21256112D01*
X8313661Y-21256112D02*
X8218422Y-21275160D01*
X8389851Y-21332303D02*
X8408899Y-21341827D01*
X8408899Y-21341827D02*
X8446994Y-21341827D01*
X8446994Y-21341827D02*
X8466042Y-21332303D01*
X8466042Y-21332303D02*
X8475565Y-21313255D01*
X8475565Y-21313255D02*
X8475565Y-21303731D01*
X8475565Y-21303731D02*
X8466042Y-21284684D01*
X8466042Y-21284684D02*
X8446994Y-21275160D01*
X8446994Y-21275160D02*
X8418423Y-21275160D01*
X8418423Y-21275160D02*
X8399375Y-21265636D01*
X8399375Y-21265636D02*
X8389851Y-21246589D01*
X8389851Y-21246589D02*
X8389851Y-21237065D01*
X8389851Y-21237065D02*
X8399375Y-21218017D01*
X8399375Y-21218017D02*
X8418423Y-21208493D01*
X8418423Y-21208493D02*
X8446994Y-21208493D01*
X8446994Y-21208493D02*
X8466042Y-21218017D01*
X8542232Y-21418017D02*
X8551756Y-21408493D01*
X8551756Y-21408493D02*
X8570804Y-21379922D01*
X8570804Y-21379922D02*
X8580327Y-21360874D01*
X8580327Y-21360874D02*
X8589851Y-21332303D01*
X8589851Y-21332303D02*
X8599375Y-21284684D01*
X8599375Y-21284684D02*
X8599375Y-21246589D01*
X8599375Y-21246589D02*
X8589851Y-21198969D01*
X8589851Y-21198969D02*
X8580327Y-21170398D01*
X8580327Y-21170398D02*
X8570804Y-21151350D01*
X8570804Y-21151350D02*
X8551756Y-21122779D01*
X8551756Y-21122779D02*
X8542232Y-21113255D01*
M02*
